<?xml version="1.0" standalone="no"?>
<!DOCTYPE svg PUBLIC "-//W3C//DTD SVG 1.1//EN" "http://www.w3.org/Graphics/SVG/1.1/DTD/svg11.dtd" >
<svg xmlns="http://www.w3.org/2000/svg" xmlns:xlink="http://www.w3.org/1999/xlink" version="1.1">
<metadata>
Created by FontForge 20170731 at Sun May 29 13:34:57 2022
 By Aleksey,,,
Copyright (c) 2013-2021 Uindbase
</metadata>
<defs>
<font id="UindbaseFont1" horiz-adv-x="1234" >
  <font-face 
    font-family="Uindbase Font 1"
    font-weight="400"
    font-stretch="normal"
    units-per-em="2048"
    panose-1="2 11 6 9 4 5 4 2 2 4"
    ascent="1638"
    descent="-410"
    x-height="800"
    cap-height="1280"
    bbox="-5 -432 1240 1627"
    underline-thickness="102"
    underline-position="-358"
    unicode-range="U+001D-FB02"
  />
<missing-glyph 
d="M1000 0h-800v1300h800v-1300zM900 100v1100h-600v-1100h600z" />
    <glyph glyph-name=".notdef" 
d="M1000 0h-800v1300h800v-1300zM900 100v1100h-600v-1100h600z" />
    <glyph glyph-name=".null" horiz-adv-x="0" 
 />
    <glyph glyph-name="glyph2" 
 />
    <glyph glyph-name="uni001D" 
 />
    <glyph glyph-name="uni001D" 
 />
    <glyph glyph-name="space" unicode=" " 
 />
    <glyph glyph-name="exclam" unicode="!" 
d="M606 0q-40 0 -67 27t-27 67q0 39 27 66.5t67 27.5q39 0 66.5 -27.5t27.5 -66.5q0 -40 -27.5 -67t-66.5 -27zM606 563l-94 937h188z" />
    <glyph glyph-name="quotedbl" unicode="&#x22;" 
d="M552 900h-200v600h200v-600zM900 900h-200v600h200v-600z" />
    <glyph glyph-name="numbersign" unicode="#" 
d="M571 800h239l129 500h161l-129 -500h129v-162h-171l-61 -238h232v-162h-274l-164 -638h-162l165 638h-239l-164 -638h-162l165 638h-165v162h207l61 238h-268v162h310l129 500h161zM768 638h-239l-61 -238h239z" />
    <glyph glyph-name="dollar" unicode="$" 
d="M512 1426h144q8 -1 8 -8v-148q81 -50 144 -116q92 -113 92 -268v-4q0 -8 -8 -8h-136q-16 0 -36 128q-31 55 -56 72v-456q236 -82 236 -296v-20q0 -211 -236 -296v-164q0 -8 -8 -8h-144q-8 0 -8 8v164h-4q-113 0 -216 188q-24 62 -24 116l8 4h136q19 -24 48 -100
q41 -40 52 -40v312q-87 0 -204 188q-40 115 -40 208q0 266 240 376h4v160q1 8 8 8zM420 870q0 -138 84 -204v412q-84 -64 -84 -208zM664 446v-268q76 42 76 128v28q0 63 -76 112z" />
    <glyph glyph-name="percent" unicode="%" 
d="M372 809q-101 0 -172 71.5t-71 171.5t71 171.5t172 71.5q100 0 171.5 -71.5t71.5 -171.5t-71.5 -171.5t-171.5 -71.5zM372 971q34 0 57.5 23.5t23.5 57.5t-23.5 57.5t-57.5 23.5t-57.5 -23.5t-23.5 -57.5t23.5 -57.5t57.5 -23.5zM857 0q-100 0 -171 71t-71 172
q0 100 71 171.5t171 71.5q101 0 172 -71.5t71 -171.5q0 -101 -71 -172t-172 -71zM857 162q34 0 57.5 23.5t23.5 57.5t-23.5 57.5t-57.5 23.5t-57.5 -23.5t-23.5 -57.5t23.5 -57.5t57.5 -23.5zM1100 1295l-809 -1295h-162l809 1295h162z" />
    <glyph glyph-name="ampersand" unicode="&#x26;" 
d="M582 1300q212 0 305 -292q13 -52 13 -124q0 -276 -253 -390q-56 -6 -85 -6q125 -184 163 -228q14 65 26 65h136q13 0 13 -19q0 -87 -78 -195q7 0 78 -104l-13 -7h-110q-36 39 -46 39q-76 -39 -156 -39q-232 0 -318 254q-7 43 -7 71q0 143 117 254q-117 134 -117 325
q0 251 215 370q45 26 117 26zM413 897v-6q0 -208 162 -241q163 33 163 241v6q0 208 -163 241q-162 -33 -162 -241zM413 319q0 -137 169 -156q16 0 65 13q-168 245 -176 266h-6q-52 -41 -52 -123z" />
    <glyph glyph-name="quotesingle" unicode="'" 
d="M734 970h-200v600h200v-600z" />
    <glyph glyph-name="parenleft" unicode="(" 
d="M800 -200v-200q-80 0 -153 76t-130 217t-87 325t-30 382t30 382t87 325t130 217t153 76v-200q-82 0 -141 -234t-59 -566t59 -566t141 -234z" />
    <glyph glyph-name="parenright" unicode=")" 
d="M400 -200q82 0 141 234t59 566t-59 566t-141 234v200q80 0 153 -76t130 -217t87 -325t30 -382t-30 -382t-87 -325t-130 -217t-153 -76v200z" />
    <glyph glyph-name="asterisk" unicode="*" 
d="M612 1500h4q72 -11 72 -72v-88q0 -16 -28 -140h4q66 8 172 48q25 25 84 44q80 -15 80 -76v-4q0 -55 -84 -88q0 -21 -196 -68h-4q30 -34 60 -88q48 -65 48 -108q36 -51 36 -76v-4q-11 -72 -72 -72h-8q-75 0 -116 156q-25 24 -68 100q-32 19 -32 24q-72 -43 -92 -88
q-22 -51 -72 -124q0 -49 -72 -64h-12q-72 11 -72 72v4q0 33 72 140q41 103 108 144l16 20q-43 27 -192 72q-52 36 -52 88q0 55 72 68h4q17 0 84 -32q103 -26 148 -60h8q24 101 28 216q24 56 72 56z" />
    <glyph glyph-name="plus" unicode="+" 
d="M713 450v-450h-200v450h-450v200h450v450h200v-450h450v-200h-450z" />
    <glyph glyph-name="comma" unicode="," 
d="M627 2v2h-13q-39 9 -70 40t-40 70v72q9 39 40 70q44 44 106 44t106 -44t44 -106v-29q0 -422 -296 -438v99q110 13 123 220zM627 2q-6 0 -12 2z" />
    <glyph glyph-name="hyphen" unicode="-" 
d="M210 543v148h814v-148h-814z" />
    <glyph glyph-name="period" unicode="." 
d="M650 0q-62 0 -106 44t-44 106t44 106t106 44t106 -44t44 -106t-44 -106t-106 -44z" />
    <glyph glyph-name="slash" unicode="/" 
d="M100 -400l900 1900h200l-910 -1900h-190z" />
    <glyph glyph-name="zero" unicode="0" 
d="M588 1280q228 0 308 -268q4 -44 4 -80v-596q0 -251 -256 -332q-48 -4 -72 -4q-227 0 -308 260q-4 25 -4 56v656q0 221 260 304q42 4 68 4zM420 944v-464h8q274 422 312 492v4q0 111 -148 140q-4 4 -32 4q-121 0 -140 -176zM420 308v-8q0 -117 172 -140q127 0 148 172v448
q-119 -163 -320 -472z" />
    <glyph glyph-name="one" unicode="1" 
d="M652 1280h144q8 -1 8 -8v-1264q0 -8 -8 -8h-144q-8 0 -8 8v1100q-195 -186 -240 -224l-4 8v128q0 23 104 116q53 58 148 144z" />
    <glyph glyph-name="two" unicode="2" 
d="M588 1280q229 0 308 -268q4 -28 4 -48q-38 -86 -356 -616q-93 -140 -112 -188h460q8 -1 8 -8v-144q0 -8 -8 -8h-624q-8 0 -8 8v128q42 101 380 656q100 152 100 184q0 118 -164 144q-76 0 -136 -76q-16 -25 -24 -84h-148q-8 0 -8 8v12q0 193 240 292q59 8 88 8z" />
    <glyph glyph-name="three" unicode="3" 
d="M268 1280h624q8 -1 8 -8v-160q0 -16 -176 -356q176 -122 176 -368q0 -272 -256 -380q-32 -8 -80 -8q-216 0 -300 328q-4 35 -4 60v8q1 8 8 8h136q12 0 40 -144q65 -100 132 -100q85 0 148 120q12 47 16 112q-18 206 -120 244q-40 8 -72 8h-44v4l236 472h-472q-8 0 -8 8
v144q1 8 8 8z" />
    <glyph glyph-name="four" unicode="4" 
d="M736 1280q8 -1 8 -8q-268 -524 -312 -632h148v152q1 8 8 8h144q8 -1 8 -8v-152h152q8 -1 8 -8v-144q0 -8 -8 -8h-152v-472q0 -8 -8 -8h-144q-8 0 -8 8v472h-312q-8 0 -8 8v136q34 94 320 656h156z" />
    <glyph glyph-name="five" unicode="5" 
d="M268 1280h624q8 -1 8 -8v-144q0 -8 -8 -8h-472v-320h156q267 0 324 -380v-28q0 -280 -256 -384q-32 -8 -68 -8q-248 0 -316 368v32l8 4h136q17 -14 40 -140q64 -104 132 -104q76 0 140 100q24 65 24 132v16q0 171 -124 224q-36 8 -52 8h-296q-8 0 -8 8v624q1 8 8 8z" />
    <glyph glyph-name="six" unicode="6" 
d="M744 1280h148q8 -1 8 -8q-173 -297 -348 -632h20q241 0 316 -268q4 -24 4 -60q0 -227 -264 -308q-31 -4 -64 -4q-227 0 -308 264q-4 31 -4 68v40q0 51 472 884q14 24 20 24zM412 300q0 -120 176 -140q92 0 132 104q12 52 12 72q0 95 -108 132q-44 12 -68 12
q-92 0 -132 -104q-12 -44 -12 -76z" />
    <glyph glyph-name="seven" unicode="7" 
d="M268 1288h624q8 -1 8 -8v-164q-340 -813 -484 -1116h-152l-8 4q218 498 484 1124h-472q-8 0 -8 8v144q1 8 8 8z" />
    <glyph glyph-name="eight" unicode="8" 
d="M584 1280q233 0 312 -332q4 -44 4 -80q0 -158 -116 -300q116 -101 116 -256q0 -227 -264 -308q-31 -4 -64 -4q-227 0 -308 264q-4 31 -4 64q0 129 116 244q-116 126 -116 316q0 273 244 380q29 12 80 12zM420 888v-16q0 -198 160 -232q160 34 160 232v16q0 198 -160 232
q-160 -34 -160 -232zM420 300q0 -120 176 -140q92 0 132 104q12 52 12 72q0 95 -108 132q-44 12 -68 12q-92 0 -132 -104q-12 -44 -12 -76z" />
    <glyph glyph-name="nine" unicode="9" 
d="M584 1280q233 0 312 -332q4 -44 4 -80v-548q0 -241 -268 -316q-24 -4 -60 -4q-227 0 -308 264q-4 50 -4 52l8 4h136q16 0 36 -88q62 -72 152 -72q97 0 136 104q12 51 12 76v140h-152q-242 0 -316 304q-12 51 -12 76v24q0 279 244 384q29 12 80 12zM420 888v-16
q0 -171 124 -224q36 -8 52 -8h144v248q0 198 -160 232q-160 -34 -160 -232z" />
    <glyph glyph-name="colon" unicode=":" 
d="M650 800q-62 0 -106 44t-44 106t44 106t106 44t106 -44t44 -106t-44 -106t-106 -44zM650 0q-62 0 -106 44t-44 106t44 106t106 44t106 -44t44 -106t-44 -106t-106 -44z" />
    <glyph glyph-name="semicolon" unicode=";" 
d="M650 800q-62 0 -106 44t-44 106t44 106t106 44t106 -44t44 -106t-44 -106t-106 -44zM623 2v2h-13q-39 9 -70 40t-40 70v72q9 39 40 70q44 44 106 44t106 -44t44 -106v-29q0 -422 -296 -438v99q110 13 123 220z" />
    <glyph glyph-name="less" unicode="&#x3c;" 
d="M1147 0l-1061 530l1061 531v-166l-730 -365l730 -364v-166z" />
    <glyph glyph-name="equal" unicode="=" 
d="M1100 638h-1000v162h1000v-162zM1100 238h-1000v162h1000v-162z" />
    <glyph glyph-name="greater" unicode="&#x3e;" 
d="M86 1061l1061 -531l-1061 -530v166l730 364l-730 365v166z" />
    <glyph glyph-name="question" unicode="?" 
d="M619 0q-39 0 -66 27t-27 67q0 39 27 66.5t66 27.5q40 0 67 -27.5t27 -66.5q0 -40 -27 -67t-67 -27zM625 750q77 0 132.5 82.5t55.5 198.5q0 117 -55.5 199.5t-132.5 82.5t-131 -83q-55 -81 -56 -193h-188q2 191 111 326q108 137 264 137t265.5 -137t109.5 -332t-109 -332
q-77 -93 -172 -123v-201h-188v375h94z" />
    <glyph glyph-name="at" unicode="@" 
d="M496 670v-7q20 -143 109 -143h10q109 26 109 143v7q-20 143 -109 143h-10q-109 -26 -109 -143zM930 173q-138 -173 -334 -173q-326 0 -471 442q-25 114 -25 208q0 427 337 618q87 32 159 32q325 0 469 -442q26 -112 26 -208v-65q0 -148 -124 -214q-23 -13 -64 -13
q-72 0 -134 41q-74 -41 -159 -41q-192 0 -238 286v32q0 215 193 293q19 6 45 6q165 0 233 -234l5 -78v-13l-15 -65l-32 -65q69 -87 107 -32q59 0 59 162q0 322 -253 462q-56 26 -118 26q-246 0 -352 -332q-20 -73 -20 -156q0 -322 252 -461q56 -26 120 -26q41 0 78 10h256z
" />
    <glyph glyph-name="A" unicode="A" 
d="M588 1280q200 0 296 -212q16 -49 16 -84v-976q0 -8 -8 -8h-144q-8 0 -8 8v472h-320v-472q0 -8 -8 -8h-144q-8 0 -8 8v920q0 250 216 336q52 16 112 16zM420 932v-292h320v340q0 80 -108 132q-28 8 -48 8q-114 0 -160 -124q-4 -41 -4 -64z" />
    <glyph glyph-name="B" unicode="B" 
d="M268 1280h320q211 0 296 -280q16 -55 16 -100v-28q0 -186 -124 -308q55 -20 104 -120q20 -55 20 -108v-32q0 -214 -256 -300q-31 -4 -68 -4h-308q-8 0 -8 8v1264q1 8 8 8zM420 1120v-480h128q163 0 192 216v24q0 111 -80 208q-38 32 -96 32h-144zM420 480v-320h112
q156 0 196 100l12 72q0 97 -136 144q-46 4 -88 4h-96z" />
    <glyph glyph-name="C" unicode="C" 
d="M584 1280q205 0 300 -220q12 -45 16 -96l-8 -4h-144q-9 0 -24 72q-56 88 -152 88q-106 0 -152 -128v-692q0 -80 108 -132q28 -8 48 -8q115 0 160 124q0 36 12 36h144l8 -4q0 -200 -216 -300q-52 -16 -112 -16q-200 0 -296 212q-16 47 -16 84v688q0 170 200 276
q58 20 124 20z" />
    <glyph glyph-name="D" unicode="D" 
d="M268 1280h312q222 0 308 -228q12 -32 12 -68v-688q0 -166 -192 -272q-60 -24 -128 -24h-312q-8 0 -8 8v1264q1 8 8 8zM420 1120v-960h164q111 0 156 128v692q0 80 -108 132q-18 8 -52 8h-160z" />
    <glyph glyph-name="E" unicode="E" 
d="M268 1280h624q8 -1 8 -8v-144q0 -8 -8 -8h-472v-480h472q8 -1 8 -8v-144q0 -8 -8 -8h-472v-320h472q8 -1 8 -8v-144q0 -8 -8 -8h-624q-8 0 -8 8v1264q1 8 8 8z" />
    <glyph glyph-name="F" unicode="F" 
d="M268 1280h624q8 -1 8 -8v-144q0 -8 -8 -8h-472v-480h472q8 -1 8 -8v-144q0 -8 -8 -8h-472v-472q0 -8 -8 -8h-144q-8 0 -8 8v1264q1 8 8 8z" />
    <glyph glyph-name="G" unicode="G" 
d="M588 1280q231 0 308 -272v-44l-20 -4h-124q-14 12 -40 96q-59 64 -140 64q-117 0 -148 -128q-4 -22 -4 -36v-644q0 -109 128 -152h36q113 0 148 120q8 57 8 80v120h-152q-8 0 -8 8v144q1 8 8 8h304q8 -1 8 -8v-624q0 -8 -8 -8h-148q-7 0 -12 36h-4q-71 -36 -156 -36
q-228 0 -308 260q-4 15 -4 36v680q0 216 260 300q42 4 68 4z" />
    <glyph glyph-name="H" unicode="H" 
d="M268 1280h144q8 -1 8 -8v-632h320v632q1 8 8 8h144q8 -1 8 -8v-1264q0 -8 -8 -8h-144q-8 0 -8 8v472h-320v-472q0 -8 -8 -8h-144q-8 0 -8 8v1264q1 8 8 8z" />
    <glyph glyph-name="I" unicode="I" 
d="M527 1283h144q8 -1 8 -8v-1264q0 -8 -8 -8h-144q-8 0 -8 8v1264q1 8 8 8z" />
    <glyph glyph-name="J" unicode="J" 
d="M748 1280h144q8 -1 8 -8v-968q0 -216 -260 -300q-42 -4 -68 -4q-220 0 -304 256q-4 21 -4 48v8q1 8 8 8h136q11 -4 40 -96q60 -64 140 -64q103 0 140 100q12 43 12 72v940q1 8 8 8z" />
    <glyph glyph-name="K" unicode="K" 
d="M268 1280h144q8 -1 8 -8v-624h4l316 628l8 4h144q8 0 8 -12q-300 -604 -300 -612v-16q194 0 292 -240q8 -48 8 -76v-316q0 -8 -8 -8h-144q-8 0 -8 8v312q0 111 -116 156q-7 4 -16 4h-188v-472q0 -8 -8 -8h-144q-8 0 -8 8v1264q1 8 8 8z" />
    <glyph glyph-name="L" unicode="L" 
d="M268 1280h144q8 -1 8 -8v-1112h472q8 -1 8 -8v-144q0 -8 -8 -8h-624q-8 0 -8 8v1264q1 8 8 8z" />
    <glyph glyph-name="M" unicode="M" 
d="M264 1280q188 -384 304 -612q5 -20 12 -20q82 174 308 624h4q8 -1 8 -8v-1256q0 -8 -8 -8h-148q-8 0 -8 8v772h-8q-8 -8 -112 -232q-20 -38 -40 -60h-4q-31 48 -140 292h-12v-772q0 -8 -8 -8h-148q-8 0 -8 8v1264q1 8 8 8z" />
    <glyph glyph-name="N" unicode="N" 
d="M748 1280h144q8 -1 8 -8v-1260h-8l-468 828h-4v-832q0 -8 -8 -8h-144q-8 0 -8 8v1264h8q463 -819 472 -824v824q1 8 8 8z" />
    <glyph glyph-name="O" unicode="O" 
d="M584 1280q198 0 296 -420q12 -53 20 -220q0 -396 -204 -600q-59 -40 -124 -40q-197 0 -296 420q-16 96 -16 180v80q0 311 164 524q70 76 160 76zM420 672v-76q27 -436 164 -436q98 0 148 340l8 140q-25 480 -168 480q-95 0 -144 -320q-8 -41 -8 -128z" />
    <glyph glyph-name="P" unicode="P" 
d="M268 1280h312q244 0 316 -272q4 -38 4 -76v-116q0 -251 -256 -332q-44 -4 -76 -4h-148v-472q0 -8 -8 -8h-144q-8 0 -8 8v1264q1 8 8 8zM420 1120v-480h156q120 0 164 128v172q0 123 -92 164q-27 16 -48 16h-180z" />
    <glyph glyph-name="Q" unicode="Q" 
d="M588 1269q230 0 308 -264q4 -19 4 -52v-656q0 -208 -236 -296v-164q0 -8 -8 -8h-144q-8 0 -8 8v164q-124 0 -232 212q-12 71 -12 120v600q0 273 288 336h40zM420 917v-588q0 -118 84 -160v132q1 8 8 8h144q8 -1 8 -8v-124h4q72 41 72 132v640q0 111 -116 156q-7 4 -16 4
h-32q-107 0 -144 -104q-12 -50 -12 -88z" />
    <glyph glyph-name="R" unicode="R" 
d="M268 1288h252q223 0 288 -100q92 -95 92 -236v-144q0 -235 -256 -316q-56 -3 -56 -8q110 -170 312 -472v-4q0 -8 -8 -8h-144q-43 47 -184 268l-140 212h-4v-464q0 -8 -8 -8h-144q-8 0 -8 8v1264q1 8 8 8zM420 1128v-480h168q112 0 152 132v180q0 127 -132 168h-188z" />
    <glyph glyph-name="S" unicode="S" 
d="M588 1280q233 0 308 -336q4 -1 4 -40v-12q0 -8 -8 -8h-136q-13 17 -48 152q-62 84 -120 84q-102 0 -156 -140q-8 -37 -12 -100q0 -185 136 -236q221 0 308 -180q36 -61 36 -132v-28q0 -216 -260 -300q-42 -4 -68 -4q-220 0 -304 256q-4 21 -4 48v8q1 8 8 8h136
q11 -4 40 -96q60 -64 140 -64q103 0 140 100q12 43 12 72v4q0 103 -136 144q-242 0 -328 276q-12 55 -16 132q0 271 248 380q29 12 80 12z" />
    <glyph glyph-name="T" unicode="T" 
d="M268 1280h624q8 -1 8 -8v-144q0 -8 -8 -8h-228v-1112q0 -8 -8 -8h-144q-8 0 -8 8v1112h-236q-8 0 -8 8v144q1 8 8 8z" />
    <glyph glyph-name="U" unicode="U" 
d="M268 1280h144q8 -1 8 -8v-924q0 -127 92 -172q27 -16 76 -16q106 0 152 128v984q1 8 8 8h144q8 -1 8 -8v-976q0 -170 -200 -276q-60 -20 -124 -20q-209 0 -304 228q-12 64 -12 124v920q1 8 8 8z" />
    <glyph glyph-name="V" unicode="V" 
d="M260 1280h148q19 0 56 -280q64 -340 108 -656h8q112 732 156 932l8 4h148l8 -4q-188 -1020 -244 -1272l-8 -4h-136q-26 0 -100 464q-24 101 -160 812z" />
    <glyph glyph-name="W" unicode="W" 
d="M264 1280h148q8 -1 8 -8v-772h4q5 0 116 232q20 38 40 60h4q43 -73 144 -292h8v772q1 8 8 8h148q8 -1 8 -8v-1264q0 -8 -8 -8l-312 472h-8q-277 -437 -308 -472q-8 0 -8 8v1264q1 8 8 8z" />
    <glyph glyph-name="X" unicode="X" 
d="M260 1280h152q33 -37 132 -320l32 -96h8q125 375 164 416h152v-4q-204 -534 -232 -640l232 -628v-4l-8 -4h-140q-23 2 -156 380q-9 0 -12 44h-8q-104 -315 -160 -420l-8 -4h-144l-8 4q184 472 236 644z" />
    <glyph glyph-name="Y" unicode="Y" 
d="M260 1280h152q28 -34 104 -364q36 -145 60 -256h8q116 507 156 620h160v-4q-160 -536 -232 -808v-460q0 -8 -8 -8h-152q-8 0 -8 8v444q-28 136 -240 824v4z" />
    <glyph glyph-name="Z" unicode="Z" 
d="M268 1280h624q8 -1 8 -8v-168q0 -9 -112 -228q-344 -691 -348 -692q-4 0 -4 -4v-20h456q8 -1 8 -8v-144q0 -8 -8 -8h-624q-8 0 -8 8v116q39 132 228 480l252 516h-472q-8 0 -8 8v144q1 8 8 8z" />
    <glyph glyph-name="bracketleft" unicode="[" 
d="M900 1594v-194h-400v-1600h400v-200h-600v2000z" />
    <glyph glyph-name="backslash" unicode="\" 
d="M1200 -400h-190l-910 1900h200z" />
    <glyph glyph-name="bracketright" unicode="]" 
d="M300 1594l600 6v-2000h-600v200h400v1600h-400v194z" />
    <glyph glyph-name="asciicircum" unicode="^" 
d="M800 800l-200 400l-200 -400h-200l400 600l400 -600h-200z" />
    <glyph glyph-name="underscore" unicode="_" 
d="M0 -348v148h1234v-148h-1234z" />
    <glyph glyph-name="grave" unicode="`" 
d="M900 1400h-100l-400 200h200z" />
    <glyph glyph-name="a" unicode="a" 
d="M268 800h312q241 0 316 -264q4 -31 4 -68v-460q0 -8 -8 -8h-144q-8 0 -8 32q-74 -32 -160 -32q-138 0 -272 104q-48 65 -48 144q0 152 208 212q75 20 124 20q67 0 148 -32v28q0 121 -128 164h-344q-8 0 -8 8v144q1 8 8 8zM400 223q31 -96 77 -96q41 -27 106 -27
q157 18 157 143v7q-34 109 -115 109q0 12 -68 14q-157 -20 -157 -143v-7z" />
    <glyph glyph-name="b" unicode="b" 
d="M268 1280h144q8 -1 8 -8v-524q78 52 176 52q225 0 304 -344v-88q0 -248 -252 -360q-40 -8 -72 -8q-72 0 -156 52v-44q0 -8 -8 -8h-144q-8 0 -8 8v1264q1 8 8 8zM420 400q0 -184 132 -232q21 -8 32 -8q156 39 156 216v48q0 180 -160 216q-160 -36 -160 -240z" />
    <glyph glyph-name="c" unicode="c" 
d="M592 800q224 0 308 -316l-8 -4h-140q-12 7 -64 112q-55 48 -96 48q-86 0 -148 -116q-16 -63 -16 -104v-40q0 -184 160 -220h8q88 0 144 156l8 4h144q8 -1 8 -8q-24 -132 -124 -240q-86 -72 -200 -72h-4q-210 0 -296 312q-8 21 -8 84v32q0 253 252 364q40 8 72 8z" />
    <glyph glyph-name="d" unicode="d" 
d="M748 1280h144q8 -1 8 -8v-1264q0 -8 -8 -8h-144q-8 0 -8 8v44q-80 -52 -172 -52q-221 0 -304 324q-4 25 -4 56v52q0 244 248 360q48 8 76 8q72 0 156 -52v524q1 8 8 8zM420 424v-48q0 -180 160 -216q160 36 160 240q0 184 -132 232q-25 8 -32 8q-52 0 -120 -76
q-36 -65 -36 -140z" />
    <glyph glyph-name="e" unicode="e" 
d="M624 800q236 0 312 -340q4 -46 4 -88q-4 -52 -20 -52h-448q38 -160 148 -160h240q8 -1 8 -8q-95 -152 -256 -152h-8q-210 0 -296 312q-8 21 -8 84v32q0 253 252 364q40 8 72 8zM466 439h298v5q-34 196 -155 196q-102 0 -143 -201z" />
    <glyph glyph-name="f" unicode="f" 
d="M708 1280h180q6 0 12 -12v-152q0 -8 -8 -8q-49 12 -84 12q-101 0 -136 -112q-12 -40 -12 -92v-276h232q8 -1 8 -8v-144q0 -8 -8 -8h-232v-472q0 -8 -8 -8h-144q-8 0 -8 8v472h-232q-8 0 -8 8v144q1 8 8 8h232v440q0 138 108 184q52 16 100 16z" />
    <glyph glyph-name="g" unicode="g" 
d="M588 800q74 0 144 -44h8v36q1 8 8 8h144q8 -1 8 -8v-856q0 -213 -296 -256h-32q-226 0 -308 196q-4 22 -4 36v4q1 8 8 8h132q60 -84 180 -84h8q128 0 152 80v132q-79 -52 -168 -52q-211 0 -304 296q-8 43 -8 92v32q0 267 244 372q40 8 84 8zM420 420v-40q0 -184 160 -220
q68 0 132 96q28 59 28 148q0 168 -116 224q-39 12 -48 12q-156 -39 -156 -220z" />
    <glyph glyph-name="h" unicode="h" 
d="M268 1280h144q8 -1 8 -8v-520h4q76 48 164 48q227 0 308 -332q4 -44 4 -80v-380q0 -8 -8 -8h-144q-8 0 -8 8v400q0 198 -160 232q-160 -34 -160 -232v-400q0 -8 -8 -8h-144q-8 0 -8 8v1264q1 8 8 8z" />
    <glyph glyph-name="i" unicode="i" 
d="M612 1280h4q84 -16 84 -76q-15 -84 -76 -84q-84 15 -84 64v24q17 72 72 72zM548 800h144q8 -1 8 -8v-784q0 -8 -8 -8h-144q-8 0 -8 8v784q1 8 8 8z" />
    <glyph glyph-name="j" unicode="j" 
d="M712 1268h4q84 -16 84 -76q-17 -84 -76 -84q-84 15 -84 64v24q17 72 72 72zM648 788h144q8 -1 8 -8v-980q0 -91 -88 -116q-53 -16 -88 -16h-136q-8 0 -8 8v144q1 8 8 8h152v952q1 8 8 8z" />
    <glyph glyph-name="k" unicode="k" 
d="M260 1280h144q8 -1 8 -8v-792l324 320h164v-4l-316 -320q149 0 260 -104q48 -56 48 -140v-224q0 -8 -8 -8h-144q-8 0 -8 8v220q0 92 -160 92h-160v-312q0 -8 -8 -8h-144q-8 0 -8 8v1264q1 8 8 8z" />
    <glyph glyph-name="l" unicode="l" 
d="M488 1280h304q8 -1 8 -8v-1264q0 -8 -8 -8h-144q-8 0 -8 8v1112h-152q-8 0 -8 8v144q1 8 8 8z" />
    <glyph glyph-name="m" unicode="m" 
d="M264 800q290 -362 320 -388q133 181 312 388l4 -8v-784q0 -8 -8 -8h-148q-8 0 -8 8v456q-72 -91 -152 -220h-12l-148 224h-4v-460q0 -8 -8 -8h-148q-8 0 -8 8v784q1 8 8 8z" />
    <glyph glyph-name="n" unicode="n" 
d="M252 800h4l476 -472v464q1 8 8 8h152q8 -1 8 -8v-788h-4l-476 472v-468q0 -8 -8 -8h-152q-8 0 -8 8v792z" />
    <glyph glyph-name="o" unicode="o" 
d="M592 800q223 0 304 -332q4 -45 4 -84q0 -269 -256 -376q-32 -8 -68 -8q-236 0 -312 336q-4 29 -4 76q0 276 256 380q32 8 76 8zM420 408v-16q0 -198 160 -232q160 34 160 232v16q0 198 -160 232q-160 -34 -160 -232z" />
    <glyph glyph-name="p" unicode="p" 
d="M268 800h144q8 -1 8 -8v-44q69 52 172 52q215 0 300 -320l8 -92q0 -269 -256 -380q-38 -8 -60 -8h-4q-81 0 -156 48h-4v-360q0 -8 -8 -8h-144q-8 0 -8 8v1104q1 8 8 8zM420 424v-48q0 -180 160 -216q160 36 160 240q0 184 -132 232q-25 8 -32 8q-52 0 -120 -76
q-36 -65 -36 -140z" />
    <glyph glyph-name="q" unicode="q" 
d="M892 800q7 0 8 -8v-1104q0 -8 -8 -8h-144q-8 0 -8 8v360h-4q-75 -48 -156 -48h-4q-22 0 -60 8q-256 111 -256 380l8 92q85 320 300 320q103 0 172 -52v44q0 7 8 8h144zM740 424q0 75 -36 140q-68 76 -120 76q-6 0 -32 -8q-132 -48 -132 -232q0 -204 160 -240
q160 36 160 216v48z" />
    <glyph glyph-name="r" unicode="r" 
d="M268 800h148q8 -1 8 -8v-40h4q17 39 160 48q228 0 308 -260q4 -25 4 -56l-8 -4h-140q-6 1 -36 92q-56 68 -140 68q-156 0 -156 -204v-428q0 -8 -8 -8h-144q-8 0 -8 8v784q1 8 8 8z" />
    <glyph glyph-name="s" unicode="s" 
d="M584 800q218 0 308 -180q8 -38 8 -60l-8 -4l-128 2q-11 42 -14 60q-50 56 -170 60q-160 -13 -160 -122q0 -66 180 -98q238 -16 292 -158q8 -38 8 -60q0 -168 -236 -232q-34 -8 -88 -8q-193 0 -292 148q-24 41 -24 84l8 4h144q35 -120 170 -122q165 -14 158 114v16
q42 76 -196 126q-212 42 -274 150q-10 18 -10 40q0 168 236 232q34 8 88 8z" />
    <glyph glyph-name="t" unicode="t" 
d="M428 1280h144q8 -1 8 -8v-472h312q8 -1 8 -8v-144q0 -8 -8 -8h-312v-384q0 -82 68 -96h20q36 0 88 76h136q8 0 8 -12q-6 -85 -92 -180q-67 -44 -144 -44q-96 0 -200 92q-44 64 -44 156v392h-152q-8 0 -8 8v144q1 8 8 8h152v472q1 8 8 8z" />
    <glyph glyph-name="u" unicode="u" 
d="M268 800h144q8 -1 8 -8v-444q0 -127 92 -172q27 -16 76 -16q106 0 152 128v504q1 8 8 8h144q8 -1 8 -8v-496q0 -170 -200 -276q-60 -20 -124 -20q-209 0 -304 228q-12 64 -12 124v440q1 8 8 8z" />
    <glyph glyph-name="v" unicode="v" 
d="M264 800h148q23 -26 64 -228q20 -42 100 -400h4q120 525 160 628h152l8 -4l-236 -788q-10 -8 -12 -8h-140q-32 28 -116 348q-16 35 -140 448z" />
    <glyph glyph-name="w" unicode="w" 
d="M264 800h148q8 -1 8 -8v-376h4q148 216 152 216h8l148 -216h4v376q1 8 8 8h148q8 -1 8 -8v-784q0 -8 -8 -8l-312 472h-8q-277 -437 -308 -472q-8 0 -8 8v784q1 8 8 8z" />
    <glyph glyph-name="x" unicode="x" 
d="M280 800h140q9 -5 168 -252h4q102 187 152 252h152q0 -29 -224 -388v-8q0 -8 180 -308q48 -81 48 -92l-8 -4h-140q-20 20 -168 260h-4q-116 -207 -160 -260h-144l-8 4q60 115 232 400v4q-228 368 -228 388z" />
    <glyph glyph-name="y" unicode="y" 
d="M268 800h144q8 -1 8 -8v-468q0 -121 128 -164h36q106 0 140 96q16 47 16 84v452q1 8 8 8h144q8 -1 8 -8v-864q0 -160 -180 -220q-63 -20 -136 -28l-4 8v136q0 12 128 44q32 32 32 52v120h-4q-74 -40 -156 -40q-238 0 -316 264q-4 31 -4 68v460q1 8 8 8z" />
    <glyph glyph-name="z" unicode="z" 
d="M268 800h624q8 -1 8 -8v-156l-472 -476h464q8 -1 8 -8v-144q0 -8 -8 -8h-624q-8 0 -8 8v144q482 485 484 488h-476q-8 0 -8 8v144q1 8 8 8z" />
    <glyph glyph-name="braceleft" unicode="{" 
d="M300 400v400h200v600q0 82 59 141t141 59h200v-200h-200v-600q0 -82 -100 -140q-50 -30 -50 -59q0 -30 75 -74.5t75 -126.5v-600h200v-200h-200q-82 0 -141 59t-59 141v600h-200z" />
    <glyph glyph-name="bar" unicode="|" 
d="M727 -400h-200v2000h200v-2000z" />
    <glyph glyph-name="braceright" unicode="}" 
d="M900 400h-200v-600q0 -82 -59 -141t-141 -59h-200v200h200v600q0 82 75 126.5t75 74.5q0 29 -50 59q-100 58 -100 140v600h-200v200h200q82 0 141 -59t59 -141v-600h200v-400z" />
    <glyph glyph-name="asciitilde" unicode="~" 
d="M553 830v-6l186 -127q24 -26 60 -26t62 26q22 22 24 56h171q-2 -104 -75 -178q-76 -75 -182 -75q-49 0 -92 15v2l-187 129l-2 1q-25 24 -61 24t-60 -24q-22 -22 -26 -51h-171q3 99 75 171q76 75 182 75q51 0 94 -17q0 2 2 5z" />
    <glyph glyph-name="uni00A0" unicode="&#xa0;" 
 />
    <glyph glyph-name="exclamdown" unicode="&#xa1;" 
d="M606 1100q39 0 66.5 -27t27.5 -67q0 -39 -27.5 -66t-66.5 -27q-40 0 -67 27t-27 66q0 40 27 67t67 27zM606 538l94 -938h-188z" />
    <glyph glyph-name="cent" unicode="&#xa2;" 
d="M928 1271l8 -4q-152 -499 -156 -524q99 -67 156 -264l-12 -8h-136q-9 1 -56 100q-8 0 -52 -164q-72 -217 -72 -252q7 -4 20 -4q94 0 148 156l8 4h140l12 -8q-24 -132 -124 -240q-86 -72 -200 -72q-10 0 -60 4q-89 -317 -100 -324h-152v4q0 8 120 408q-116 136 -116 304
v32q0 235 224 352q28 16 108 24q136 472 144 476h148zM464 411v-32q0 -40 12 -100h4l100 336h-8q-108 -58 -108 -204z" />
    <glyph glyph-name="sterling" unicode="&#xa3;" 
d="M928 1280q6 0 12 -12v-136q0 -6 -12 -12h-308v-480h148q6 0 12 -12v-136q0 -6 -12 -12h-148v-320h4q101 -6 208 -1q95 17 143 158l2 2h23l100 -1q0 -318 -374 -323q-64 5 -114 5h-304q-8 0 -8 8v144q1 8 8 8h152v320h-152q-8 0 -8 8v144q1 8 8 8h152v508q15 132 112 132
h356z" />
    <glyph glyph-name="currency" unicode="&#xa4;" 
d="M608 804q112 0 236 -76q8 14 68 64q5 0 80 -80v-4l-64 -68q76 -118 76 -248q0 -105 -76 -232q5 0 64 -64q-67 -77 -80 -84l-68 64h-8q-106 -76 -232 -76h-24q-113 0 -220 80q0 -5 -68 -68q-5 0 -80 80v4q0 5 64 64q-76 105 -76 228v28q0 121 76 228q-5 0 -64 64v4
q0 5 80 80l68 -64h4q105 76 244 76zM300 411v-30q0 -189 211 -271q37 -10 70 -10h30q190 0 271 221q10 22 10 65v20q0 203 -236 281q-3 0 -65 5q-196 0 -281 -211q-10 -37 -10 -70z" />
    <glyph glyph-name="yen" unicode="&#xa5;" 
d="M935 298q26 -24 0 2v-2zM940 606q3 8 0 26v-26zM935 298l5 -130q0 -8 -8 -8h-224v-152q0 -8 -8 -8h-148q-8 0 -8 8v152h-236q-8 0 -8 8v132h244v160l-4 20h-232q-8 0 -8 8v112h200l-200 680q13 8 24 8h128q35 -54 104 -364q8 -20 64 -264h8q108 489 160 628h136l20 -4v-4
q-152 -518 -206 -680h194q6 0 8 6v-118q0 -8 -8 -8h-220l-4 -28l-8 -154l233 2z" />
    <glyph glyph-name="brokenbar" unicode="&#xa6;" 
d="M700 800h-200v800h200v-800zM700 -300h-200v800h200v-800z" />
    <glyph glyph-name="section" unicode="&#xa7;" 
d="M620 1280h8q228 0 308 -232q4 -22 4 -36q-13 -8 -24 -8h-132q-62 116 -152 116h-4q-148 -16 -148 -112v-12q0 -74 100 -108q248 0 328 -172q32 -37 32 -124q0 -82 -88 -184q88 -65 88 -168v-4q0 -164 -252 -232q-44 -4 -80 -4q-232 0 -304 208q-4 16 -4 28q13 8 24 8h136
q62 -84 156 -84h8q113 0 140 68q0 3 4 24q0 69 -196 80h-28q-244 78 -244 272v8q0 96 96 196q-96 77 -96 184v20q0 186 256 264q41 4 64 4zM480 600v-4q33 -104 100 -104q0 -4 24 -4h28q136 15 136 124q-17 67 -72 100q-40 12 -76 12q-97 0 -136 -88q-4 -22 -4 -36z" />
    <glyph glyph-name="dieresis" unicode="&#xa8;" 
d="M400 1400q-41 0 -70.5 29.5t-29.5 70.5t29.5 70.5t70.5 29.5t70.5 -29.5t29.5 -70.5t-29.5 -70.5t-70.5 -29.5zM800 1400q-41 0 -70.5 29.5t-29.5 70.5t29.5 70.5t70.5 29.5t70.5 -29.5t29.5 -70.5t-29.5 -70.5t-70.5 -29.5z" />
    <glyph glyph-name="copyright" unicode="&#xa9;" 
d="M629 1600q375 0 542 -544q29 -138 29 -256q0 -526 -389 -760q-98 -40 -182 -40q-376 0 -543 544q-29 140 -29 256q0 526 389 760q100 40 183 40zM200 800q0 -396 291 -568q65 -32 138 -32q282 0 405 408q23 90 23 192q0 396 -291 568q-65 32 -137 32q-283 0 -406 -408
q-23 -90 -23 -192zM746 686h157q-19 -94 -72 -168q-84 -118 -202 -118q-119 0 -202.5 117t-83.5 283t83.5 283t202.5 117q118 0 202 -116q58 -82 75 -184h-153q-10 22 -23 42q-43 58 -101 58q-59 0 -101 -59t-42 -141t42 -141t101 -59q58 0 101 60q9 12 16 26z" />
    <glyph glyph-name="ordfeminine" unicode="&#xaa;" 
d="M405 1300h195q150 0 198 -165q2 -19 2 -42v-288q0 -5 -5 -5h-90q-5 0 -5 20q-46 -20 -100 -20q-86 0 -170 65q-30 40 -30 90q0 95 130 133q47 12 78 12q41 0 92 -20v18q0 75 -80 102h-215q-5 0 -5 5v90q1 5 5 5zM500 945q18 -35 45 -35q24 -10 63 -10q92 7 92 53v2
q-20 40 -67 40q0 4 -40 5q-93 -7 -93 -52v-3z" />
    <glyph glyph-name="guillemotleft" unicode="&#xab;" 
d="M560 993l96 -82l-315 -374l313 -371l-91 -80l-446 451zM998 993l96 -82l-315 -374l313 -371l-91 -80l-446 451z" />
    <glyph glyph-name="logicalnot" unicode="&#xac;" 
d="M86 642v148h1061v-494h-148v346h-913z" />
    <glyph glyph-name="uni00AD" unicode="&#xad;" 
d="M210 543v148h814v-148h-814z" />
    <glyph glyph-name="registered" unicode="&#xae;" 
d="M150 800q0 -396 306 -568q68 -32 144 -32q297 0 426 408q24 90 24 192q0 396 -306 568q-67 32 -144 32q-297 0 -426 -408q-24 -90 -24 -192zM600 1600q395 0 570 -544q30 -138 30 -256q0 -526 -408 -760q-103 -40 -192 -40q-394 0 -570 544q-30 140 -30 256
q0 526 408 760q105 40 192 40zM581 1088h-29q14 2 29 4v-4zM591 1092h-141v-158h131v-2q69 0 119 23t50 57t-49 58q-47 20 -110 22zM450 800v-400h-150v800h300q125 0 212.5 -59t87.5 -141t-87.5 -141t-212.5 -59h-1l301 -400h-150z" />
    <glyph glyph-name="macron" unicode="&#xaf;" 
d="M0 1468v148h1234v-148h-1234z" />
    <glyph glyph-name="degree" unicode="&#xb0;" 
d="M614 1073q-93 0 -157.5 65t-64.5 158t64.5 157t157.5 64t157.5 -64.5t64.5 -156.5q0 -93 -64.5 -158t-157.5 -65zM614 1172q50 0 86.5 37t36.5 86q0 50 -36.5 87t-86.5 37q-49 0 -86 -37t-37 -87q0 -49 37 -86t86 -37z" />
    <glyph glyph-name="plusminus" unicode="&#xb1;" 
d="M750 750v-450h-200v450h-450v200h450v450h200v-450h450v-200h-450zM1200 0h-1100v200h1100v-200z" />
    <glyph glyph-name="uni00B2" unicode="&#xb2;" 
d="M605 1600q143 0 193 -167q2 -18 2 -30q-24 -54 -222 -385q-58 -88 -70 -118h287q5 -1 5 -5v-90q0 -5 -5 -5h-390q-5 0 -5 5v80q26 63 238 410q62 95 62 115q0 74 -102 90q-48 0 -85 -47q-10 -16 -15 -53h-93q-5 0 -5 5v8q0 120 150 182q37 5 55 5z" />
    <glyph glyph-name="uni00B3" unicode="&#xb3;" 
d="M405 1600h390q5 -1 5 -5v-100q0 -10 -110 -222q110 -77 110 -230q0 -171 -160 -238q-20 -5 -50 -5q-135 0 -187 205q-3 22 -3 38v5q1 5 5 5h85q7 0 25 -90q41 -63 83 -63q53 0 92 75q8 29 10 70q-11 129 -75 153q-25 5 -45 5h-27v2l147 295h-295q-5 0 -5 5v90q1 5 5 5z
" />
    <glyph glyph-name="acute" unicode="&#xb4;" 
d="M400 1400l300 200h200l-400 -200h-100z" />
    <glyph glyph-name="mu" unicode="&#xb5;" 
d="M263 291q-3 31 -3 61v440q1 4 3 6v2h149q8 -1 8 -8v-444q0 -127 92 -172q27 -16 76 -16q106 0 152 128v504q1 8 8 8h144q8 -1 8 -8v-496q0 -170 -200 -276q-60 -20 -124 -20q-101 0 -176 54v-454h-137v691z" />
    <glyph glyph-name="paragraph" unicode="&#xb6;" 
d="M504 1280h384q6 0 12 -12v-1256q0 -6 -12 -12h-140q-8 0 -8 8v1112h-76v-1108q0 -6 -12 -12h-140q-8 0 -8 8v876h-12q-159 0 -216 132q-16 37 -16 68v4q0 56 64 132q63 60 180 60z" />
    <glyph glyph-name="periodcentered" unicode="&#xb7;" 
d="M600 400q-83 0 -141.5 58.5t-58.5 141.5t58.5 141.5t141.5 58.5t141.5 -58.5t58.5 -141.5t-58.5 -141.5t-141.5 -58.5z" />
    <glyph glyph-name="cedilla" unicode="&#xb8;" 
d="M656 92q38 0 48 -52q0 -14 -56 -104q0 -4 4 -4q75 -27 120 -92q19 0 28 -120v-44q0 -57 -80 -76h-52q-15 -12 -36 -12q-244 47 -244 132q10 48 56 48q21 0 52 -36q49 -20 124 -40q30 8 56 8h24v8q-5 96 -40 96q0 20 -40 28h-40q-56 6 -56 52q12 33 24 92q73 116 100 116
h8z" />
    <glyph glyph-name="uni00B9" unicode="&#xb9;" 
d="M558 1600h90q5 -1 5 -5v-790q0 -5 -5 -5h-90q-5 0 -5 5v688q-123 -117 -150 -140l-3 5v80q0 14 65 72q33 37 93 90z" />
    <glyph glyph-name="ordmasculine" unicode="&#xba;" 
d="M600 800q-124 0 -212 88t-88 212t88 212t212 88t212 -88t88 -212t-88 -212t-212 -88zM600 900q83 0 141.5 58.5t58.5 141.5t-58.5 141.5t-141.5 58.5t-141.5 -58.5t-58.5 -141.5t58.5 -141.5t141.5 -58.5z" />
    <glyph glyph-name="guillemotright" unicode="&#xbb;" 
d="M236 86l-96 82l315 375l-313 371l91 79l446 -450zM674 86l-96 82l315 375l-313 371l91 79l446 -450z" />
    <glyph glyph-name="onequarter" unicode="&#xbc;" 
d="M182 1500h105q9 -2 9 -9v-941q0 -9 -9 -9h-100q-10 0 -10 9v819l-178 -166h-4v109q0 8 187 188zM1182 1500l-950 -1900h-237l950 1900h237zM952 536h109l9 -5q-225 -439 -230 -463h109v107q0 9 7 9h100q10 0 10 -9v-107h107q9 0 9 -10v-97q0 -9 -9 -9h-107v-342
q0 -10 -10 -10h-100q-7 0 -7 10v342h-225q-10 0 -10 9v97q0 10 221 449q12 29 17 29z" />
    <glyph glyph-name="onehalf" unicode="&#xbd;" 
d="M188 1500h104q10 -2 10 -9v-941q0 -9 -10 -9h-100q-9 0 -9 9v819l-178 -166h-5v109q0 8 188 188zM1188 1500l-950 -1900h-238l950 1900h238zM957 522q164 0 226 -181q5 -31 5 -50q0 -14 -290 -494q-48 -73 -48 -81h328q10 -2 10 -9v-97q0 -10 -10 -10h-442q-9 0 -9 10v92
q0 17 323 549q24 33 24 50q0 85 -117 107h-5q-109 -22 -109 -112l-9 -5h-98q-9 0 -9 14q0 133 161 207q43 10 69 10z" />
    <glyph glyph-name="threequarters" unicode="&#xbe;" 
d="M1197 1500l-950 -1900h-237l950 1900h237zM967 536h109l9 -5q-225 -439 -230 -463h109v107q0 9 7 9h100q10 0 10 -9v-107h107q9 0 9 -10v-97q0 -9 -9 -9h-107v-342q0 -10 -10 -10h-100q-7 0 -7 10v342h-225q-10 0 -10 9v97q0 10 221 449q12 29 17 29zM10 1500h460
q10 -2 10 -9v-95q0 -12 5 -22l-136 -268q131 -93 131 -273q0 -186 -159 -273q-34 -19 -86 -19q-168 0 -230 239q-5 34 -5 57l10 5h99q10 0 26 -95q46 -85 105 -85q121 23 121 175v5q-21 178 -116 178l-5 10v111q9 12 121 240h-351q-10 0 -10 10v100q2 9 10 9z" />
    <glyph glyph-name="questiondown" unicode="&#xbf;" 
d="M631 1100q39 0 66 -27t27 -67q0 -39 -27 -66t-66 -27q-40 0 -67 27t-27 66q0 40 27 67t67 27zM625 350q-77 0 -132 -82.5t-55 -198.5t55 -198.5t132 -82.5t131 82q55 81 57 193h187q-2 -191 -111 -326q-108 -137 -264 -137t-265.5 137t-109.5 332t109 332q77 93 172 123
v201h188v-375h-94z" />
    <glyph glyph-name="Agrave" unicode="&#xc0;" 
d="M588 1280q200 0 296 -212q16 -49 16 -84v-976q0 -8 -8 -8h-144q-8 0 -8 8v472h-320v-472q0 -8 -8 -8h-144q-8 0 -8 8v920q0 250 216 336q52 16 112 16zM420 932v-292h320v340q0 80 -108 132q-28 8 -48 8q-114 0 -160 -124q-4 -41 -4 -64zM794 1400h-100l-400 200h200z
" />
    <glyph glyph-name="Aacute" unicode="&#xc1;" 
d="M588 1280q200 0 296 -212q16 -49 16 -84v-976q0 -8 -8 -8h-144q-8 0 -8 8v472h-320v-472q0 -8 -8 -8h-144q-8 0 -8 8v920q0 250 216 336q52 16 112 16zM420 932v-292h320v340q0 80 -108 132q-28 8 -48 8q-114 0 -160 -124q-4 -41 -4 -64zM467 1400l300 200h200l-400 -200
h-100z" />
    <glyph glyph-name="Acircumflex" unicode="&#xc2;" 
d="M588 1280q200 0 296 -212q16 -49 16 -84v-976q0 -8 -8 -8h-144q-8 0 -8 8v472h-320v-472q0 -8 -8 -8h-144q-8 0 -8 8v920q0 250 216 336q52 16 112 16zM420 932v-292h320v340q0 80 -108 132q-28 8 -48 8q-114 0 -160 -124q-4 -41 -4 -64zM500 1600h200l200 -200h-100
l-200 133l-200 -133h-100z" />
    <glyph glyph-name="Atilde" unicode="&#xc3;" 
d="M588 1280q200 0 296 -212q16 -49 16 -84v-976q0 -8 -8 -8h-144q-8 0 -8 8v472h-320v-472q0 -8 -8 -8h-144q-8 0 -8 8v920q0 250 216 336q52 16 112 16zM420 932v-292h320v340q0 80 -108 132q-28 8 -48 8q-114 0 -160 -124q-4 -41 -4 -64zM547 1592v-5l131 -89
q17 -18 42 -18t43 18q16 16 17 40h120q-1 -73 -53 -125q-53 -53 -127 -53q-35 0 -65 11v1l-131 90l-1 2q-18 16 -43 16t-42 -16q-16 -16 -18 -36h-120q2 69 53 120q53 52 127 52q36 0 66 -12q0 2 1 4z" />
    <glyph glyph-name="Adieresis" unicode="&#xc4;" 
d="M588 1280q200 0 296 -212q16 -49 16 -84v-976q0 -8 -8 -8h-144q-8 0 -8 8v472h-320v-472q0 -8 -8 -8h-144q-8 0 -8 8v920q0 250 216 336q52 16 112 16zM420 932v-292h320v340q0 80 -108 132q-28 8 -48 8q-114 0 -160 -124q-4 -41 -4 -64zM400 1400q-41 0 -70.5 29.5
t-29.5 70.5t29.5 70.5t70.5 29.5t70.5 -29.5t29.5 -70.5t-29.5 -70.5t-70.5 -29.5zM800 1400q-41 0 -70.5 29.5t-29.5 70.5t29.5 70.5t70.5 29.5t70.5 -29.5t29.5 -70.5t-29.5 -70.5t-70.5 -29.5z" />
    <glyph glyph-name="Aring" unicode="&#xc5;" 
d="M420 932v-292h320v340q0 80 -108 132q-28 8 -48 8q-114 0 -160 -124q-4 -41 -4 -64zM584 1300q48 0 82 35.5t34 85.5t-34 85t-82 35q-49 0 -83 -35t-34 -85t34 -85.5t83 -35.5zM661 1272q146 -33 223 -204q16 -49 16 -84v-976q0 -8 -8 -8h-144q-8 0 -8 8v472h-320v-472
q0 -8 -8 -8h-144q-8 0 -8 8v920q0 250 216 336l22 6q-25 12 -46 33q-52 51 -52 123t52 123t125 51q74 0 126 -51t52 -123t-52 -123q-19 -19 -42 -31z" />
    <glyph glyph-name="AE" unicode="&#xc6;" 
d="M324 1280h788q8 -1 8 -8v-144q0 -8 -8 -8h-472v-480h472q8 -1 8 -8v-144q0 -8 -8 -8h-472v-320h472q8 -1 8 -8v-144q0 -8 -8 -8h-624q-8 0 -8 8v472h-320v-472q0 -8 -8 -8h-144q-8 0 -8 8v944q0 227 228 316q46 12 96 12zM160 952v-312h320v480h-156q-125 0 -160 -132
q-4 -15 -4 -36z" />
    <glyph glyph-name="Ccedilla" unicode="&#xc7;" 
d="M584 1280q205 0 300 -220q12 -45 16 -96l-8 -4h-144q-9 0 -24 72q-56 88 -152 88q-106 0 -152 -128v-692q0 -80 108 -132q28 -8 48 -8q115 0 160 124q0 36 12 36h144l8 -4q0 -200 -216 -300q-52 -16 -112 -16q-200 0 -296 212q-16 47 -16 84v688q0 170 200 276
q58 20 124 20zM622 104q38 0 48 -52q0 -14 -56 -104q0 -4 4 -4q75 -27 120 -92q19 0 28 -120v-44q0 -57 -80 -76h-52q-15 -12 -36 -12q-244 47 -244 132q10 48 56 48q21 0 52 -36q49 -20 124 -40q30 8 56 8h24v8q-5 96 -40 96q0 20 -40 28h-40q-56 6 -56 52q12 33 24 92
q73 116 100 116h8z" />
    <glyph glyph-name="Egrave" unicode="&#xc8;" 
d="M268 1280h624q8 -1 8 -8v-144q0 -8 -8 -8h-472v-480h472q8 -1 8 -8v-144q0 -8 -8 -8h-472v-320h472q8 -1 8 -8v-144q0 -8 -8 -8h-624q-8 0 -8 8v1264q1 8 8 8zM800 1400h-100l-400 200h200z" />
    <glyph glyph-name="Eacute" unicode="&#xc9;" 
d="M268 1280h624q8 -1 8 -8v-144q0 -8 -8 -8h-472v-480h472q8 -1 8 -8v-144q0 -8 -8 -8h-472v-320h472q8 -1 8 -8v-144q0 -8 -8 -8h-624q-8 0 -8 8v1264q1 8 8 8zM542 1400l300 200h200l-400 -200h-100z" />
    <glyph glyph-name="Ecircumflex" unicode="&#xca;" 
d="M268 1280h624q8 -1 8 -8v-144q0 -8 -8 -8h-472v-480h472q8 -1 8 -8v-144q0 -8 -8 -8h-472v-320h472q8 -1 8 -8v-144q0 -8 -8 -8h-624q-8 0 -8 8v1264q1 8 8 8zM500 1600h200l200 -200h-100l-200 133l-200 -133h-100z" />
    <glyph glyph-name="Edieresis" unicode="&#xcb;" 
d="M268 1280h624q8 -1 8 -8v-144q0 -8 -8 -8h-472v-480h472q8 -1 8 -8v-144q0 -8 -8 -8h-472v-320h472q8 -1 8 -8v-144q0 -8 -8 -8h-624q-8 0 -8 8v1264q1 8 8 8zM400 1400q-41 0 -70.5 29.5t-29.5 70.5t29.5 70.5t70.5 29.5t70.5 -29.5t29.5 -70.5t-29.5 -70.5t-70.5 -29.5
zM800 1400q-41 0 -70.5 29.5t-29.5 70.5t29.5 70.5t70.5 29.5t70.5 -29.5t29.5 -70.5t-29.5 -70.5t-70.5 -29.5z" />
    <glyph glyph-name="Igrave" unicode="&#xcc;" 
d="M527 1283h144q8 -1 8 -8v-1264q0 -8 -8 -8h-144q-8 0 -8 8v1264q1 8 8 8zM814 1400h-100l-400 200h200z" />
    <glyph glyph-name="Iacute" unicode="&#xcd;" 
d="M527 1283h144q8 -1 8 -8v-1264q0 -8 -8 -8h-144q-8 0 -8 8v1264q1 8 8 8zM487 1400l300 200h200l-400 -200h-100z" />
    <glyph glyph-name="Icircumflex" unicode="&#xce;" 
d="M527 1283h144q8 -1 8 -8v-1264q0 -8 -8 -8h-144q-8 0 -8 8v1264q1 8 8 8zM500 1600h200l200 -200h-100l-200 133l-200 -133h-100z" />
    <glyph glyph-name="Idieresis" unicode="&#xcf;" 
d="M527 1283h144q8 -1 8 -8v-1264q0 -8 -8 -8h-144q-8 0 -8 8v1264q1 8 8 8zM400 1400q-41 0 -70.5 29.5t-29.5 70.5t29.5 70.5t70.5 29.5t70.5 -29.5t29.5 -70.5t-29.5 -70.5t-70.5 -29.5zM800 1400q-41 0 -70.5 29.5t-29.5 70.5t29.5 70.5t70.5 29.5t70.5 -29.5
t29.5 -70.5t-29.5 -70.5t-70.5 -29.5z" />
    <glyph glyph-name="Eth" unicode="&#xd0;" 
d="M268 1280h312q222 0 308 -228q12 -32 12 -68v-688q0 -166 -192 -272q-61 -24 -128 -24h-312q-8 0 -8 8v472h-72q-8 0 -8 8v144q1 8 8 8h72v632q1 8 8 8zM420 1120v-480h72q8 -1 8 -8v-144q0 -8 -8 -8h-72v-320h160q113 0 160 124v696q0 80 -108 132q-28 8 -48 8h-164z
" />
    <glyph glyph-name="Ntilde" unicode="&#xd1;" 
d="M748 1280h144q8 -1 8 -8v-1260h-8l-468 828h-4v-832q0 -8 -8 -8h-144q-8 0 -8 8v1264h8q463 -819 472 -824v824q1 8 8 8zM547 1592v-5l131 -89q17 -18 42 -18t43 18q16 16 17 40h120q-1 -73 -53 -125q-53 -53 -127 -53q-35 0 -65 11v1l-131 90l-1 2q-18 16 -43 16
t-42 -16q-16 -16 -18 -36h-120q2 69 53 120q53 52 127 52q36 0 66 -12q0 2 1 4z" />
    <glyph glyph-name="Ograve" unicode="&#xd2;" 
d="M584 1280q198 0 296 -420q12 -53 20 -220q0 -396 -204 -600q-59 -40 -124 -40q-197 0 -296 420q-16 96 -16 180v80q0 311 164 524q70 76 160 76zM420 672v-76q27 -436 164 -436q98 0 148 340l8 140q-25 480 -168 480q-95 0 -144 -320q-8 -41 -8 -128zM814 1400h-100
l-400 200h200z" />
    <glyph glyph-name="Oacute" unicode="&#xd3;" 
d="M584 1280q198 0 296 -420q12 -53 20 -220q0 -396 -204 -600q-59 -40 -124 -40q-197 0 -296 420q-16 96 -16 180v80q0 311 164 524q70 76 160 76zM420 672v-76q27 -436 164 -436q98 0 148 340l8 140q-25 480 -168 480q-95 0 -144 -320q-8 -41 -8 -128zM487 1400l300 200
h200l-400 -200h-100z" />
    <glyph glyph-name="Ocircumflex" unicode="&#xd4;" 
d="M584 1280q198 0 296 -420q12 -53 20 -220q0 -396 -204 -600q-59 -40 -124 -40q-197 0 -296 420q-16 96 -16 180v80q0 311 164 524q70 76 160 76zM420 672v-76q27 -436 164 -436q98 0 148 340l8 140q-25 480 -168 480q-95 0 -144 -320q-8 -41 -8 -128zM500 1600h200
l200 -200h-100l-200 133l-200 -133h-100z" />
    <glyph glyph-name="Otilde" unicode="&#xd5;" 
d="M584 1280q198 0 296 -420q12 -53 20 -220q0 -396 -204 -600q-59 -40 -124 -40q-197 0 -296 420q-16 96 -16 180v80q0 311 164 524q70 76 160 76zM420 672v-76q27 -436 164 -436q98 0 148 340l8 140q-25 480 -168 480q-95 0 -144 -320q-8 -41 -8 -128zM547 1592v-5
l131 -89q17 -18 42 -18t43 18q16 16 17 40h120q-1 -73 -53 -125q-53 -53 -127 -53q-35 0 -65 11v1l-131 90l-1 2q-18 16 -43 16t-42 -16q-16 -16 -18 -36h-120q2 69 53 120q53 52 127 52q36 0 66 -12q0 2 1 4z" />
    <glyph glyph-name="Odieresis" unicode="&#xd6;" 
d="M584 1280q198 0 296 -420q12 -53 20 -220q0 -396 -204 -600q-59 -40 -124 -40q-197 0 -296 420q-16 96 -16 180v80q0 311 164 524q70 76 160 76zM420 672v-76q27 -436 164 -436q98 0 148 340l8 140q-25 480 -168 480q-95 0 -144 -320q-8 -41 -8 -128zM400 1400
q-41 0 -70.5 29.5t-29.5 70.5t29.5 70.5t70.5 29.5t70.5 -29.5t29.5 -70.5t-29.5 -70.5t-70.5 -29.5zM800 1400q-41 0 -70.5 29.5t-29.5 70.5t29.5 70.5t70.5 29.5t70.5 -29.5t29.5 -70.5t-29.5 -70.5t-70.5 -29.5z" />
    <glyph glyph-name="multiply" unicode="&#xd7;" 
d="M76 105l436 436l-436 436l104 105l436 -436l437 436l104 -105l-436 -436l436 -436l-104 -105l-436 436l-437 -436z" />
    <glyph glyph-name="Oslash" unicode="&#xd8;" 
d="M449 359q43 -199 135 -199q98 0 148 340l8 140q-3 67 -9 124zM714 887q-42 233 -142 233q-95 0 -144 -320q-8 -41 -8 -128v-76q4 -64 10 -119zM309 301q-18 55 -33 119q-16 96 -16 180v80q0 311 164 524q70 76 160 76q148 0 240 -234l176 254l100 -5l-242 -349
q11 -40 22 -86q12 -53 20 -220q0 -396 -204 -600q-59 -40 -124 -40q-138 0 -228 207l-144 -207h-100z" />
    <glyph glyph-name="Ugrave" unicode="&#xd9;" 
d="M268 1280h144q8 -1 8 -8v-924q0 -127 92 -172q27 -16 76 -16q106 0 152 128v984q1 8 8 8h144q8 -1 8 -8v-976q0 -170 -200 -276q-60 -20 -124 -20q-209 0 -304 228q-12 64 -12 124v920q1 8 8 8zM827 1400h-100l-400 200h200z" />
    <glyph glyph-name="Uacute" unicode="&#xda;" 
d="M268 1280h144q8 -1 8 -8v-924q0 -127 92 -172q27 -16 76 -16q106 0 152 128v984q1 8 8 8h144q8 -1 8 -8v-976q0 -170 -200 -276q-60 -20 -124 -20q-209 0 -304 228q-12 64 -12 124v920q1 8 8 8zM499 1400l300 200h200l-400 -200h-100z" />
    <glyph glyph-name="Ucircumflex" unicode="&#xdb;" 
d="M268 1280h144q8 -1 8 -8v-924q0 -127 92 -172q27 -16 76 -16q106 0 152 128v984q1 8 8 8h144q8 -1 8 -8v-976q0 -170 -200 -276q-60 -20 -124 -20q-209 0 -304 228q-12 64 -12 124v920q1 8 8 8zM513 1600h200l200 -200h-100l-200 133l-200 -133h-100z" />
    <glyph glyph-name="Udieresis" unicode="&#xdc;" 
d="M268 1280h144q8 -1 8 -8v-924q0 -127 92 -172q27 -16 76 -16q106 0 152 128v984q1 8 8 8h144q8 -1 8 -8v-976q0 -170 -200 -276q-60 -20 -124 -20q-209 0 -304 228q-12 64 -12 124v920q1 8 8 8zM400 1400q-41 0 -70.5 29.5t-29.5 70.5t29.5 70.5t70.5 29.5t70.5 -29.5
t29.5 -70.5t-29.5 -70.5t-70.5 -29.5zM800 1400q-41 0 -70.5 29.5t-29.5 70.5t29.5 70.5t70.5 29.5t70.5 -29.5t29.5 -70.5t-29.5 -70.5t-70.5 -29.5z" />
    <glyph glyph-name="Yacute" unicode="&#xdd;" 
d="M260 1280h152q28 -34 104 -364q36 -145 60 -256h8q116 507 156 620h160v-4q-160 -536 -232 -808v-460q0 -8 -8 -8h-152q-8 0 -8 8v444q-28 136 -240 824v4zM502 1400l300 200h200l-400 -200h-100z" />
    <glyph glyph-name="Thorn" unicode="&#xde;" 
d="M268 1280h144q8 -1 8 -8v-312h164q211 0 304 -224q12 -50 12 -88v-16q0 -186 -188 -284q-55 -28 -136 -28h-156v-312q0 -8 -8 -8h-144q-8 0 -8 8v1264q1 8 8 8zM420 800v-320h164q110 0 156 128v40q0 108 -132 152h-188z" />
    <glyph glyph-name="germandbls" unicode="&#xdf;" 
d="M584 1280q216 0 304 -232q12 -37 12 -92q0 -147 -116 -240v-8q116 -121 116 -308q0 -265 -216 -380q-53 -20 -108 -20h-64q-8 0 -8 8v144q1 8 8 8h64q116 0 160 180q4 35 4 60q0 170 -120 232q-16 8 -44 8h-64q-8 0 -8 8v144q1 8 8 8h72q109 0 152 124q4 21 4 40
q0 111 -128 152q-15 4 -36 4q-112 0 -156 -132v-980q0 -8 -8 -8h-144q-8 0 -8 8v956q0 216 232 304q37 12 92 12z" />
    <glyph glyph-name="agrave" unicode="&#xe0;" 
d="M268 800h312q241 0 316 -264q4 -31 4 -68v-460q0 -8 -8 -8h-144q-8 0 -8 32q-74 -32 -160 -32q-138 0 -272 104q-48 65 -48 144q0 152 208 212q75 20 124 20q67 0 148 -32v28q0 121 -128 164h-344q-8 0 -8 8v144q1 8 8 8zM400 223q31 -96 77 -96q41 -27 106 -27
q157 18 157 143v7q-34 109 -115 109q0 12 -68 14q-157 -20 -157 -143v-7zM629 1000l-300 300h200l200 -300h-100z" />
    <glyph glyph-name="aacute" unicode="&#xe1;" 
d="M268 800h312q241 0 316 -264q4 -31 4 -68v-460q0 -8 -8 -8h-144q-8 0 -8 32q-74 -32 -160 -32q-138 0 -272 104q-48 65 -48 144q0 152 208 212q75 20 124 20q67 0 148 -32v28q0 121 -128 164h-344q-8 0 -8 8v144q1 8 8 8zM400 223q31 -96 77 -96q41 -27 106 -27
q157 18 157 143v7q-34 109 -115 109q0 12 -68 14q-157 -20 -157 -143v-7zM602 1000h-100l200 300h200z" />
    <glyph glyph-name="acircumflex" unicode="&#xe2;" 
d="M268 800h312q241 0 316 -264q4 -31 4 -68v-460q0 -8 -8 -8h-144q-8 0 -8 32q-74 -32 -160 -32q-138 0 -272 104q-48 65 -48 144q0 152 208 212q75 20 124 20q67 0 148 -32v28q0 121 -128 164h-344q-8 0 -8 8v144q1 8 8 8zM400 223q31 -96 77 -96q41 -27 106 -27
q157 18 157 143v7q-34 109 -115 109q0 12 -68 14q-157 -20 -157 -143v-7zM500 1300h200l200 -300h-100l-198 198l-202 -198h-100z" />
    <glyph glyph-name="atilde" unicode="&#xe3;" 
d="M268 800h312q241 0 316 -264q4 -31 4 -68v-460q0 -8 -8 -8h-144q-8 0 -8 32q-74 -32 -160 -32q-138 0 -272 104q-48 65 -48 144q0 152 208 212q75 20 124 20q67 0 148 -32v28q0 121 -128 164h-344q-8 0 -8 8v144q1 8 8 8zM400 223q31 -96 77 -96q41 -27 106 -27
q157 18 157 143v7q-34 109 -115 109q0 12 -68 14q-157 -20 -157 -143v-7zM547 1292v-5l131 -89q17 -18 42 -18t43 18q16 16 17 40h120q-1 -73 -53 -125q-53 -53 -127 -53q-35 0 -65 11v1l-131 90l-1 2q-18 16 -43 16t-42 -16q-16 -16 -18 -36h-120q2 69 53 120q53 52 127 52
q36 0 66 -12q0 2 1 4z" />
    <glyph glyph-name="adieresis" unicode="&#xe4;" 
d="M268 800h312q241 0 316 -264q4 -31 4 -68v-460q0 -8 -8 -8h-144q-8 0 -8 32q-74 -32 -160 -32q-138 0 -272 104q-48 65 -48 144q0 152 208 212q75 20 124 20q67 0 148 -32v28q0 121 -128 164h-344q-8 0 -8 8v144q1 8 8 8zM400 223q31 -96 77 -96q41 -27 106 -27
q157 18 157 143v7q-34 109 -115 109q0 12 -68 14q-157 -20 -157 -143v-7zM400 1000q-41 0 -70.5 29.5t-29.5 70.5t29.5 70.5t70.5 29.5t70.5 -29.5t29.5 -70.5t-29.5 -70.5t-70.5 -29.5zM800 1000q-41 0 -70.5 29.5t-29.5 70.5t29.5 70.5t70.5 29.5t70.5 -29.5t29.5 -70.5
t-29.5 -70.5t-70.5 -29.5z" />
    <glyph glyph-name="aring" unicode="&#xe5;" 
d="M268 800h312q241 0 316 -264q4 -31 4 -68v-460q0 -8 -8 -8h-144q-8 0 -8 32q-74 -32 -160 -32q-138 0 -272 104q-48 65 -48 144q0 152 208 212q75 20 124 20q67 0 148 -32v28q0 121 -128 164h-344q-8 0 -8 8v144q1 8 8 8zM400 223q31 -96 77 -96q41 -27 106 -27
q157 18 157 143v7q-34 109 -115 109q0 12 -68 14q-157 -20 -157 -143v-7zM615 930q-77 0 -131 54t-54 131t54 131t131 54t131 -54t54 -131t-54 -131t-131 -54zM615 1004q46 0 78.5 32.5t32.5 78.5t-32.5 78.5t-78.5 32.5t-78.5 -32.5t-32.5 -78.5t32.5 -78.5t78.5 -32.5z
" />
    <glyph glyph-name="ae" unicode="&#xe6;" 
d="M56 800h312q160 0 248 -120h4q111 120 236 120h8q214 0 300 -324q4 -25 4 -56v-64q0 -31 -16 -36h-448q33 -160 148 -160h240l8 -4q-90 -156 -264 -156q-116 0 -204 104q-100 -104 -256 -104q-226 0 -312 168q-12 24 -16 76q0 155 232 228q53 8 92 8q88 0 156 -32v44
q0 99 -120 144q-21 4 -40 4h-312q-8 0 -8 8v144q1 8 8 8zM704 433h292v5q-39 202 -148 202q-108 0 -144 -207zM208 241q0 -92 160 -115q160 17 160 115v12q0 100 -168 114q-125 0 -152 -120v-6z" />
    <glyph glyph-name="ccedilla" unicode="&#xe7;" 
d="M592 800q224 0 308 -316l-8 -4h-140q-12 7 -64 112q-55 48 -96 48q-86 0 -148 -116q-16 -63 -16 -104v-40q0 -184 160 -220h8q88 0 144 156l8 4h144q8 -1 8 -8q-24 -132 -124 -240q-86 -72 -200 -72h-4q-210 0 -296 312q-8 21 -8 84v32q0 253 252 364q40 8 72 8zM613 104
q38 0 48 -52q0 -14 -56 -104q0 -4 4 -4q75 -27 120 -92q19 0 28 -120v-44q0 -57 -80 -76h-52q-15 -12 -36 -12q-244 47 -244 132q10 48 56 48q21 0 52 -36q49 -20 124 -40q30 8 56 8h24v8q-5 96 -40 96q0 20 -40 28h-40q-56 6 -56 52q12 33 24 92q73 116 100 116h8z" />
    <glyph glyph-name="egrave" unicode="&#xe8;" 
d="M624 800q236 0 312 -340q4 -46 4 -88q-4 -52 -20 -52h-448q38 -160 148 -160h240q8 -1 8 -8q-95 -152 -256 -152h-8q-210 0 -296 312q-8 21 -8 84v32q0 253 252 364q40 8 72 8zM466 439h298v5q-34 196 -155 196q-102 0 -143 -201zM700 1000l-300 300h200l200 -300h-100z
" />
    <glyph glyph-name="eacute" unicode="&#xe9;" 
d="M624 800q236 0 312 -340q4 -46 4 -88q-4 -52 -20 -52h-448q38 -160 148 -160h240q8 -1 8 -8q-95 -152 -256 -152h-8q-210 0 -296 312q-8 21 -8 84v32q0 253 252 364q40 8 72 8zM466 439h298v5q-34 196 -155 196q-102 0 -143 -201zM600 1000h-100l200 300h200z" />
    <glyph glyph-name="ecircumflex" unicode="&#xea;" 
d="M624 800q236 0 312 -340q4 -46 4 -88q-4 -52 -20 -52h-448q38 -160 148 -160h240q8 -1 8 -8q-95 -152 -256 -152h-8q-210 0 -296 312q-8 21 -8 84v32q0 253 252 364q40 8 72 8zM466 439h298v5q-34 196 -155 196q-102 0 -143 -201zM500 1300h200l200 -300h-100l-198 198
l-202 -198h-100z" />
    <glyph glyph-name="edieresis" unicode="&#xeb;" 
d="M624 800q236 0 312 -340q4 -46 4 -88q-4 -52 -20 -52h-448q38 -160 148 -160h240q8 -1 8 -8q-95 -152 -256 -152h-8q-210 0 -296 312q-8 21 -8 84v32q0 253 252 364q40 8 72 8zM466 439h298v5q-34 196 -155 196q-102 0 -143 -201zM400 1000q-41 0 -70.5 29.5t-29.5 70.5
t29.5 70.5t70.5 29.5t70.5 -29.5t29.5 -70.5t-29.5 -70.5t-70.5 -29.5zM800 1000q-41 0 -70.5 29.5t-29.5 70.5t29.5 70.5t70.5 29.5t70.5 -29.5t29.5 -70.5t-29.5 -70.5t-70.5 -29.5z" />
    <glyph glyph-name="igrave" unicode="&#xec;" 
d="M548 800h144q8 -1 8 -8v-784q0 -8 -8 -8h-144q-8 0 -8 8v784q1 8 8 8zM664 1000l-300 300h200l200 -300h-100z" />
    <glyph glyph-name="iacute" unicode="&#xed;" 
d="M548 800h144q8 -1 8 -8v-784q0 -8 -8 -8h-144q-8 0 -8 8v784q1 8 8 8zM599 1000h-100l200 300h200z" />
    <glyph glyph-name="icircumflex" unicode="&#xee;" 
d="M548 800h144q8 -1 8 -8v-784q0 -8 -8 -8h-144q-8 0 -8 8v784q1 8 8 8zM500 1300h200l200 -300h-100l-198 198l-202 -198h-100z" />
    <glyph glyph-name="idieresis" unicode="&#xef;" 
d="M548 800h144q8 -1 8 -8v-784q0 -8 -8 -8h-144q-8 0 -8 8v784q1 8 8 8zM400 1000q-41 0 -70.5 29.5t-29.5 70.5t29.5 70.5t70.5 29.5t70.5 -29.5t29.5 -70.5t-29.5 -70.5t-70.5 -29.5zM800 1000q-41 0 -70.5 29.5t-29.5 70.5t29.5 70.5t70.5 29.5t70.5 -29.5t29.5 -70.5
t-29.5 -70.5t-70.5 -29.5z" />
    <glyph glyph-name="eth" unicode="&#xf0;" 
d="M264 1280h152q20 -19 92 -152h4l228 152h152v-4l-320 -244v-4q164 -281 176 -288q91 -62 140 -220q0 -10 8 -40h-4q8 -21 8 -84q0 -253 -212 -376q-63 -20 -112 -20q-212 0 -304 284q-12 61 -12 116q0 250 200 372q49 24 88 24v4l-88 148l-196 -144h-4v152q0 5 136 96
q-132 220 -132 228zM420 400q0 -170 120 -232q16 -8 44 -8q105 0 152 180q4 35 4 60q0 124 -92 220q-36 20 -72 20q-108 0 -152 -184q-4 -25 -4 -56z" />
    <glyph glyph-name="ntilde" unicode="&#xf1;" 
d="M252 800h4l476 -472v464q1 8 8 8h152q8 -1 8 -8v-788h-4l-476 472v-468q0 -8 -8 -8h-152q-8 0 -8 8v792zM547 1192v-5l131 -89q17 -18 42 -18t43 18q16 16 17 40h120q-1 -73 -53 -125q-53 -53 -127 -53q-35 0 -65 11v1l-131 90l-1 2q-18 16 -43 16t-42 -16
q-16 -16 -18 -36h-120q2 69 53 120q53 52 127 52q36 0 66 -12q0 2 1 4z" />
    <glyph glyph-name="ograve" unicode="&#xf2;" 
d="M592 800q223 0 304 -332q4 -45 4 -84q0 -269 -256 -376q-32 -8 -68 -8q-236 0 -312 336q-4 29 -4 76q0 276 256 380q32 8 76 8zM420 408v-16q0 -198 160 -232q160 34 160 232v16q0 198 -160 232q-160 -34 -160 -232zM700 1000l-300 300h200l200 -300h-100z" />
    <glyph glyph-name="oacute" unicode="&#xf3;" 
d="M592 800q223 0 304 -332q4 -45 4 -84q0 -269 -256 -376q-32 -8 -68 -8q-236 0 -312 336q-4 29 -4 76q0 276 256 380q32 8 76 8zM420 408v-16q0 -198 160 -232q160 34 160 232v16q0 198 -160 232q-160 -34 -160 -232zM500 1000h-100l200 300h200z" />
    <glyph glyph-name="ocircumflex" unicode="&#xf4;" 
d="M592 800q223 0 304 -332q4 -45 4 -84q0 -269 -256 -376q-32 -8 -68 -8q-236 0 -312 336q-4 29 -4 76q0 276 256 380q32 8 76 8zM420 408v-16q0 -198 160 -232q160 34 160 232v16q0 198 -160 232q-160 -34 -160 -232zM500 1300h200l200 -300h-100l-198 198l-202 -198h-100
z" />
    <glyph glyph-name="otilde" unicode="&#xf5;" 
d="M592 800q223 0 304 -332q4 -45 4 -84q0 -269 -256 -376q-32 -8 -68 -8q-236 0 -312 336q-4 29 -4 76q0 276 256 380q32 8 76 8zM420 408v-16q0 -198 160 -232q160 34 160 232v16q0 198 -160 232q-160 -34 -160 -232zM547 1192v-5l131 -89q17 -18 42 -18t43 18
q16 16 17 40h120q-1 -73 -53 -125q-53 -53 -127 -53q-35 0 -65 11v1l-131 90l-1 2q-18 16 -43 16t-42 -16q-16 -16 -18 -36h-120q2 69 53 120q53 52 127 52q36 0 66 -12q0 2 1 4z" />
    <glyph glyph-name="odieresis" unicode="&#xf6;" 
d="M592 800q223 0 304 -332q4 -45 4 -84q0 -269 -256 -376q-32 -8 -68 -8q-236 0 -312 336q-4 29 -4 76q0 276 256 380q32 8 76 8zM420 408v-16q0 -198 160 -232q160 34 160 232v16q0 198 -160 232q-160 -34 -160 -232zM400 1000q-41 0 -70.5 29.5t-29.5 70.5t29.5 70.5
t70.5 29.5t70.5 -29.5t29.5 -70.5t-29.5 -70.5t-70.5 -29.5zM800 1000q-41 0 -70.5 29.5t-29.5 70.5t29.5 70.5t70.5 29.5t70.5 -29.5t29.5 -70.5t-29.5 -70.5t-70.5 -29.5z" />
    <glyph glyph-name="divide" unicode="&#xf7;" 
d="M1100 500h-1000v100h1000v-100zM600 0q-41 0 -70.5 29.5t-29.5 70.5t29.5 70.5t70.5 29.5t70.5 -29.5t29.5 -70.5t-29.5 -70.5t-70.5 -29.5zM600 900q-41 0 -70.5 29.5t-29.5 70.5t29.5 70.5t70.5 29.5t70.5 -29.5t29.5 -70.5t-29.5 -70.5t-70.5 -29.5z" />
    <glyph glyph-name="oslash" unicode="&#xf8;" 
d="M462 233q40 -56 118 -73q160 34 160 232v16q0 36 -5 67zM712 544q-39 76 -132 96q-160 -34 -160 -232v-16q0 -55 12 -97zM312 189q-29 63 -48 147q-4 29 -4 76q0 276 256 380q32 8 76 8q151 0 237 -152l171 152h100l-241 -214q21 -53 37 -118q4 -45 4 -84
q0 -269 -256 -376q-32 -8 -68 -8q-146 0 -231 129l-145 -129h-100z" />
    <glyph glyph-name="ugrave" unicode="&#xf9;" 
d="M268 800h144q8 -1 8 -8v-444q0 -127 92 -172q27 -16 76 -16q106 0 152 128v504q1 8 8 8h144q8 -1 8 -8v-496q0 -170 -200 -276q-60 -20 -124 -20q-209 0 -304 228q-12 64 -12 124v440q1 8 8 8zM700 1000l-300 300h200l200 -300h-100z" />
    <glyph glyph-name="uacute" unicode="&#xfa;" 
d="M268 800h144q8 -1 8 -8v-444q0 -127 92 -172q27 -16 76 -16q106 0 152 128v504q1 8 8 8h144q8 -1 8 -8v-496q0 -170 -200 -276q-60 -20 -124 -20q-209 0 -304 228q-12 64 -12 124v440q1 8 8 8zM500 1000h-100l200 300h200z" />
    <glyph glyph-name="ucircumflex" unicode="&#xfb;" 
d="M268 800h144q8 -1 8 -8v-444q0 -127 92 -172q27 -16 76 -16q106 0 152 128v504q1 8 8 8h144q8 -1 8 -8v-496q0 -170 -200 -276q-60 -20 -124 -20q-209 0 -304 228q-12 64 -12 124v440q1 8 8 8zM497 1300h200l200 -300h-100l-198 198l-202 -198h-100z" />
    <glyph glyph-name="udieresis" unicode="&#xfc;" 
d="M268 800h144q8 -1 8 -8v-444q0 -127 92 -172q27 -16 76 -16q106 0 152 128v504q1 8 8 8h144q8 -1 8 -8v-496q0 -170 -200 -276q-60 -20 -124 -20q-209 0 -304 228q-12 64 -12 124v440q1 8 8 8zM400 1000q-41 0 -70.5 29.5t-29.5 70.5t29.5 70.5t70.5 29.5t70.5 -29.5
t29.5 -70.5t-29.5 -70.5t-70.5 -29.5zM800 1000q-41 0 -70.5 29.5t-29.5 70.5t29.5 70.5t70.5 29.5t70.5 -29.5t29.5 -70.5t-29.5 -70.5t-70.5 -29.5z" />
    <glyph glyph-name="yacute" unicode="&#xfd;" 
d="M268 800h144q8 -1 8 -8v-468q0 -121 128 -164h36q106 0 140 96q16 47 16 84v452q1 8 8 8h144q8 -1 8 -8v-864q0 -160 -180 -220q-63 -20 -136 -28l-4 8v136q0 12 128 44q32 32 32 52v120h-4q-74 -40 -156 -40q-238 0 -316 264q-4 31 -4 68v460q1 8 8 8zM614 1000h-100
l200 300h200z" />
    <glyph glyph-name="thorn" unicode="&#xfe;" 
d="M268 1274h144q8 -1 8 -8v-524q72 52 164 52q212 0 304 -284q12 -61 12 -116q0 -246 -192 -368q-60 -32 -128 -32q-86 0 -160 52v-364q0 -8 -8 -8h-144q-8 0 -8 8v1584q1 8 8 8zM420 394q0 -170 120 -232q16 -8 44 -8q105 0 152 180q4 35 4 60q0 170 -120 232q-16 8 -44 8
q-108 0 -152 -184q-4 -25 -4 -56z" />
    <glyph glyph-name="ydieresis" unicode="&#xff;" 
d="M268 800h144q8 -1 8 -8v-468q0 -121 128 -164h36q106 0 140 96q16 47 16 84v452q1 8 8 8h144q8 -1 8 -8v-864q0 -160 -180 -220q-63 -20 -136 -28l-4 8v136q0 12 128 44q32 32 32 52v120h-4q-74 -40 -156 -40q-238 0 -316 264q-4 31 -4 68v460q1 8 8 8zM434 1000
q-41 0 -70.5 29.5t-29.5 70.5t29.5 70.5t70.5 29.5t70.5 -29.5t29.5 -70.5t-29.5 -70.5t-70.5 -29.5zM834 1000q-41 0 -70.5 29.5t-29.5 70.5t29.5 70.5t70.5 29.5t70.5 -29.5t29.5 -70.5t-29.5 -70.5t-70.5 -29.5z" />
    <glyph glyph-name="Amacron" unicode="&#x100;" 
d="M588 1280q200 0 296 -212q16 -49 16 -84v-976q0 -8 -8 -8h-144q-8 0 -8 8v472h-320v-472q0 -8 -8 -8h-144q-8 0 -8 8v920q0 250 216 336q52 16 112 16zM420 932v-292h320v340q0 80 -108 132q-28 8 -48 8q-114 0 -160 -124q-4 -41 -4 -64zM900 1500h-600v100h600v-100z
" />
    <glyph glyph-name="amacron" unicode="&#x101;" 
d="M268 800h312q241 0 316 -264q4 -31 4 -68v-460q0 -8 -8 -8h-144q-8 0 -8 32q-74 -32 -160 -32q-138 0 -272 104q-48 65 -48 144q0 152 208 212q75 20 124 20q67 0 148 -32v28q0 121 -128 164h-344q-8 0 -8 8v144q1 8 8 8zM400 223q31 -96 77 -96q41 -27 106 -27
q157 18 157 143v7q-34 109 -115 109q0 12 -68 14q-157 -20 -157 -143v-7zM900 1100h-600v100h600v-100z" />
    <glyph glyph-name="Abreve" unicode="&#x102;" 
d="M588 1280q200 0 296 -212q16 -49 16 -84v-976q0 -8 -8 -8h-144q-8 0 -8 8v472h-320v-472q0 -8 -8 -8h-144q-8 0 -8 8v920q0 250 216 336q52 16 112 16zM420 932v-292h320v340q0 80 -108 132q-28 8 -48 8q-114 0 -160 -124q-4 -41 -4 -64zM799 1600h100q0 -83 -88 -141.5
t-212 -58.5t-212 58.5t-88 141.5h100q0 -41 58.5 -70.5t141.5 -29.5t141.5 29.5t58.5 70.5z" />
    <glyph glyph-name="abreve" unicode="&#x103;" 
d="M268 800h312q241 0 316 -264q4 -31 4 -68v-460q0 -8 -8 -8h-144q-8 0 -8 32q-74 -32 -160 -32q-138 0 -272 104q-48 65 -48 144q0 152 208 212q75 20 124 20q67 0 148 -32v28q0 121 -128 164h-344q-8 0 -8 8v144q1 8 8 8zM400 223q31 -96 77 -96q41 -27 106 -27
q157 18 157 143v7q-34 109 -115 109q0 12 -68 14q-157 -20 -157 -143v-7zM815 1200h100q0 -83 -88 -141.5t-212 -58.5t-212 58.5t-88 141.5h100q0 -41 58.5 -70.5t141.5 -29.5t141.5 29.5t58.5 70.5z" />
    <glyph glyph-name="Aogonek" unicode="&#x104;" 
d="M588 1280q200 0 296 -212q16 -49 16 -84v-976q0 -8 -8 -8h-144q-8 0 -8 8v472h-320v-472q0 -8 -8 -8h-144q-8 0 -8 8v920q0 250 216 336q52 16 112 16zM420 932v-292h320v340q0 80 -108 132q-28 8 -48 8q-114 0 -160 -124q-4 -41 -4 -64zM851 56q38 0 48 -52
q0 -32 -64 -60q-20 -21 -32 -52q-50 -37 -72 -156v-36h40q57 0 116 24q38 0 48 -52q0 -65 -148 -72h-60q-69 0 -96 80v76q21 112 68 172q7 0 48 72q50 56 104 56z" />
    <glyph glyph-name="aogonek" unicode="&#x105;" 
d="M268 800h312q241 0 316 -264q4 -31 4 -68v-460q0 -8 -8 -8h-144q-8 0 -8 32q-74 -32 -160 -32q-138 0 -272 104q-48 65 -48 144q0 152 208 212q75 20 124 20q67 0 148 -32v28q0 121 -128 164h-344q-8 0 -8 8v144q1 8 8 8zM400 223q31 -96 77 -96q41 -27 106 -27
q157 18 157 143v7q-34 109 -115 109q0 12 -68 14q-157 -20 -157 -143v-7zM846 56q38 0 48 -52q0 -32 -64 -60q-20 -21 -32 -52q-50 -37 -72 -156v-36h40q57 0 116 24q38 0 48 -52q0 -65 -148 -72h-60q-69 0 -96 80v76q21 112 68 172q7 0 48 72q50 56 104 56z" />
    <glyph glyph-name="Cacute" unicode="&#x106;" 
d="M584 1280q205 0 300 -220q12 -45 16 -96l-8 -4h-144q-9 0 -24 72q-56 88 -152 88q-106 0 -152 -128v-692q0 -80 108 -132q28 -8 48 -8q115 0 160 124q0 36 12 36h144l8 -4q0 -200 -216 -300q-52 -16 -112 -16q-200 0 -296 212q-16 47 -16 84v688q0 170 200 276
q58 20 124 20zM500 1400l300 200h200l-400 -200h-100z" />
    <glyph glyph-name="cacute" unicode="&#x107;" 
d="M592 800q224 0 308 -316l-8 -4h-140q-12 7 -64 112q-55 48 -96 48q-86 0 -148 -116q-16 -63 -16 -104v-40q0 -184 160 -220h8q88 0 144 156l8 4h144q8 -1 8 -8q-24 -132 -124 -240q-86 -72 -200 -72h-4q-210 0 -296 312q-8 21 -8 84v32q0 253 252 364q40 8 72 8z
M600 1000h-100l200 300h200z" />
    <glyph glyph-name="Ccircumflex" unicode="&#x108;" 
d="M584 1280q205 0 300 -220q12 -45 16 -96l-8 -4h-144q-9 0 -24 72q-56 88 -152 88q-106 0 -152 -128v-692q0 -80 108 -132q28 -8 48 -8q115 0 160 124q0 36 12 36h144l8 -4q0 -200 -216 -300q-52 -16 -112 -16q-200 0 -296 212q-16 47 -16 84v688q0 170 200 276
q58 20 124 20zM500 1600h200l200 -200h-100l-200 133l-200 -133h-100z" />
    <glyph glyph-name="ccircumflex" unicode="&#x109;" 
d="M592 800q224 0 308 -316l-8 -4h-140q-12 7 -64 112q-55 48 -96 48q-86 0 -148 -116q-16 -63 -16 -104v-40q0 -184 160 -220h8q88 0 144 156l8 4h144q8 -1 8 -8q-24 -132 -124 -240q-86 -72 -200 -72h-4q-210 0 -296 312q-8 21 -8 84v32q0 253 252 364q40 8 72 8z
M500 1300h200l200 -300h-100l-198 198l-202 -198h-100z" />
    <glyph glyph-name="Cdotaccent" unicode="&#x10a;" 
d="M584 1280q205 0 300 -220q12 -45 16 -96l-8 -4h-144q-9 0 -24 72q-56 88 -152 88q-106 0 -152 -128v-692q0 -80 108 -132q28 -8 48 -8q115 0 160 124q0 36 12 36h144l8 -4q0 -200 -216 -300q-52 -16 -112 -16q-200 0 -296 212q-16 47 -16 84v688q0 170 200 276
q58 20 124 20zM600 1400q-41 0 -70.5 29.5t-29.5 70.5t29.5 70.5t70.5 29.5t70.5 -29.5t29.5 -70.5t-29.5 -70.5t-70.5 -29.5z" />
    <glyph glyph-name="cdotaccent" unicode="&#x10b;" 
d="M592 800q224 0 308 -316l-8 -4h-140q-12 7 -64 112q-55 48 -96 48q-86 0 -148 -116q-16 -63 -16 -104v-40q0 -184 160 -220h8q88 0 144 156l8 4h144q8 -1 8 -8q-24 -132 -124 -240q-86 -72 -200 -72h-4q-210 0 -296 312q-8 21 -8 84v32q0 253 252 364q40 8 72 8z
M600 1000q-41 0 -70.5 29.5t-29.5 70.5t29.5 70.5t70.5 29.5t70.5 -29.5t29.5 -70.5t-29.5 -70.5t-70.5 -29.5z" />
    <glyph glyph-name="Ccaron" unicode="&#x10c;" 
d="M584 1280q205 0 300 -220q12 -45 16 -96l-8 -4h-144q-9 0 -24 72q-56 88 -152 88q-106 0 -152 -128v-692q0 -80 108 -132q28 -8 48 -8q115 0 160 124q0 36 12 36h144l8 -4q0 -200 -216 -300q-52 -16 -112 -16q-200 0 -296 212q-16 47 -16 84v688q0 170 200 276
q58 20 124 20zM500 1400l-200 200h100l200 -133l200 133h100l-200 -200h-200z" />
    <glyph glyph-name="ccaron" unicode="&#x10d;" 
d="M592 800q224 0 308 -316l-8 -4h-140q-12 7 -64 112q-55 48 -96 48q-86 0 -148 -116q-16 -63 -16 -104v-40q0 -184 160 -220h8q88 0 144 156l8 4h144q8 -1 8 -8q-24 -132 -124 -240q-86 -72 -200 -72h-4q-210 0 -296 312q-8 21 -8 84v32q0 253 252 364q40 8 72 8z
M500 1000l-200 300h100l202 -198l198 198h100l-200 -300h-200z" />
    <glyph glyph-name="Dcaron" unicode="&#x10e;" 
d="M268 1280h312q222 0 308 -228q12 -32 12 -68v-688q0 -166 -192 -272q-60 -24 -128 -24h-312q-8 0 -8 8v1264q1 8 8 8zM420 1120v-960h164q111 0 156 128v692q0 80 -108 132q-18 8 -52 8h-160zM400 1400l-200 200h100l200 -133l200 133h100l-200 -200h-200z" />
    <glyph glyph-name="dcaron" unicode="&#x10f;" 
d="M748 1280h144q8 -1 8 -8v-1264q0 -8 -8 -8h-144q-8 0 -8 8v44q-80 -52 -172 -52q-221 0 -304 324q-4 25 -4 56v52q0 244 248 360q48 8 76 8q72 0 156 -52v524q1 8 8 8zM420 424v-48q0 -180 160 -216q160 36 160 240q0 184 -132 232q-25 8 -32 8q-52 0 -120 -76
q-36 -65 -36 -140zM314 1000l-200 300h100l202 -198l198 198h100l-200 -300h-200z" />
    <glyph glyph-name="Dcroat" unicode="&#x110;" 
d="M268 1280h312q222 0 308 -228q12 -32 12 -68v-688q0 -166 -192 -272q-61 -24 -128 -24h-312q-8 0 -8 8v472h-72q-8 0 -8 8v144q1 8 8 8h72v632q1 8 8 8zM420 1120v-480h72q8 -1 8 -8v-144q0 -8 -8 -8h-72v-320h160q113 0 160 124v696q0 80 -108 132q-28 8 -48 8h-164z
" />
    <glyph glyph-name="dcroat" unicode="&#x111;" 
d="M768 1280h140q6 0 12 -12v-148h72q8 -1 8 -8v-144q0 -8 -8 -8h-72v-948q0 -6 -12 -12h-136q-12 0 -12 52q-80 -52 -172 -52q-221 0 -304 324q-4 25 -4 56v52q0 244 248 360q48 8 76 8q72 0 156 -52v212h-232q-8 0 -8 8v144q1 8 8 8h232v152q1 8 8 8zM440 424v-48
q0 -180 160 -216q160 36 160 240q0 184 -132 232q-25 8 -32 8q-52 0 -120 -76q-36 -65 -36 -140z" />
    <glyph glyph-name="Emacron" unicode="&#x112;" 
d="M268 1280h624q8 -1 8 -8v-144q0 -8 -8 -8h-472v-480h472q8 -1 8 -8v-144q0 -8 -8 -8h-472v-320h472q8 -1 8 -8v-144q0 -8 -8 -8h-624q-8 0 -8 8v1264q1 8 8 8zM862 1484h-600v100h600v-100z" />
    <glyph glyph-name="emacron" unicode="&#x113;" 
d="M624 800q236 0 312 -340q4 -46 4 -88q-4 -52 -20 -52h-448q38 -160 148 -160h240q8 -1 8 -8q-95 -152 -256 -152h-8q-210 0 -296 312q-8 21 -8 84v32q0 253 252 364q40 8 72 8zM466 439h298v5q-34 196 -155 196q-102 0 -143 -201zM900 1000h-600v100h600v-100z" />
    <glyph glyph-name="Ebreve" unicode="&#x114;" 
d="M268 1280h624q8 -1 8 -8v-144q0 -8 -8 -8h-472v-480h472q8 -1 8 -8v-144q0 -8 -8 -8h-472v-320h472q8 -1 8 -8v-144q0 -8 -8 -8h-624q-8 0 -8 8v1264q1 8 8 8zM831 1600h100q0 -83 -88 -141.5t-212 -58.5t-212 58.5t-88 141.5h100q0 -41 58.5 -70.5t141.5 -29.5
t141.5 29.5t58.5 70.5z" />
    <glyph glyph-name="ebreve" unicode="&#x115;" 
d="M624 800q236 0 312 -340q4 -46 4 -88q-4 -52 -20 -52h-448q38 -160 148 -160h240q8 -1 8 -8q-95 -152 -256 -152h-8q-210 0 -296 312q-8 21 -8 84v32q0 253 252 364q40 8 72 8zM466 439h298v5q-34 196 -155 196q-102 0 -143 -201zM837 1200h100q0 -83 -88 -141.5
t-212 -58.5t-212 58.5t-88 141.5h100q0 -41 58.5 -70.5t141.5 -29.5t141.5 29.5t58.5 70.5z" />
    <glyph glyph-name="Edotaccent" unicode="&#x116;" 
d="M268 1280h624q8 -1 8 -8v-144q0 -8 -8 -8h-472v-480h472q8 -1 8 -8v-144q0 -8 -8 -8h-472v-320h472q8 -1 8 -8v-144q0 -8 -8 -8h-624q-8 0 -8 8v1264q1 8 8 8zM632 1400q-41 0 -70.5 29.5t-29.5 70.5t29.5 70.5t70.5 29.5t70.5 -29.5t29.5 -70.5t-29.5 -70.5t-70.5 -29.5
z" />
    <glyph glyph-name="edotaccent" unicode="&#x117;" 
d="M624 800q236 0 312 -340q4 -46 4 -88q-4 -52 -20 -52h-448q38 -160 148 -160h240q8 -1 8 -8q-95 -152 -256 -152h-8q-210 0 -296 312q-8 21 -8 84v32q0 253 252 364q40 8 72 8zM466 439h298v5q-34 196 -155 196q-102 0 -143 -201zM600 1000q-41 0 -70.5 29.5t-29.5 70.5
t29.5 70.5t70.5 29.5t70.5 -29.5t29.5 -70.5t-29.5 -70.5t-70.5 -29.5z" />
    <glyph glyph-name="Eogonek" unicode="&#x118;" 
d="M268 1280h624q8 -1 8 -8v-144q0 -8 -8 -8h-472v-480h472q8 -1 8 -8v-144q0 -8 -8 -8h-472v-320h472q8 -1 8 -8v-144q0 -8 -8 -8h-624q-8 0 -8 8v1264q1 8 8 8zM620 56q38 0 48 -52q0 -32 -64 -60q-20 -21 -32 -52q-50 -37 -72 -156v-36h40q57 0 116 24q38 0 48 -52
q0 -65 -148 -72h-60q-69 0 -96 80v76q21 112 68 172q7 0 48 72q50 56 104 56z" />
    <glyph glyph-name="eogonek" unicode="&#x119;" 
d="M624 800q236 0 312 -340q4 -46 4 -88q-4 -52 -20 -52h-448q38 -160 148 -160h240q8 -1 8 -8q-95 -152 -256 -152h-8q-210 0 -296 312q-8 21 -8 84v32q0 253 252 364q40 8 72 8zM466 439h298v5q-34 196 -155 196q-102 0 -143 -201zM620 56q38 0 48 -52q0 -32 -64 -60
q-20 -21 -32 -52q-50 -37 -72 -156v-36h40q57 0 116 24q38 0 48 -52q0 -65 -148 -72h-60q-69 0 -96 80v76q21 112 68 172q7 0 48 72q50 56 104 56z" />
    <glyph glyph-name="Ecaron" unicode="&#x11a;" 
d="M268 1280h624q8 -1 8 -8v-144q0 -8 -8 -8h-472v-480h472q8 -1 8 -8v-144q0 -8 -8 -8h-472v-320h472q8 -1 8 -8v-144q0 -8 -8 -8h-624q-8 0 -8 8v1264q1 8 8 8zM556 1400l-200 200h100l200 -133l200 133h100l-200 -200h-200z" />
    <glyph glyph-name="ecaron" unicode="&#x11b;" 
d="M624 800q236 0 312 -340q4 -46 4 -88q-4 -52 -20 -52h-448q38 -160 148 -160h240q8 -1 8 -8q-95 -152 -256 -152h-8q-210 0 -296 312q-8 21 -8 84v32q0 253 252 364q40 8 72 8zM466 439h298v5q-34 196 -155 196q-102 0 -143 -201zM538 1000l-200 300h100l202 -198
l198 198h100l-200 -300h-200z" />
    <glyph glyph-name="Gcircumflex" unicode="&#x11c;" 
d="M588 1280q231 0 308 -272v-44l-20 -4h-124q-14 12 -40 96q-59 64 -140 64q-117 0 -148 -128q-4 -22 -4 -36v-644q0 -109 128 -152h36q113 0 148 120q8 57 8 80v120h-152q-8 0 -8 8v144q1 8 8 8h304q8 -1 8 -8v-624q0 -8 -8 -8h-148q-7 0 -12 36h-4q-71 -36 -156 -36
q-228 0 -308 260q-4 15 -4 36v680q0 216 260 300q42 4 68 4zM500 1600h200l200 -200h-100l-200 133l-200 -133h-100z" />
    <glyph glyph-name="gcircumflex" unicode="&#x11d;" 
d="M588 800q74 0 144 -44h8v36q1 8 8 8h144q8 -1 8 -8v-856q0 -213 -296 -256h-32q-226 0 -308 196q-4 22 -4 36v4q1 8 8 8h132q60 -84 180 -84h8q128 0 152 80v132q-79 -52 -168 -52q-211 0 -304 296q-8 43 -8 92v32q0 267 244 372q40 8 84 8zM420 420v-40q0 -184 160 -220
q68 0 132 96q28 59 28 148q0 168 -116 224q-39 12 -48 12q-156 -39 -156 -220zM500 1300h200l200 -300h-100l-198 198l-202 -198h-100z" />
    <glyph glyph-name="Gbreve" unicode="&#x11e;" 
d="M588 1280q231 0 308 -272v-44l-20 -4h-124q-14 12 -40 96q-59 64 -140 64q-117 0 -148 -128q-4 -22 -4 -36v-644q0 -109 128 -152h36q113 0 148 120q8 57 8 80v120h-152q-8 0 -8 8v144q1 8 8 8h304q8 -1 8 -8v-624q0 -8 -8 -8h-148q-7 0 -12 36h-4q-71 -36 -156 -36
q-228 0 -308 260q-4 15 -4 36v680q0 216 260 300q42 4 68 4zM800 1600h100q0 -83 -88 -141.5t-212 -58.5t-212 58.5t-88 141.5h100q0 -41 58.5 -70.5t141.5 -29.5t141.5 29.5t58.5 70.5z" />
    <glyph glyph-name="gbreve" unicode="&#x11f;" 
d="M588 800q74 0 144 -44h8v36q1 8 8 8h144q8 -1 8 -8v-856q0 -213 -296 -256h-32q-226 0 -308 196q-4 22 -4 36v4q1 8 8 8h132q60 -84 180 -84h8q128 0 152 80v132q-79 -52 -168 -52q-211 0 -304 296q-8 43 -8 92v32q0 267 244 372q40 8 84 8zM420 420v-40q0 -184 160 -220
q68 0 132 96q28 59 28 148q0 168 -116 224q-39 12 -48 12q-156 -39 -156 -220zM808 1200h100q0 -83 -88 -141.5t-212 -58.5t-212 58.5t-88 141.5h100q0 -41 58.5 -70.5t141.5 -29.5t141.5 29.5t58.5 70.5z" />
    <glyph glyph-name="Gdotaccent" unicode="&#x120;" 
d="M588 1280q231 0 308 -272v-44l-20 -4h-124q-14 12 -40 96q-59 64 -140 64q-117 0 -148 -128q-4 -22 -4 -36v-644q0 -109 128 -152h36q113 0 148 120q8 57 8 80v120h-152q-8 0 -8 8v144q1 8 8 8h304q8 -1 8 -8v-624q0 -8 -8 -8h-148q-7 0 -12 36h-4q-71 -36 -156 -36
q-228 0 -308 260q-4 15 -4 36v680q0 216 260 300q42 4 68 4zM540 1406q-41 0 -70.5 29.5t-29.5 70.5t29.5 70.5t70.5 29.5t70.5 -29.5t29.5 -70.5t-29.5 -70.5t-70.5 -29.5z" />
    <glyph glyph-name="gdotaccent" unicode="&#x121;" 
d="M588 800q74 0 144 -44h8v36q1 8 8 8h144q8 -1 8 -8v-856q0 -213 -296 -256h-32q-226 0 -308 196q-4 22 -4 36v4q1 8 8 8h132q60 -84 180 -84h8q128 0 152 80v132q-79 -52 -168 -52q-211 0 -304 296q-8 43 -8 92v32q0 267 244 372q40 8 84 8zM420 420v-40q0 -184 160 -220
q68 0 132 96q28 59 28 148q0 168 -116 224q-39 12 -48 12q-156 -39 -156 -220zM600 1000q-41 0 -70.5 29.5t-29.5 70.5t29.5 70.5t70.5 29.5t70.5 -29.5t29.5 -70.5t-29.5 -70.5t-70.5 -29.5z" />
    <glyph glyph-name="uni0122" unicode="&#x122;" 
d="M588 1280q231 0 308 -272v-44l-20 -4h-124q-14 12 -40 96q-59 64 -140 64q-117 0 -148 -128q-4 -22 -4 -36v-644q0 -109 128 -152h36q113 0 148 120q8 57 8 80v120h-152q-8 0 -8 8v144q1 8 8 8h304q8 -1 8 -8v-624q0 -8 -8 -8h-148q-7 0 -12 36h-4q-71 -36 -156 -36
q-228 0 -308 260q-4 15 -4 36v680q0 216 260 300q42 4 68 4zM745 92q38 0 48 -52q0 -14 -56 -104q0 -4 4 -4q75 -27 120 -92q19 0 28 -120v-44q0 -57 -80 -76h-52q-15 -12 -36 -12q-244 47 -244 132q10 48 56 48q21 0 52 -36q49 -20 124 -40q30 8 56 8h24v8q-5 96 -40 96
q0 20 -40 28h-40q-56 6 -56 52q12 33 24 92q73 116 100 116h8z" />
    <glyph glyph-name="uni0123" unicode="&#x123;" 
d="M700 1400v-59q-74 -23 -74 -122v-16h74v-198h-197v172q0 202 197 223zM588 800q74 0 144 -44h8v36q1 8 8 8h144q8 -1 8 -8v-856q0 -213 -296 -256h-32q-226 0 -308 196q-4 22 -4 36v4q1 8 8 8h132q60 -84 180 -84h8q128 0 152 80v132q-79 -52 -168 -52q-211 0 -304 296
q-8 43 -8 92v32q0 267 244 372q40 8 84 8zM420 420v-40q0 -184 160 -220q68 0 132 96q28 59 28 148q0 168 -116 224q-39 12 -48 12q-156 -39 -156 -220z" />
    <glyph glyph-name="Hcircumflex" unicode="&#x124;" 
d="M268 1280h144q8 -1 8 -8v-632h320v632q1 8 8 8h144q8 -1 8 -8v-1264q0 -8 -8 -8h-144q-8 0 -8 8v472h-320v-472q0 -8 -8 -8h-144q-8 0 -8 8v1264q1 8 8 8zM500 1600h200l200 -200h-100l-200 133l-200 -133h-100z" />
    <glyph glyph-name="hcircumflex" unicode="&#x125;" 
d="M268 1280h144q8 -1 8 -8v-520h4q76 48 164 48q227 0 308 -332q4 -44 4 -80v-380q0 -8 -8 -8h-144q-8 0 -8 8v400q0 198 -160 232q-160 -34 -160 -232v-400q0 -8 -8 -8h-144q-8 0 -8 8v1264q1 8 8 8zM700 1300h200l200 -300h-100l-198 198l-202 -198h-100z" />
    <glyph glyph-name="Hbar" unicode="&#x126;" 
d="M288 1280h140q6 0 12 -12v-148h320v152q1 8 8 8h140q6 0 12 -12v-148h72q8 -1 8 -8v-144q0 -8 -8 -8h-72v-948q0 -6 -12 -12h-140q-8 0 -8 8v472h-320v-468q0 -6 -12 -12h-140q-8 0 -8 8v952h-72q-8 0 -8 8v144q1 8 8 8h72v152q1 8 8 8zM440 960v-320h320v320h-320z" />
    <glyph glyph-name="hbar" unicode="&#x127;" 
d="M368 1280h140q6 0 12 -12v-148h392q8 -1 8 -8v-144q0 -8 -8 -8h-392v-208h4q76 48 164 48q227 0 308 -332q4 -44 4 -80v-380q0 -8 -8 -8h-144q-8 0 -8 8v400q0 198 -160 232q-160 -34 -160 -232v-400q0 -8 -8 -8h-144q-8 0 -8 8v952h-72q-8 0 -8 8v144q1 8 8 8h72v152
q1 8 8 8z" />
    <glyph glyph-name="Itilde" unicode="&#x128;" 
d="M527 1283h144q8 -1 8 -8v-1264q0 -8 -8 -8h-144q-8 0 -8 8v1264q1 8 8 8zM547 1559v-5l131 -89q17 -18 42 -18t43 18q16 16 17 40h120q-1 -73 -53 -125q-53 -53 -127 -53q-35 0 -65 11v1l-131 90l-1 2q-18 16 -43 16t-42 -16q-16 -16 -18 -36h-120q2 69 53 120
q53 52 127 52q36 0 66 -12q0 2 1 4z" />
    <glyph glyph-name="itilde" unicode="&#x129;" 
d="M548 800h144q8 -1 8 -8v-784q0 -8 -8 -8h-144q-8 0 -8 8v784q1 8 8 8zM547 1192v-5l131 -89q17 -18 42 -18t43 18q16 16 17 40h120q-1 -73 -53 -125q-53 -53 -127 -53q-35 0 -65 11v1l-131 90l-1 2q-18 16 -43 16t-42 -16q-16 -16 -18 -36h-120q2 69 53 120q53 52 127 52
q36 0 66 -12q0 2 1 4z" />
    <glyph glyph-name="Imacron" unicode="&#x12a;" 
d="M527 1283h144q8 -1 8 -8v-1264q0 -8 -8 -8h-144q-8 0 -8 8v1264q1 8 8 8zM900 1500h-600v100h600v-100z" />
    <glyph glyph-name="imacron" unicode="&#x12b;" 
d="M548 800h144q8 -1 8 -8v-784q0 -8 -8 -8h-144q-8 0 -8 8v784q1 8 8 8zM900 1000h-600v100h600v-100z" />
    <glyph glyph-name="Ibreve" unicode="&#x12c;" 
d="M527 1283h144q8 -1 8 -8v-1264q0 -8 -8 -8h-144q-8 0 -8 8v1264q1 8 8 8zM800 1600h100q0 -83 -88 -141.5t-212 -58.5t-212 58.5t-88 141.5h100q0 -41 58.5 -70.5t141.5 -29.5t141.5 29.5t58.5 70.5z" />
    <glyph glyph-name="ibreve" unicode="&#x12d;" 
d="M548 800h144q8 -1 8 -8v-784q0 -8 -8 -8h-144q-8 0 -8 8v784q1 8 8 8zM825 1200h100q0 -83 -88 -141.5t-212 -58.5t-212 58.5t-88 141.5h100q0 -41 58.5 -70.5t141.5 -29.5t141.5 29.5t58.5 70.5z" />
    <glyph glyph-name="Iogonek" unicode="&#x12e;" 
d="M527 1283h144q8 -1 8 -8v-1264q0 -8 -8 -8h-144q-8 0 -8 8v1264q1 8 8 8zM620 56q38 0 48 -52q0 -32 -64 -60q-20 -21 -32 -52q-50 -37 -72 -156v-36h40q57 0 116 24q38 0 48 -52q0 -65 -148 -72h-60q-69 0 -96 80v76q21 112 68 172q7 0 48 72q50 56 104 56z" />
    <glyph glyph-name="iogonek" unicode="&#x12f;" 
d="M612 1280h4q84 -16 84 -76q-15 -84 -76 -84q-84 15 -84 64v24q17 72 72 72zM548 800h144q8 -1 8 -8v-784q0 -8 -8 -8h-144q-8 0 -8 8v784q1 8 8 8zM689 56q38 0 48 -52q0 -32 -64 -60q-20 -21 -32 -52q-50 -37 -72 -156v-36h40q57 0 116 24q38 0 48 -52q0 -65 -148 -72
h-60q-69 0 -96 80v76q21 112 68 172q7 0 48 72q50 56 104 56z" />
    <glyph glyph-name="Idotaccent" unicode="&#x130;" 
d="M527 1283h144q8 -1 8 -8v-1264q0 -8 -8 -8h-144q-8 0 -8 8v1264q1 8 8 8zM600 1400q-41 0 -70.5 29.5t-29.5 70.5t29.5 70.5t70.5 29.5t70.5 -29.5t29.5 -70.5t-29.5 -70.5t-70.5 -29.5z" />
    <glyph glyph-name="dotlessi" unicode="&#x131;" 
d="M548 800h144q8 -1 8 -8v-784q0 -8 -8 -8h-144q-8 0 -8 8v784q1 8 8 8z" />
    <glyph glyph-name="IJ" unicode="&#x132;" 
d="M49 0v148h136v987h-136v148h469v-148h-136v-987h136v-148h-469zM925 1135h-247v148h445v-750v-183q0 -176 -86 -270.5t-245 -94.5q-55 0 -138 15v159q90 -26 137 -26q134 0 134 193v809z" />
    <glyph glyph-name="ij" unicode="&#x133;" 
d="M259 0v938h-197v148h395v-1086h-198zM235 1332v247h246v-247h-246zM1037 1086v-1086q0 -419 -354 -419q-106 0 -226 50v156q137 -58 210 -58q82 0 127 44q30 30 37.5 68t7.5 159v938h-197v148h395zM815 1332v247h246v-247h-246z" />
    <glyph glyph-name="Jcircumflex" unicode="&#x134;" 
d="M748 1280h144q8 -1 8 -8v-968q0 -216 -260 -300q-42 -4 -68 -4q-220 0 -304 256q-4 21 -4 48v8q1 8 8 8h136q11 -4 40 -96q60 -64 140 -64q103 0 140 100q12 43 12 72v940q1 8 8 8zM500 1600h200l200 -200h-100l-200 133l-200 -133h-100z" />
    <glyph glyph-name="jcircumflex" unicode="&#x135;" 
d="M300 1000l241 321h218l241 -321h-149l-200 202h-2l-201 -202h-148zM648 788h144q8 -1 8 -8v-980q0 -91 -88 -116q-53 -16 -88 -16h-136q-8 0 -8 8v144q1 8 8 8h152v952q1 8 8 8z" />
    <glyph glyph-name="uni0136" unicode="&#x136;" 
d="M268 1280h144q8 -1 8 -8v-624h4l316 628l8 4h144q8 0 8 -12q-300 -604 -300 -612v-16q194 0 292 -240q8 -48 8 -76v-316q0 -8 -8 -8h-144q-8 0 -8 8v312q0 111 -116 156q-7 4 -16 4h-188v-472q0 -8 -8 -8h-144q-8 0 -8 8v1264q1 8 8 8zM856 104q38 0 48 -52
q0 -14 -56 -104q0 -4 4 -4q75 -27 120 -92q19 0 28 -120v-44q0 -57 -80 -76h-52q-15 -12 -36 -12q-244 47 -244 132q10 48 56 48q21 0 52 -36q49 -20 124 -40q30 8 56 8h24v8q-5 96 -40 96q0 20 -40 28h-40q-56 6 -56 52q12 33 24 92q73 116 100 116h8z" />
    <glyph glyph-name="uni0137" unicode="&#x137;" 
d="M260 1280h144q8 -1 8 -8v-792l324 320h164v-4l-316 -320q149 0 260 -104q48 -56 48 -140v-224q0 -8 -8 -8h-144q-8 0 -8 8v220q0 92 -160 92h-160v-312q0 -8 -8 -8h-144q-8 0 -8 8v1264q1 8 8 8zM856 104q38 0 48 -52q0 -14 -56 -104q0 -4 4 -4q75 -27 120 -92
q19 0 28 -120v-44q0 -57 -80 -76h-52q-15 -12 -36 -12q-244 47 -244 132q10 48 56 48q21 0 52 -36q49 -20 124 -40q30 8 56 8h24v8q-5 96 -40 96q0 20 -40 28h-40q-56 6 -56 52q12 33 24 92q73 116 100 116h8z" />
    <glyph glyph-name="kgreenlandic" unicode="&#x138;" 
d="M272 800h136q6 0 12 -12v-308q268 260 328 320h144q8 -1 8 -8q-264 -264 -304 -312q117 -11 224 -76q80 -65 80 -172v-224q0 -8 -8 -8h-144q-8 0 -8 8v220q0 92 -160 92h-160v-312q0 -8 -8 -8h-144q-8 0 -8 8v780q0 6 12 12z" />
    <glyph glyph-name="Lacute" unicode="&#x139;" 
d="M268 1280h144q8 -1 8 -8v-1112h472q8 -1 8 -8v-144q0 -8 -8 -8h-624q-8 0 -8 8v1264q1 8 8 8zM289 1400l300 200h200l-400 -200h-100z" />
    <glyph glyph-name="lacute" unicode="&#x13a;" 
d="M900 900l72 400h228l-200 -400h-100zM488 1280h304q8 -1 8 -8v-1264q0 -8 -8 -8h-144q-8 0 -8 8v1112h-152q-8 0 -8 8v144q1 8 8 8z" />
    <glyph glyph-name="uni013B" unicode="&#x13b;" 
d="M268 1280h144q8 -1 8 -8v-1112h472q8 -1 8 -8v-144q0 -8 -8 -8h-624q-8 0 -8 8v1264q1 8 8 8zM658 92q38 0 48 -52q0 -14 -56 -104q0 -4 4 -4q75 -27 120 -92q19 0 28 -120v-44q0 -57 -80 -76h-52q-15 -12 -36 -12q-244 47 -244 132q10 48 56 48q21 0 52 -36
q49 -20 124 -40q30 8 56 8h24v8q-5 96 -40 96q0 20 -40 28h-40q-56 6 -56 52q12 33 24 92q73 116 100 116h8z" />
    <glyph glyph-name="uni013C" unicode="&#x13c;" 
d="M488 1280h304q8 -1 8 -8v-1264q0 -8 -8 -8h-144q-8 0 -8 8v1112h-152q-8 0 -8 8v144q1 8 8 8zM756 104q38 0 48 -52q0 -14 -56 -104q0 -4 4 -4q75 -27 120 -92q19 0 28 -120v-44q0 -57 -80 -76h-52q-15 -12 -36 -12q-244 47 -244 132q10 48 56 48q21 0 52 -36
q49 -20 124 -40q30 8 56 8h24v8q-5 96 -40 96q0 20 -40 28h-40q-56 6 -56 52q12 33 24 92q73 116 100 116h8z" />
    <glyph glyph-name="Lcaron" unicode="&#x13d;" 
d="M222 0v1283h197v-1135h691v-148h-888zM716 851v60q76 21 76 158v17h-76v197h197v-171q0 -241 -197 -261z" />
    <glyph glyph-name="lcaron" unicode="&#x13e;" 
d="M518 0v1431h-370v148h567v-1579h-197zM913 1147v60q76 21 76 158v17h-76v197h197v-171q0 -241 -197 -261z" />
    <glyph glyph-name="Ldot" unicode="&#x13f;" 
d="M268 1280h144q8 -1 8 -8v-1112h472q8 -1 8 -8v-144q0 -8 -8 -8h-624q-8 0 -8 8v1264q1 8 8 8zM921 648q-41 0 -70.5 29.5t-29.5 70.5t29.5 70.5t70.5 29.5t70.5 -29.5t29.5 -70.5t-29.5 -70.5t-70.5 -29.5z" />
    <glyph glyph-name="ldot" unicode="&#x140;" 
d="M488 1280h304q8 -1 8 -8v-1264q0 -8 -8 -8h-144q-8 0 -8 8v1112h-152q-8 0 -8 8v144q1 8 8 8zM1100 697q-41 0 -70.5 29.5t-29.5 70.5t29.5 70.5t70.5 29.5t70.5 -29.5t29.5 -70.5t-29.5 -70.5t-70.5 -29.5z" />
    <glyph glyph-name="Lslash" unicode="&#x141;" 
d="M231 704v583q1 13 13 13h136q13 -2 13 -13v-476l246 164v-162l-246 -165v-485h475q13 -2 13 -13v-137q0 -13 -13 -13h-624q-13 0 -13 13v528l-80 -53v162z" />
    <glyph glyph-name="lslash" unicode="&#x142;" 
d="M637 808v330h-149q-13 0 -13 13v136q1 13 13 13h299q13 -2 13 -13v-370l88 58v-162l-88 -59v-741q0 -13 -13 -13h-137q-13 0 -13 13v632l-237 -157v162z" />
    <glyph glyph-name="Nacute" unicode="&#x143;" 
d="M748 1280h144q8 -1 8 -8v-1260h-8l-468 828h-4v-832q0 -8 -8 -8h-144q-8 0 -8 8v1264h8q463 -819 472 -824v824q1 8 8 8zM524 1400l300 200h200l-400 -200h-100z" />
    <glyph glyph-name="nacute" unicode="&#x144;" 
d="M252 800h4l476 -472v464q1 8 8 8h152q8 -1 8 -8v-788h-4l-476 472v-468q0 -8 -8 -8h-152q-8 0 -8 8v792zM596 1000h-100l200 300h200z" />
    <glyph glyph-name="uni0145" unicode="&#x145;" 
d="M748 1280h144q8 -1 8 -8v-1260h-8l-468 828h-4v-832q0 -8 -8 -8h-144q-8 0 -8 8v1264h8q463 -819 472 -824v824q1 8 8 8zM868 104q38 0 48 -52q0 -14 -56 -104q0 -4 4 -4q75 -27 120 -92q19 0 28 -120v-44q0 -57 -80 -76h-52q-15 -12 -36 -12q-244 47 -244 132
q10 48 56 48q21 0 52 -36q49 -20 124 -40q30 8 56 8h24v8q-5 96 -40 96q0 20 -40 28h-40q-56 6 -56 52q12 33 24 92q73 116 100 116h8z" />
    <glyph glyph-name="uni0146" unicode="&#x146;" 
d="M252 800h4l476 -472v464q1 8 8 8h152q8 -1 8 -8v-788h-4l-476 472v-468q0 -8 -8 -8h-152q-8 0 -8 8v792zM868 104q38 0 48 -52q0 -14 -56 -104q0 -4 4 -4q75 -27 120 -92q19 0 28 -120v-44q0 -57 -80 -76h-52q-15 -12 -36 -12q-244 47 -244 132q10 48 56 48q21 0 52 -36
q49 -20 124 -40q30 8 56 8h24v8q-5 96 -40 96q0 20 -40 28h-40q-56 6 -56 52q12 33 24 92q73 116 100 116h8z" />
    <glyph glyph-name="Ncaron" unicode="&#x147;" 
d="M748 1280h144q8 -1 8 -8v-1260h-8l-468 828h-4v-832q0 -8 -8 -8h-144q-8 0 -8 8v1264h8q463 -819 472 -824v824q1 8 8 8zM500 1400l-200 200h100l200 -133l200 133h100l-200 -200h-200z" />
    <glyph glyph-name="ncaron" unicode="&#x148;" 
d="M252 800h4l476 -472v464q1 8 8 8h152q8 -1 8 -8v-788h-4l-476 472v-468q0 -8 -8 -8h-152q-8 0 -8 8v792zM500 1000l-200 300h100l202 -198l198 198h100l-200 -300h-200z" />
    <glyph glyph-name="napostrophe" unicode="&#x149;" 
d="M252 800h4l476 -472v464q1 8 8 8h152q8 -1 8 -8v-788h-4l-476 472v-468q0 -8 -8 -8h-152q-8 0 -8 8v792zM700 1194q-2 -37 -29 -64q-11 -14 -17 -21l-154 -209l62 205q-15 7 -32 25q-30 29 -30 70t29.5 70.5t70.5 29.5t70.5 -29.5t29.5 -70.5v-6z" />
    <glyph glyph-name="Eng" unicode="&#x14a;" 
d="M148 0v1287h186l589 -933h2v929h161v-1283v-55q0 -365 -322 -365q-73 0 -147 21v154q61 -27 157 -27q81 0 115 49.5t34 167.5v19l-19 36l-593 940h-3v-940h-160z" />
    <glyph glyph-name="eng" unicode="&#x14b;" 
d="M182 0v1086h197v-204q136 228 370 228q309 0 309 -367v-743v-92q0 -154 -85 -241t-236 -87q-73 0 -148 21v154q62 -27 125 -27q80 0 113.5 50t33.5 167v744q0 127 -39.5 180.5t-132.5 53.5q-148 0 -310 -213v-710h-197z" />
    <glyph glyph-name="Omacron" unicode="&#x14c;" 
d="M584 1280q198 0 296 -420q12 -53 20 -220q0 -396 -204 -600q-59 -40 -124 -40q-197 0 -296 420q-16 96 -16 180v80q0 311 164 524q70 76 160 76zM420 672v-76q27 -436 164 -436q98 0 148 340l8 140q-25 480 -168 480q-95 0 -144 -320q-8 -41 -8 -128zM900 1500h-600v100
h600v-100z" />
    <glyph glyph-name="omacron" unicode="&#x14d;" 
d="M592 800q223 0 304 -332q4 -45 4 -84q0 -269 -256 -376q-32 -8 -68 -8q-236 0 -312 336q-4 29 -4 76q0 276 256 380q32 8 76 8zM420 408v-16q0 -198 160 -232q160 34 160 232v16q0 198 -160 232q-160 -34 -160 -232zM900 1315h-600v100h600v-100z" />
    <glyph glyph-name="Obreve" unicode="&#x14e;" 
d="M584 1280q198 0 296 -420q12 -53 20 -220q0 -396 -204 -600q-59 -40 -124 -40q-197 0 -296 420q-16 96 -16 180v80q0 311 164 524q70 76 160 76zM420 672v-76q27 -436 164 -436q98 0 148 340l8 140q-25 480 -168 480q-95 0 -144 -320q-8 -41 -8 -128zM800 1600h100
q0 -83 -88 -141.5t-212 -58.5t-212 58.5t-88 141.5h100q0 -41 58.5 -70.5t141.5 -29.5t141.5 29.5t58.5 70.5z" />
    <glyph glyph-name="obreve" unicode="&#x14f;" 
d="M592 800q223 0 304 -332q4 -45 4 -84q0 -269 -256 -376q-32 -8 -68 -8q-236 0 -312 336q-4 29 -4 76q0 276 256 380q32 8 76 8zM420 408v-16q0 -198 160 -232q160 34 160 232v16q0 198 -160 232q-160 -34 -160 -232zM800 1200h100q0 -83 -88 -141.5t-212 -58.5t-212 58.5
t-88 141.5h100q0 -41 58.5 -70.5t141.5 -29.5t141.5 29.5t58.5 70.5z" />
    <glyph glyph-name="Ohungarumlaut" unicode="&#x150;" 
d="M584 1280q198 0 296 -420q12 -53 20 -220q0 -396 -204 -600q-59 -40 -124 -40q-197 0 -296 420q-16 96 -16 180v80q0 311 164 524q70 76 160 76zM420 672v-76q27 -436 164 -436q98 0 148 340l8 140q-25 480 -168 480q-95 0 -144 -320q-8 -41 -8 -128zM333 1394l222 222
h198l-296 -222h-124zM703 1394l222 222h198l-296 -222h-124z" />
    <glyph glyph-name="ohungarumlaut" unicode="&#x151;" 
d="M592 800q223 0 304 -332q4 -45 4 -84q0 -269 -256 -376q-32 -8 -68 -8q-236 0 -312 336q-4 29 -4 76q0 276 256 380q32 8 76 8zM420 408v-16q0 -198 160 -232q160 34 160 232v16q0 198 -160 232q-160 -34 -160 -232zM436 1000h-100l200 300h100zM736 1000h-100l200 300
h100z" />
    <glyph glyph-name="OE" unicode="&#x152;" 
d="M377 1280q74 0 152 -80v68q0 6 12 12h620q8 -1 8 -8v-144q0 -8 -8 -8h-472v-480h472q8 -1 8 -8v-144q0 -8 -8 -8h-472v-320h472q8 -1 8 -8v-144q0 -8 -8 -8h-624q-8 0 -8 8v72q-74 -80 -160 -80q-206 0 -300 416q-20 116 -20 224q0 407 208 604q60 36 120 36zM209 636
q0 -325 120 -464q29 -12 36 -12h4q119 0 156 384q4 0 4 76v40q0 300 -112 440q-22 20 -48 20h-4q-107 0 -152 -376q-4 -62 -4 -108z" />
    <glyph glyph-name="oe" unicode="&#x153;" 
d="M372 800q129 0 232 -132q114 132 244 132q233 0 312 -332q4 -44 4 -80v-28q0 -31 -20 -40h-448q40 -160 148 -160h240q8 -1 8 -8q-94 -152 -252 -152q-150 0 -232 136q-101 -136 -248 -136q-212 0 -304 284q-12 61 -12 116q0 280 236 388q40 12 92 12zM204 400
q0 -170 120 -232q16 -8 44 -8q105 0 152 180q4 35 4 60q0 170 -120 232q-16 8 -44 8q-108 0 -152 -184q-4 -25 -4 -56zM696 428h296q-40 212 -148 212q-106 0 -148 -212z" />
    <glyph glyph-name="Racute" unicode="&#x154;" 
d="M268 1288h252q223 0 288 -100q92 -95 92 -236v-144q0 -235 -256 -316q-56 -3 -56 -8q110 -170 312 -472v-4q0 -8 -8 -8h-144q-43 47 -184 268l-140 212h-4v-464q0 -8 -8 -8h-144q-8 0 -8 8v1264q1 8 8 8zM420 1128v-480h168q112 0 152 132v180q0 127 -132 168h-188z
M461 1400l300 200h200l-400 -200h-100z" />
    <glyph glyph-name="racute" unicode="&#x155;" 
d="M268 800h148q8 -1 8 -8v-40h4q17 39 160 48q228 0 308 -260q4 -25 4 -56l-8 -4h-140q-6 1 -36 92q-56 68 -140 68q-156 0 -156 -204v-428q0 -8 -8 -8h-144q-8 0 -8 8v784q1 8 8 8zM623 1000h-100l200 300h200z" />
    <glyph glyph-name="uni0156" unicode="&#x156;" 
d="M268 1288h252q223 0 288 -100q92 -95 92 -236v-144q0 -235 -256 -316q-56 -3 -56 -8q110 -170 312 -472v-4q0 -8 -8 -8h-144q-43 47 -184 268l-140 212h-4v-464q0 -8 -8 -8h-144q-8 0 -8 8v1264q1 8 8 8zM420 1128v-480h168q112 0 152 132v180q0 127 -132 168h-188z
M768 104q38 0 48 -52q0 -14 -56 -104q0 -4 4 -4q75 -27 120 -92q19 0 28 -120v-44q0 -57 -80 -76h-52q-15 -12 -36 -12q-244 47 -244 132q10 48 56 48q21 0 52 -36q49 -20 124 -40q30 8 56 8h24v8q-5 96 -40 96q0 20 -40 28h-40q-56 6 -56 52q12 33 24 92q73 116 100 116h8z
" />
    <glyph glyph-name="uni0157" unicode="&#x157;" 
d="M268 800h148q8 -1 8 -8v-40h4q17 39 160 48q228 0 308 -260q4 -25 4 -56l-8 -4h-140q-6 1 -36 92q-56 68 -140 68q-156 0 -156 -204v-428q0 -8 -8 -8h-144q-8 0 -8 8v784q1 8 8 8zM454 92q38 0 48 -52q0 -14 -56 -104q0 -4 4 -4q75 -27 120 -92q19 0 28 -120v-44
q0 -57 -80 -76h-52q-15 -12 -36 -12q-244 47 -244 132q10 48 56 48q21 0 52 -36q49 -20 124 -40q30 8 56 8h24v8q-5 96 -40 96q0 20 -40 28h-40q-56 6 -56 52q12 33 24 92q73 116 100 116h8z" />
    <glyph glyph-name="Rcaron" unicode="&#x158;" 
d="M268 1288h252q223 0 288 -100q92 -95 92 -236v-144q0 -235 -256 -316q-56 -3 -56 -8q110 -170 312 -472v-4q0 -8 -8 -8h-144q-43 47 -184 268l-140 212h-4v-464q0 -8 -8 -8h-144q-8 0 -8 8v1264q1 8 8 8zM420 1128v-480h168q112 0 152 132v180q0 127 -132 168h-188z
M450 1400l-200 200h100l200 -133l200 133h100l-200 -200h-200z" />
    <glyph glyph-name="rcaron" unicode="&#x159;" 
d="M268 800h148q8 -1 8 -8v-40h4q17 39 160 48q228 0 308 -260q4 -25 4 -56l-8 -4h-140q-6 1 -36 92q-56 68 -140 68q-156 0 -156 -204v-428q0 -8 -8 -8h-144q-8 0 -8 8v784q1 8 8 8zM566 1000l-200 300h100l202 -198l198 198h100l-200 -300h-200z" />
    <glyph glyph-name="Sacute" unicode="&#x15a;" 
d="M588 1280q233 0 308 -336q4 -1 4 -40v-12q0 -8 -8 -8h-136q-13 17 -48 152q-62 84 -120 84q-102 0 -156 -140q-8 -37 -12 -100q0 -185 136 -236q221 0 308 -180q36 -61 36 -132v-28q0 -216 -260 -300q-42 -4 -68 -4q-220 0 -304 256q-4 21 -4 48v8q1 8 8 8h136
q11 -4 40 -96q60 -64 140 -64q103 0 140 100q12 43 12 72v4q0 103 -136 144q-242 0 -328 276q-12 55 -16 132q0 271 248 380q29 12 80 12zM495 1400l300 200h200l-400 -200h-100z" />
    <glyph glyph-name="sacute" unicode="&#x15b;" 
d="M584 800q218 0 308 -180q8 -38 8 -60l-8 -4l-128 2q-11 42 -14 60q-50 56 -170 60q-160 -13 -160 -122q0 -66 180 -98q238 -16 292 -158q8 -38 8 -60q0 -168 -236 -232q-34 -8 -88 -8q-193 0 -292 148q-24 41 -24 84l8 4h144q35 -120 170 -122q165 -14 158 114v16
q42 76 -196 126q-212 42 -274 150q-10 18 -10 40q0 168 236 232q34 8 88 8zM596 1000h-100l200 300h200z" />
    <glyph glyph-name="Scircumflex" unicode="&#x15c;" 
d="M588 1280q233 0 308 -336q4 -1 4 -40v-12q0 -8 -8 -8h-136q-13 17 -48 152q-62 84 -120 84q-102 0 -156 -140q-8 -37 -12 -100q0 -185 136 -236q221 0 308 -180q36 -61 36 -132v-28q0 -216 -260 -300q-42 -4 -68 -4q-220 0 -304 256q-4 21 -4 48v8q1 8 8 8h136
q11 -4 40 -96q60 -64 140 -64q103 0 140 100q12 43 12 72v4q0 103 -136 144q-242 0 -328 276q-12 55 -16 132q0 271 248 380q29 12 80 12zM521 1600h200l200 -200h-100l-200 133l-200 -133h-100z" />
    <glyph glyph-name="scircumflex" unicode="&#x15d;" 
d="M584 800q218 0 308 -180q8 -38 8 -60l-8 -4l-128 2q-11 42 -14 60q-50 56 -170 60q-160 -13 -160 -122q0 -66 180 -98q238 -16 292 -158q8 -38 8 -60q0 -168 -236 -232q-34 -8 -88 -8q-193 0 -292 148q-24 41 -24 84l8 4h144q35 -120 170 -122q165 -14 158 114v16
q42 76 -196 126q-212 42 -274 150q-10 18 -10 40q0 168 236 232q34 8 88 8zM531 1300h200l200 -300h-100l-198 198l-202 -198h-100z" />
    <glyph glyph-name="Scedilla" unicode="&#x15e;" 
d="M588 1280q233 0 308 -336q4 -1 4 -40v-12q0 -8 -8 -8h-136q-13 17 -48 152q-62 84 -120 84q-102 0 -156 -140q-8 -37 -12 -100q0 -185 136 -236q221 0 308 -180q36 -61 36 -132v-28q0 -216 -260 -300q-42 -4 -68 -4q-220 0 -304 256q-4 21 -4 48v8q1 8 8 8h136
q11 -4 40 -96q60 -64 140 -64q103 0 140 100q12 43 12 72v4q0 103 -136 144q-242 0 -328 276q-12 55 -16 132q0 271 248 380q29 12 80 12zM637 92q38 0 48 -52q0 -14 -56 -104q0 -4 4 -4q75 -27 120 -92q19 0 28 -120v-44q0 -57 -80 -76h-52q-15 -12 -36 -12
q-244 47 -244 132q10 48 56 48q21 0 52 -36q49 -20 124 -40q30 8 56 8h24v8q-5 96 -40 96q0 20 -40 28h-40q-56 6 -56 52q12 33 24 92q73 116 100 116h8z" />
    <glyph glyph-name="scedilla" unicode="&#x15f;" 
d="M584 800q218 0 308 -180q8 -38 8 -60l-8 -4l-128 2q-11 42 -14 60q-50 56 -170 60q-160 -13 -160 -122q0 -66 180 -98q238 -16 292 -158q8 -38 8 -60q0 -168 -236 -232q-34 -8 -88 -8q-193 0 -292 148q-24 41 -24 84l8 4h144q35 -120 170 -122q165 -14 158 114v16
q42 76 -196 126q-212 42 -274 150q-10 18 -10 40q0 168 236 232q34 8 88 8zM627 92q38 0 48 -52q0 -14 -56 -104q0 -4 4 -4q75 -27 120 -92q19 0 28 -120v-44q0 -57 -80 -76h-52q-15 -12 -36 -12q-244 47 -244 132q10 48 56 48q21 0 52 -36q49 -20 124 -40q30 8 56 8h24v8
q-5 96 -40 96q0 20 -40 28h-40q-56 6 -56 52q12 33 24 92q73 116 100 116h8z" />
    <glyph glyph-name="Scaron" unicode="&#x160;" 
d="M588 1280q233 0 308 -336q4 -1 4 -40v-12q0 -8 -8 -8h-136q-13 17 -48 152q-62 84 -120 84q-102 0 -156 -140q-8 -37 -12 -100q0 -185 136 -236q221 0 308 -180q36 -61 36 -132v-28q0 -216 -260 -300q-42 -4 -68 -4q-220 0 -304 256q-4 21 -4 48v8q1 8 8 8h136
q11 -4 40 -96q60 -64 140 -64q103 0 140 100q12 43 12 72v4q0 103 -136 144q-242 0 -328 276q-12 55 -16 132q0 271 248 380q29 12 80 12zM509 1400l-200 200h100l200 -133l200 133h100l-200 -200h-200z" />
    <glyph glyph-name="scaron" unicode="&#x161;" 
d="M584 800q218 0 308 -180q8 -38 8 -60l-8 -4l-128 2q-11 42 -14 60q-50 56 -170 60q-160 -13 -160 -122q0 -66 180 -98q238 -16 292 -158q8 -38 8 -60q0 -168 -236 -232q-34 -8 -88 -8q-193 0 -292 148q-24 41 -24 84l8 4h144q35 -120 170 -122q165 -14 158 114v16
q42 76 -196 126q-212 42 -274 150q-10 18 -10 40q0 168 236 232q34 8 88 8zM528 1000l-200 300h100l202 -198l198 198h100l-200 -300h-200z" />
    <glyph glyph-name="uni0162" unicode="&#x162;" 
d="M268 1280h624q8 -1 8 -8v-144q0 -8 -8 -8h-228v-1112q0 -8 -8 -8h-144q-8 0 -8 8v1112h-236q-8 0 -8 8v144q1 8 8 8zM625 92q38 0 48 -52q0 -14 -56 -104q0 -4 4 -4q75 -27 120 -92q19 0 28 -120v-44q0 -57 -80 -76h-52q-15 -12 -36 -12q-244 47 -244 132q10 48 56 48
q21 0 52 -36q49 -20 124 -40q30 8 56 8h24v8q-5 96 -40 96q0 20 -40 28h-40q-56 6 -56 52q12 33 24 92q73 116 100 116h8z" />
    <glyph glyph-name="uni0163" unicode="&#x163;" 
d="M428 1280h144q8 -1 8 -8v-472h312q8 -1 8 -8v-144q0 -8 -8 -8h-312v-384q0 -82 68 -96h20q36 0 88 76h136q8 0 8 -12q-6 -85 -92 -180q-67 -44 -144 -44q-96 0 -200 92q-44 64 -44 156v392h-152q-8 0 -8 8v144q1 8 8 8h152v472q1 8 8 8zM702 92q38 0 48 -52
q0 -14 -56 -104q0 -4 4 -4q75 -27 120 -92q19 0 28 -120v-44q0 -57 -80 -76h-52q-15 -12 -36 -12q-244 47 -244 132q10 48 56 48q21 0 52 -36q49 -20 124 -40q30 8 56 8h24v8q-5 96 -40 96q0 20 -40 28h-40q-56 6 -56 52q12 33 24 92q73 116 100 116h8z" />
    <glyph glyph-name="Tcaron" unicode="&#x164;" 
d="M268 1280h624q8 -1 8 -8v-144q0 -8 -8 -8h-228v-1112q0 -8 -8 -8h-144q-8 0 -8 8v1112h-236q-8 0 -8 8v144q1 8 8 8zM501 1400l-200 200h100l200 -133l200 133h100l-200 -200h-200z" />
    <glyph glyph-name="tcaron" unicode="&#x165;" 
d="M428 1280h144q8 -1 8 -8v-472h312q8 -1 8 -8v-144q0 -8 -8 -8h-312v-384q0 -82 68 -96h20q36 0 88 76h136q8 0 8 -12q-6 -85 -92 -180q-67 -44 -144 -44q-96 0 -200 92q-44 64 -44 156v392h-152q-8 0 -8 8v144q1 8 8 8h152v472q1 8 8 8zM1065 1498q-2 -37 -29 -64
q-11 -14 -17 -21l-154 -209l62 205q-15 7 -32 25q-30 29 -30 70t29.5 70.5t70.5 29.5t70.5 -29.5t29.5 -70.5v-6z" />
    <glyph glyph-name="Tbar" unicode="&#x166;" 
d="M518 0v598h-303v148h303v389h-493v148h1184v-148h-493v-389h303v-148h-303v-598h-198z" />
    <glyph glyph-name="tbar" unicode="&#x167;" 
d="M1102 151v-150q-148 -26 -286 -26q-241 0 -328 86.5t-87 327.5v179h-209v123h209v222h-271v148h271v234h198v-234h481v-148h-481v-222h358v-123h-358v-211q0 -93 11.5 -128t49.5 -61q68 -45 198 -45q123 0 244 28z" />
    <glyph glyph-name="Utilde" unicode="&#x168;" 
d="M268 1280h144q8 -1 8 -8v-924q0 -127 92 -172q27 -16 76 -16q106 0 152 128v984q1 8 8 8h144q8 -1 8 -8v-976q0 -170 -200 -276q-60 -20 -124 -20q-209 0 -304 228q-12 64 -12 124v920q1 8 8 8zM547 1559v-5l131 -89q17 -18 42 -18t43 18q16 16 17 40h120
q-1 -73 -53 -125q-53 -53 -127 -53q-35 0 -65 11v1l-131 90l-1 2q-18 16 -43 16t-42 -16q-16 -16 -18 -36h-120q2 69 53 120q53 52 127 52q36 0 66 -12q0 2 1 4z" />
    <glyph glyph-name="utilde" unicode="&#x169;" 
d="M268 800h144q8 -1 8 -8v-444q0 -127 92 -172q27 -16 76 -16q106 0 152 128v504q1 8 8 8h144q8 -1 8 -8v-496q0 -170 -200 -276q-60 -20 -124 -20q-209 0 -304 228q-12 64 -12 124v440q1 8 8 8zM544 1192v-5l131 -89q17 -18 42 -18t43 18q16 16 17 40h120q-1 -73 -53 -125
q-53 -53 -127 -53q-35 0 -65 11v1l-131 90l-1 2q-18 16 -43 16t-42 -16q-16 -16 -18 -36h-120q2 69 53 120q53 52 127 52q36 0 66 -12q0 2 1 4z" />
    <glyph glyph-name="Umacron" unicode="&#x16a;" 
d="M268 1280h144q8 -1 8 -8v-924q0 -127 92 -172q27 -16 76 -16q106 0 152 128v984q1 8 8 8h144q8 -1 8 -8v-976q0 -170 -200 -276q-60 -20 -124 -20q-209 0 -304 228q-12 64 -12 124v920q1 8 8 8zM900 1400h-600v100h600v-100z" />
    <glyph glyph-name="umacron" unicode="&#x16b;" 
d="M268 800h144q8 -1 8 -8v-444q0 -127 92 -172q27 -16 76 -16q106 0 152 128v504q1 8 8 8h144q8 -1 8 -8v-496q0 -170 -200 -276q-60 -20 -124 -20q-209 0 -304 228q-12 64 -12 124v440q1 8 8 8zM900 1000h-600v100h600v-100z" />
    <glyph glyph-name="Ubreve" unicode="&#x16c;" 
d="M268 1280h144q8 -1 8 -8v-924q0 -127 92 -172q27 -16 76 -16q106 0 152 128v984q1 8 8 8h144q8 -1 8 -8v-976q0 -170 -200 -276q-60 -20 -124 -20q-209 0 -304 228q-12 64 -12 124v920q1 8 8 8zM800 1600h100q0 -83 -88 -141.5t-212 -58.5t-212 58.5t-88 141.5h100
q0 -41 58.5 -70.5t141.5 -29.5t141.5 29.5t58.5 70.5z" />
    <glyph glyph-name="ubreve" unicode="&#x16d;" 
d="M268 800h144q8 -1 8 -8v-444q0 -127 92 -172q27 -16 76 -16q106 0 152 128v504q1 8 8 8h144q8 -1 8 -8v-496q0 -170 -200 -276q-60 -20 -124 -20q-209 0 -304 228q-12 64 -12 124v440q1 8 8 8zM797 1200h100q0 -83 -88 -141.5t-212 -58.5t-212 58.5t-88 141.5h100
q0 -41 58.5 -70.5t141.5 -29.5t141.5 29.5t58.5 70.5z" />
    <glyph glyph-name="Uring" unicode="&#x16e;" 
d="M268 1280h144q8 -1 8 -8v-924q0 -127 92 -172q27 -16 76 -16q106 0 152 128v984q1 8 8 8h144q8 -1 8 -8v-976q0 -170 -200 -276q-60 -20 -124 -20q-209 0 -304 228q-12 64 -12 124v920q1 8 8 8zM580 1266q-75 0 -127.5 53t-52.5 128t52.5 127.5t127.5 52.5t128 -52.5
t53 -127.5t-53 -128t-128 -53zM580 1340q44 0 75.5 31.5t31.5 75.5t-31.5 75t-75.5 31t-75 -31t-31 -75t31 -75.5t75 -31.5z" />
    <glyph glyph-name="uring" unicode="&#x16f;" 
d="M268 800h144q8 -1 8 -8v-444q0 -127 92 -172q27 -16 76 -16q106 0 152 128v504q1 8 8 8h144q8 -1 8 -8v-496q0 -170 -200 -276q-60 -20 -124 -20q-209 0 -304 228q-12 64 -12 124v440q1 8 8 8zM612 930q-77 0 -131 54t-54 131t54 131t131 54t131 -54t54 -131t-54 -131
t-131 -54zM612 1004q46 0 78.5 32.5t32.5 78.5t-32.5 78.5t-78.5 32.5t-78.5 -32.5t-32.5 -78.5t32.5 -78.5t78.5 -32.5z" />
    <glyph glyph-name="Uhungarumlaut" unicode="&#x170;" 
d="M268 1280h144q8 -1 8 -8v-924q0 -127 92 -172q27 -16 76 -16q106 0 152 128v984q1 8 8 8h144q8 -1 8 -8v-976q0 -170 -200 -276q-60 -20 -124 -20q-209 0 -304 228q-12 64 -12 124v920q1 8 8 8zM300 1400l222 222h198l-296 -222h-124zM670 1400l222 222h198l-296 -222
h-124z" />
    <glyph glyph-name="uhungarumlaut" unicode="&#x171;" 
d="M268 800h144q8 -1 8 -8v-444q0 -127 92 -172q27 -16 76 -16q106 0 152 128v504q1 8 8 8h144q8 -1 8 -8v-496q0 -170 -200 -276q-60 -20 -124 -20q-209 0 -304 228q-12 64 -12 124v440q1 8 8 8zM434 1000h-100l200 300h100zM734 1000h-100l200 300h100z" />
    <glyph glyph-name="Uogonek" unicode="&#x172;" 
d="M268 1280h144q8 -1 8 -8v-924q0 -127 92 -172q27 -16 76 -16q106 0 152 128v984q1 8 8 8h144q8 -1 8 -8v-976q0 -170 -200 -276q-60 -20 -124 -20q-209 0 -304 228q-12 64 -12 124v920q1 8 8 8zM593 56q38 0 48 -52q0 -32 -64 -60q-20 -21 -32 -52q-50 -37 -72 -156v-36
h40q57 0 116 24q38 0 48 -52q0 -65 -148 -72h-60q-69 0 -96 80v76q21 112 68 172q7 0 48 72q50 56 104 56z" />
    <glyph glyph-name="uogonek" unicode="&#x173;" 
d="M268 800h144q8 -1 8 -8v-444q0 -127 92 -172q27 -16 76 -16q106 0 152 128v504q1 8 8 8h144q8 -1 8 -8v-496q0 -170 -200 -276q-60 -20 -124 -20q-209 0 -304 228q-12 64 -12 124v440q1 8 8 8zM616 56q38 0 48 -52q0 -32 -64 -60q-20 -21 -32 -52q-50 -37 -72 -156v-36
h40q57 0 116 24q38 0 48 -52q0 -65 -148 -72h-60q-69 0 -96 80v76q21 112 68 172q7 0 48 72q50 56 104 56z" />
    <glyph glyph-name="Wcircumflex" unicode="&#x174;" 
d="M264 1280h148q8 -1 8 -8v-772h4q5 0 116 232q20 38 40 60h4q43 -73 144 -292h8v772q1 8 8 8h148q8 -1 8 -8v-1264q0 -8 -8 -8l-312 472h-8q-277 -437 -308 -472q-8 0 -8 8v1264q1 8 8 8zM509 1600h200l200 -200h-100l-200 133l-200 -133h-100z" />
    <glyph glyph-name="wcircumflex" unicode="&#x175;" 
d="M264 800h148q8 -1 8 -8v-376h4q148 216 152 216h8l148 -216h4v376q1 8 8 8h148q8 -1 8 -8v-784q0 -8 -8 -8l-312 472h-8q-277 -437 -308 -472q-8 0 -8 8v784q1 8 8 8zM515 1300h200l200 -300h-100l-198 198l-202 -198h-100z" />
    <glyph glyph-name="Ycircumflex" unicode="&#x176;" 
d="M260 1280h152q28 -34 104 -364q36 -145 60 -256h8q116 507 156 620h160v-4q-160 -536 -232 -808v-460q0 -8 -8 -8h-152q-8 0 -8 8v444q-28 136 -240 824v4zM533 1600h200l200 -200h-100l-200 133l-200 -133h-100z" />
    <glyph glyph-name="ycircumflex" unicode="&#x177;" 
d="M268 800h144q8 -1 8 -8v-468q0 -121 128 -164h36q106 0 140 96q16 47 16 84v452q1 8 8 8h144q8 -1 8 -8v-864q0 -160 -180 -220q-63 -20 -136 -28l-4 8v136q0 12 128 44q32 32 32 52v120h-4q-74 -40 -156 -40q-238 0 -316 264q-4 31 -4 68v460q1 8 8 8zM528 1300h200
l200 -300h-100l-198 198l-202 -198h-100z" />
    <glyph glyph-name="Ydieresis" unicode="&#x178;" 
d="M260 1280h152q28 -34 104 -364q36 -145 60 -256h8q116 507 156 620h160v-4q-160 -536 -232 -808v-460q0 -8 -8 -8h-152q-8 0 -8 8v444q-28 136 -240 824v4zM400 1400q-41 0 -70.5 29.5t-29.5 70.5t29.5 70.5t70.5 29.5t70.5 -29.5t29.5 -70.5t-29.5 -70.5t-70.5 -29.5z
M800 1400q-41 0 -70.5 29.5t-29.5 70.5t29.5 70.5t70.5 29.5t70.5 -29.5t29.5 -70.5t-29.5 -70.5t-70.5 -29.5z" />
    <glyph glyph-name="Zacute" unicode="&#x179;" 
d="M268 1280h624q8 -1 8 -8v-168q0 -9 -112 -228q-344 -691 -348 -692q-4 0 -4 -4v-20h456q8 -1 8 -8v-144q0 -8 -8 -8h-624q-8 0 -8 8v116q39 132 228 480l252 516h-472q-8 0 -8 8v144q1 8 8 8zM511 1400l300 200h200l-400 -200h-100z" />
    <glyph glyph-name="zacute" unicode="&#x17a;" 
d="M268 800h624q8 -1 8 -8v-156l-472 -476h464q8 -1 8 -8v-144q0 -8 -8 -8h-624q-8 0 -8 8v144q482 485 484 488h-476q-8 0 -8 8v144q1 8 8 8zM587 1000h-100l200 300h200z" />
    <glyph glyph-name="Zdotaccent" unicode="&#x17b;" 
d="M268 1280h624q8 -1 8 -8v-168q0 -9 -112 -228q-344 -691 -348 -692q-4 0 -4 -4v-20h456q8 -1 8 -8v-144q0 -8 -8 -8h-624q-8 0 -8 8v116q39 132 228 480l252 516h-472q-8 0 -8 8v144q1 8 8 8zM621 1400q-41 0 -70.5 29.5t-29.5 70.5t29.5 70.5t70.5 29.5t70.5 -29.5
t29.5 -70.5t-29.5 -70.5t-70.5 -29.5z" />
    <glyph glyph-name="zdotaccent" unicode="&#x17c;" 
d="M268 800h624q8 -1 8 -8v-156l-472 -476h464q8 -1 8 -8v-144q0 -8 -8 -8h-624q-8 0 -8 8v144q482 485 484 488h-476q-8 0 -8 8v144q1 8 8 8zM625 1289q-41 0 -70.5 29.5t-29.5 70.5t29.5 70.5t70.5 29.5t70.5 -29.5t29.5 -70.5t-29.5 -70.5t-70.5 -29.5z" />
    <glyph glyph-name="Zcaron" unicode="&#x17d;" 
d="M268 1280h624q8 -1 8 -8v-168q0 -9 -112 -228q-344 -691 -348 -692q-4 0 -4 -4v-20h456q8 -1 8 -8v-144q0 -8 -8 -8h-624q-8 0 -8 8v116q39 132 228 480l252 516h-472q-8 0 -8 8v144q1 8 8 8zM500 1400l-200 200h100l200 -133l200 133h100l-200 -200h-200z" />
    <glyph glyph-name="zcaron" unicode="&#x17e;" 
d="M268 800h624q8 -1 8 -8v-156l-472 -476h464q8 -1 8 -8v-144q0 -8 -8 -8h-624q-8 0 -8 8v144q482 485 484 488h-476q-8 0 -8 8v144q1 8 8 8zM500 1000l-200 300h100l202 -198l198 198h100l-200 -300h-200z" />
    <glyph glyph-name="longs" unicode="&#x17f;" 
d="M264 900v76q0 216 260 300q42 4 68 4q220 0 304 -256q4 -21 4 -48v-8q-1 -8 -8 -8h-136q-11 4 -40 96q-60 64 -140 64q-103 0 -140 -100q-12 -43 -12 -72v-940q-1 -8 -8 -8h-144q-8 1 -8 8v792h-164v100h164z" />
    <glyph glyph-name="florin" unicode="&#x192;" 
d="M718 1469h252q15 -2 15 -15v-165q0 -16 -15 -16h-102q-173 0 -173 -173v-220h275q15 -2 15 -15v-165q0 -16 -15 -16h-275v-841q-32 -243 -244 -243h-235q-16 0 -16 16v173q2 15 16 15h110q172 0 172 173v707h-282q-16 0 -16 16v165q2 15 16 15h282v370q50 219 220 219z
" />
    <glyph glyph-name="Aringacute" unicode="&#x1fa;" 
d="M588 1280q200 0 296 -212q16 -49 16 -84v-976q0 -8 -8 -8h-144q-8 0 -8 8v472h-320v-472q0 -8 -8 -8h-144q-8 0 -8 8v920q0 250 216 336q52 16 112 16zM420 932v-292h320v340q0 80 -108 132q-28 8 -48 8q-114 0 -160 -124q-4 -41 -4 -64zM400 1300h-100l200 300h200z
M907 1255q-75 0 -127.5 53t-52.5 128t52.5 127.5t127.5 52.5t128 -52.5t53 -127.5t-53 -128t-128 -53zM907 1329q44 0 75.5 31.5t31.5 75.5t-31.5 75t-75.5 31t-75 -31t-31 -75t31 -75.5t75 -31.5z" />
    <glyph glyph-name="aringacute" unicode="&#x1fb;" 
d="M268 800h312q241 0 316 -264q4 -31 4 -68v-460q0 -8 -8 -8h-144q-8 0 -8 32q-74 -32 -160 -32q-138 0 -272 104q-48 65 -48 144q0 152 208 212q75 20 124 20q67 0 148 -32v28q0 121 -128 164h-344q-8 0 -8 8v144q1 8 8 8zM400 223q31 -96 77 -96q41 -27 106 -27
q157 18 157 143v7q-34 109 -115 109q0 12 -68 14q-157 -20 -157 -143v-7zM319 1000h-100l200 300h200zM848 930q-77 0 -131 54t-54 131t54 131t131 54t131 -54t54 -131t-54 -131t-131 -54zM848 1004q46 0 78.5 32.5t32.5 78.5t-32.5 78.5t-78.5 32.5t-78.5 -32.5
t-32.5 -78.5t32.5 -78.5t78.5 -32.5z" />
    <glyph glyph-name="AEacute" unicode="&#x1fc;" 
d="M324 1280h788q8 -1 8 -8v-144q0 -8 -8 -8h-472v-480h472q8 -1 8 -8v-144q0 -8 -8 -8h-472v-320h472q8 -1 8 -8v-144q0 -8 -8 -8h-624q-8 0 -8 8v472h-320v-472q0 -8 -8 -8h-144q-8 0 -8 8v944q0 227 228 316q46 12 96 12zM160 952v-312h320v480h-156q-125 0 -160 -132
q-4 -15 -4 -36zM595 1400l300 200h200l-400 -200h-100z" />
    <glyph glyph-name="aeacute" unicode="&#x1fd;" 
d="M56 800h312q160 0 248 -120h4q111 120 236 120h8q214 0 300 -324q4 -25 4 -56v-64q0 -31 -16 -36h-448q33 -160 148 -160h240l8 -4q-90 -156 -264 -156q-116 0 -204 104q-100 -104 -256 -104q-226 0 -312 168q-12 24 -16 76q0 155 232 228q53 8 92 8q88 0 156 -32v44
q0 99 -120 144q-21 4 -40 4h-312q-8 0 -8 8v144q1 8 8 8zM704 433h292v5q-39 202 -148 202q-108 0 -144 -207zM208 241q0 -92 160 -115q160 17 160 115v12q0 100 -168 114q-125 0 -152 -120v-6zM628 1000h-100l200 300h200z" />
    <glyph glyph-name="Oslashacute" unicode="&#x1fe;" 
d="M448 359q43 -199 135 -199q98 0 148 340l8 140q-3 67 -9 124zM713 887q-42 233 -142 233q-95 0 -144 -320q-8 -41 -8 -128v-76q4 -64 10 -119zM308 301q-18 55 -33 119q-16 96 -16 180v80q0 311 164 524q70 76 160 76q148 0 240 -234l176 254l100 -5l-242 -349
q11 -40 22 -86q12 -53 20 -220q0 -396 -204 -600q-59 -40 -124 -40q-138 0 -228 207l-144 -207h-100zM487 1400l300 200h200l-400 -200h-100z" />
    <glyph glyph-name="oslashacute" unicode="&#x1ff;" 
d="M461 233q40 -56 118 -73q160 34 160 232v16q0 36 -5 67zM711 544q-39 76 -132 96q-160 -34 -160 -232v-16q0 -55 12 -97zM311 189q-29 63 -48 147q-4 29 -4 76q0 276 256 380q32 8 76 8q151 0 237 -152l171 152h100l-241 -214q21 -53 37 -118q4 -45 4 -84
q0 -269 -256 -376q-32 -8 -68 -8q-146 0 -231 129l-145 -129h-100zM586 1000h-100l200 300h200z" />
    <glyph glyph-name="uni0218" unicode="&#x218;" 
d="M588 1280q233 0 308 -336q4 -1 4 -40v-12q0 -8 -8 -8h-136q-13 17 -48 152q-62 84 -120 84q-102 0 -156 -140q-8 -37 -12 -100q0 -185 136 -236q221 0 308 -180q36 -61 36 -132v-28q0 -216 -260 -300q-42 -4 -68 -4q-220 0 -304 256q-4 21 -4 48v8q1 8 8 8h136
q11 -4 40 -96q60 -64 140 -64q103 0 140 100q12 43 12 72v4q0 103 -136 144q-242 0 -328 276q-12 55 -16 132q0 271 248 380q29 12 80 12zM701 -180q-2 -27 -29 -48q-11 -10 -17 -15l-154 -157l62 154q-15 5 -32 18q-30 22 -30 53t29.5 53t70.5 22t70.5 -22t29.5 -53v-5z
" />
    <glyph glyph-name="uni0219" unicode="&#x219;" 
d="M584 800q218 0 308 -180q8 -38 8 -60l-8 -4l-128 2q-11 42 -14 60q-50 56 -170 60q-160 -13 -160 -122q0 -66 180 -98q238 -16 292 -158q8 -38 8 -60q0 -168 -236 -232q-34 -8 -88 -8q-193 0 -292 148q-24 41 -24 84l8 4h144q35 -120 170 -122q165 -14 158 114v16
q42 76 -196 126q-212 42 -274 150q-10 18 -10 40q0 168 236 232q34 8 88 8zM718 -180q-2 -27 -29 -48q-11 -10 -17 -15l-154 -157l62 154q-15 5 -32 18q-30 22 -30 53t29.5 53t70.5 22t70.5 -22t29.5 -53v-5z" />
    <glyph glyph-name="uni021A" unicode="&#x21a;" 
d="M268 1280h624q8 -1 8 -8v-144q0 -8 -8 -8h-228v-1112q0 -8 -8 -8h-144q-8 0 -8 8v1112h-236q-8 0 -8 8v144q1 8 8 8zM700 -180q-2 -27 -29 -48q-11 -10 -17 -15l-154 -157l62 154q-15 5 -32 18q-30 22 -30 53t29.5 53t70.5 22t70.5 -22t29.5 -53v-5z" />
    <glyph glyph-name="uni021B" unicode="&#x21b;" 
d="M428 1280h144q8 -1 8 -8v-472h312q8 -1 8 -8v-144q0 -8 -8 -8h-312v-384q0 -82 68 -96h20q36 0 88 76h136q8 0 8 -12q-6 -85 -92 -180q-67 -44 -144 -44q-96 0 -200 92q-44 64 -44 156v392h-152q-8 0 -8 8v144q1 8 8 8h152v472q1 8 8 8zM781 -180q-2 -27 -29 -48
q-11 -10 -17 -15l-154 -157l62 154q-15 5 -32 18q-30 22 -30 53t29.5 53t70.5 22t70.5 -22t29.5 -53v-5z" />
    <glyph glyph-name="circumflex" unicode="&#x2c6;" 
d="M500 1600h200l200 -200h-100l-200 133l-200 -133h-100z" />
    <glyph glyph-name="caron" unicode="&#x2c7;" 
d="M500 1400l-200 200h100l200 -133l200 133h100l-200 -200h-200z" />
    <glyph glyph-name="uni02C9" unicode="&#x2c9;" 
d="M900 1500h-600v100h600v-100z" />
    <glyph glyph-name="breve" unicode="&#x2d8;" 
d="M800 1600h100q0 -83 -88 -141.5t-212 -58.5t-212 58.5t-88 141.5h100q0 -41 58.5 -70.5t141.5 -29.5t141.5 29.5t58.5 70.5z" />
    <glyph glyph-name="dotaccent" unicode="&#x2d9;" 
d="M600 1400q-41 0 -70.5 29.5t-29.5 70.5t29.5 70.5t70.5 29.5t70.5 -29.5t29.5 -70.5t-29.5 -70.5t-70.5 -29.5z" />
    <glyph glyph-name="ring" unicode="&#x2da;" 
d="M616 1255q-75 0 -127.5 53t-52.5 128t52.5 127.5t127.5 52.5t128 -52.5t53 -127.5t-53 -128t-128 -53zM616 1329q44 0 75.5 31.5t31.5 75.5t-31.5 75t-75.5 31t-75 -31t-31 -75t31 -75.5t75 -31.5z" />
    <glyph glyph-name="ogonek" unicode="&#x2db;" 
d="M620 56q38 0 48 -52q0 -32 -64 -60q-20 -21 -32 -52q-50 -37 -72 -156v-36h40q57 0 116 24q38 0 48 -52q0 -65 -148 -72h-60q-69 0 -96 80v76q21 112 68 172q7 0 48 72q50 56 104 56z" />
    <glyph glyph-name="tilde" unicode="&#x2dc;" 
d="M547 1559v-5l131 -89q17 -18 42 -18t43 18q16 16 17 40h120q-1 -73 -53 -125q-53 -53 -127 -53q-35 0 -65 11v1l-131 90l-1 2q-18 16 -43 16t-42 -16q-16 -16 -18 -36h-120q2 69 53 120q53 52 127 52q36 0 66 -12q0 2 1 4z" />
    <glyph glyph-name="hungarumlaut" unicode="&#x2dd;" 
d="M320 1394l222 222h198l-296 -222h-124zM690 1394l222 222h198l-296 -222h-124z" />
    <glyph glyph-name="uni037E" unicode="&#x37e;" 
d="M650 800q-62 0 -106 44t-44 106t44 106t106 44t106 -44t44 -106t-44 -106t-106 -44zM623 2v2h-13q-39 9 -70 40t-40 70v72q9 39 40 70q44 44 106 44t106 -44t44 -106v-29q0 -422 -296 -438v99q110 13 123 220z" />
    <glyph glyph-name="tonos" unicode="&#x384;" 
d="M543 1283l-25 321h197l-24 -321h-148z" />
    <glyph glyph-name="dieresistonos" unicode="&#x385;" 
d="M222 1283v173h173v-173h-173zM543 1283l-25 321h197l-24 -321h-148zM839 1283v173h173v-173h-173z" />
    <glyph glyph-name="Alphatonos" unicode="&#x386;" 
d="M588 1280q200 0 296 -212q16 -49 16 -84v-976q0 -8 -8 -8h-144q-8 0 -8 8v472h-320v-472q0 -8 -8 -8h-144q-8 0 -8 8v920q0 250 216 336q52 16 112 16zM420 932v-292h320v340q0 80 -108 132q-28 8 -48 8q-114 0 -160 -124q-4 -41 -4 -64zM200 900h-100v400h100v-400z" />
    <glyph glyph-name="anoteleia" unicode="&#x387;" 
d="M493 419v247h247v-247h-247z" />
    <glyph glyph-name="Epsilontonos" unicode="&#x388;" 
d="M268 1280h624q8 -1 8 -8v-144q0 -8 -8 -8h-472v-480h472q8 -1 8 -8v-144q0 -8 -8 -8h-472v-320h472q8 -1 8 -8v-144q0 -8 -8 -8h-624q-8 0 -8 8v1264q1 8 8 8zM100 900h-100v400h100v-400z" />
    <glyph glyph-name="Etatonos" unicode="&#x389;" 
d="M268 1280h144q8 -1 8 -8v-632h320v632q1 8 8 8h144q8 -1 8 -8v-1264q0 -8 -8 -8h-144q-8 0 -8 8v472h-320v-472q0 -8 -8 -8h-144q-8 0 -8 8v1264q1 8 8 8zM100 900h-100v400h100v-400z" />
    <glyph glyph-name="Iotatonos" unicode="&#x38a;" 
d="M320 0v148h321v987h-321v148h839v-148h-321v-987h321v-148h-839zM36 962l-24 321h197l-25 -321h-148z" />
    <glyph glyph-name="Omicrontonos" unicode="&#x38c;" 
d="M160 642q0 310 139.5 491t379.5 181q239 0 378.5 -181t139.5 -491q0 -311 -139.5 -492t-378.5 -181q-240 0 -379.5 181t-139.5 492zM370 642q0 -525 309 -525q308 0 308 525q0 524 -308 524q-309 0 -309 -524zM25 962l-25 321h160l-24 -321h-111z" />
    <glyph glyph-name="Upsilontonos" unicode="&#x38e;" 
d="M591 0v381q0 279 -94 478t-250 251v173q158 0 292.5 -157t178.5 -392q61 191 203 351t279 193l9 2v-148l-9 -5q-180 -98 -295.5 -307.5t-115.5 -439.5v-380h-198zM25 962l-25 321h160l-24 -321h-111z" />
    <glyph glyph-name="Omegatonos" unicode="&#x38f;" 
d="M610 148v-148h-438v148h277q-278 328 -278 597q0 201 111 362q142 207 408 207q267 0 409 -207q111 -161 111 -361q0 -269 -278 -598h277v-148h-438v148q136 172 182.5 291.5t46.5 300.5q0 200 -82 313t-228 113q-145 0 -227 -113t-82 -313q0 -180 46.5 -300t182.5 -292z
M24 962l-24 321h160l-25 -321h-111z" />
    <glyph glyph-name="iotadieresistonos" unicode="&#x390;" 
d="M1036 27q-136 -52 -275 -52q-201 0 -277.5 88t-76.5 319v704h197v-685q0 -179 33.5 -229t154.5 -50q109 0 244 53v-148zM115 1283v173h173v-173h-173zM436 1283l-25 321h197l-24 -321h-148zM732 1283v173h173v-173h-173z" />
    <glyph glyph-name="Alpha" unicode="&#x391;" 
d="M588 1280q200 0 296 -212q16 -49 16 -84v-976q0 -8 -8 -8h-144q-8 0 -8 8v472h-320v-472q0 -8 -8 -8h-144q-8 0 -8 8v920q0 250 216 336q52 16 112 16zM420 932v-292h320v340q0 80 -108 132q-28 8 -48 8q-114 0 -160 -124q-4 -41 -4 -64z" />
    <glyph glyph-name="Beta" unicode="&#x392;" 
d="M268 1280h320q211 0 296 -280q16 -55 16 -100v-28q0 -186 -124 -308q55 -20 104 -120q20 -55 20 -108v-32q0 -214 -256 -300q-31 -4 -68 -4h-308q-8 0 -8 8v1264q1 8 8 8zM420 1120v-480h128q163 0 192 216v24q0 111 -80 208q-38 32 -96 32h-144zM420 480v-320h112
q156 0 196 100l12 72q0 97 -136 144q-46 4 -88 4h-96z" />
    <glyph glyph-name="Gamma" unicode="&#x393;" 
d="M268 1280h624q8 -1 8 -8v-144q0 -8 -8 -8h-472v-1112q0 -8 -8 -8h-144q-8 0 -8 8v1264q1 8 8 8z" />
    <glyph glyph-name="uni0394" unicode="&#x394;" 
d="M947 200l-347 776l-300 -776h647zM1200 0h-1171l571 1317z" />
    <glyph glyph-name="Epsilon" unicode="&#x395;" 
d="M268 1280h624q8 -1 8 -8v-144q0 -8 -8 -8h-472v-480h472q8 -1 8 -8v-144q0 -8 -8 -8h-472v-320h472q8 -1 8 -8v-144q0 -8 -8 -8h-624q-8 0 -8 8v1264q1 8 8 8z" />
    <glyph glyph-name="Zeta" unicode="&#x396;" 
d="M268 1280h624q8 -1 8 -8v-168q0 -9 -112 -228q-344 -691 -348 -692q-4 0 -4 -4v-20h456q8 -1 8 -8v-144q0 -8 -8 -8h-624q-8 0 -8 8v116q39 132 228 480l252 516h-472q-8 0 -8 8v144q1 8 8 8z" />
    <glyph glyph-name="Eta" unicode="&#x397;" 
d="M268 1280h144q8 -1 8 -8v-632h320v632q1 8 8 8h144q8 -1 8 -8v-1264q0 -8 -8 -8h-144q-8 0 -8 8v472h-320v-472q0 -8 -8 -8h-144q-8 0 -8 8v1264q1 8 8 8z" />
    <glyph glyph-name="Theta" unicode="&#x398;" 
d="M740 600h-285v100h285v-100zM595 170q101 0 172.5 143t71.5 345t-71.5 345t-172.5 143t-172.5 -143t-71.5 -345t71.5 -345t172.5 -143zM600 0q-166 0 -283 190.5t-117 459.5t117 459.5t283 190.5t283 -190.5t117 -459.5t-117 -459.5t-283 -190.5z" />
    <glyph glyph-name="Iota" unicode="&#x399;" 
d="M527 1283h144q8 -1 8 -8v-1264q0 -8 -8 -8h-144q-8 0 -8 8v1264q1 8 8 8z" />
    <glyph glyph-name="Kappa" unicode="&#x39a;" 
d="M268 1280h144q8 -1 8 -8v-624h4l316 628l8 4h144q8 0 8 -12q-300 -604 -300 -612v-16q194 0 292 -240q8 -48 8 -76v-316q0 -8 -8 -8h-144q-8 0 -8 8v312q0 111 -116 156q-7 4 -16 4h-188v-472q0 -8 -8 -8h-144q-8 0 -8 8v1264q1 8 8 8z" />
    <glyph glyph-name="Lambda" unicode="&#x39b;" 
d="M892 0h-148q-19 0 -56 280q-64 340 -108 656h-8q-112 -732 -156 -932l-8 -4h-148l-8 4q188 1020 244 1272l8 4h136q26 0 100 -464q24 -101 160 -812z" />
    <glyph glyph-name="Mu" unicode="&#x39c;" 
d="M264 1280q188 -384 304 -612q5 -20 12 -20q82 174 308 624h4q8 -1 8 -8v-1256q0 -8 -8 -8h-148q-8 0 -8 8v772h-8q-8 -8 -112 -232q-20 -38 -40 -60h-4q-31 48 -140 292h-12v-772q0 -8 -8 -8h-148q-8 0 -8 8v1264q1 8 8 8z" />
    <glyph glyph-name="Nu" unicode="&#x39d;" 
d="M748 1280h144q8 -1 8 -8v-1260h-8l-468 828h-4v-832q0 -8 -8 -8h-144q-8 0 -8 8v1264h8q463 -819 472 -824v824q1 8 8 8z" />
    <glyph glyph-name="Xi" unicode="&#x39e;" 
d="M62 0v185h1111v-185h-1111zM192 580v185h851v-185h-851zM93 1098v185h1049v-185h-1049z" />
    <glyph glyph-name="Omicron" unicode="&#x39f;" 
d="M584 1280q198 0 296 -420q12 -53 20 -220q0 -396 -204 -600q-59 -40 -124 -40q-197 0 -296 420q-16 96 -16 180v80q0 311 164 524q70 76 160 76zM420 672v-76q27 -436 164 -436q98 0 148 340l8 140q-25 480 -168 480q-95 0 -144 -320q-8 -41 -8 -128z" />
    <glyph glyph-name="Pi" unicode="&#x3a0;" 
d="M268 1280h624q8 -1 8 -8v-1264q0 -8 -8 -8h-144q-8 0 -8 8v1112h-320v-1112q0 -8 -8 -8h-144q-8 0 -8 8v1264q1 8 8 8z" />
    <glyph glyph-name="Rho" unicode="&#x3a1;" 
d="M268 1280h312q244 0 316 -272q4 -38 4 -76v-116q0 -251 -256 -332q-44 -4 -76 -4h-148v-472q0 -8 -8 -8h-144q-8 0 -8 8v1264q1 8 8 8zM420 1120v-480h156q120 0 164 128v172q0 123 -92 164q-27 16 -48 16h-180z" />
    <glyph glyph-name="Sigma" unicode="&#x3a3;" 
d="M200 1200v200h800v-200h-600l400 -500l-400 -500h600v-200h-800v200l400 500z" />
    <glyph glyph-name="Tau" unicode="&#x3a4;" 
d="M268 1280h624q8 -1 8 -8v-144q0 -8 -8 -8h-228v-1112q0 -8 -8 -8h-144q-8 0 -8 8v1112h-236q-8 0 -8 8v144q1 8 8 8z" />
    <glyph glyph-name="Upsilon" unicode="&#x3a5;" 
d="M1121 1300q79 -12 79 -76v-4q0 -52 -68 -80q-70 -51 -82 -87q-43 -20 -136 -124q-33 -10 -150 -163q-34 0 -83 -176q0 -31 -11 -80q-4 -383 -4 -430q-15 -84 -75 -84h-4q-61 0 -71 88q0 64 -15 155v20q0 131 -4 363q-19 80 -64 195q-17 17 -41 80q-45 71 -75 104
q-71 61 -155 92q-55 28 -109 28q-41 27 -41 67v4q0 56 68 76h22q51 0 143 -48q176 -74 259 -231q74 -131 91 -195h3q28 50 106 127q0 14 101 120q20 0 94 92q27 14 94 87q10 2 60 52q51 28 68 28z" />
    <glyph glyph-name="Phi" unicode="&#x3a6;" 
d="M531 1280h144q8 -1 8 -8v-316q207 0 404 -148q76 -81 76 -152v-32q0 -179 -352 -284q-91 -16 -128 -16v-316q0 -8 -8 -8h-144q-8 0 -8 8v316h-4q-186 0 -384 140q-92 80 -92 180q0 199 372 300q84 12 108 12v316q1 8 8 8zM203 640q0 -115 320 -156v312
q-320 -39 -320 -156zM683 796v-312h4q162 0 300 104q16 31 16 40v24q0 78 -220 132q-67 12 -100 12z" />
    <glyph glyph-name="Chi" unicode="&#x3a7;" 
d="M260 1280h152q33 -37 132 -320l32 -96h8q125 375 164 416h152v-4q-204 -534 -232 -640l232 -628v-4l-8 -4h-140q-23 2 -156 380q-9 0 -12 44h-8q-104 -315 -160 -420l-8 -4h-144l-8 4q184 472 236 644z" />
    <glyph glyph-name="Psi" unicode="&#x3a8;" 
d="M715 0h-197v524q-160 21 -237 93t-114 235l-18 81l-17 73q-17 78 -38 103.5t-68 25.5h-14v148h17q139 0 193 -56t94 -242l16 -74q48 -223 186 -239v611h197v-611q138 16 186 239l16 74q41 187 94.5 242.5t192.5 55.5h17v-148h-14q-47 0 -68 -25.5t-38 -103.5l-17 -73
l-18 -81q-36 -163 -113.5 -235t-237.5 -93v-524z" />
    <glyph glyph-name="uni03A9" unicode="&#x3a9;" 
d="M524 148v-148h-475v148h312q-165 170 -232.5 305.5t-67.5 296.5q0 257 151 410.5t405 153.5q253 0 404 -153.5t151 -410.5q0 -161 -66.5 -295.5t-232.5 -306.5h311v-148h-475v148q148 169 200.5 288t52.5 288q0 206 -92 324t-253 118t-253.5 -117.5t-92.5 -320.5
q0 -172 52 -291t201 -289z" />
    <glyph glyph-name="Iotadieresis" unicode="&#x3aa;" 
d="M527 1283h144q8 -1 8 -8v-1264q0 -8 -8 -8h-144q-8 0 -8 8v1264q1 8 8 8zM400 1400q-41 0 -70.5 29.5t-29.5 70.5t29.5 70.5t70.5 29.5t70.5 -29.5t29.5 -70.5t-29.5 -70.5t-70.5 -29.5zM800 1400q-41 0 -70.5 29.5t-29.5 70.5t29.5 70.5t70.5 29.5t70.5 -29.5
t29.5 -70.5t-29.5 -70.5t-70.5 -29.5z" />
    <glyph glyph-name="Upsilondieresis" unicode="&#x3ab;" 
d="M1121 1300q79 -12 79 -76v-4q0 -52 -68 -80q-70 -51 -82 -87q-43 -20 -136 -124q-33 -10 -150 -163q-34 0 -83 -176q0 -31 -11 -80q-4 -383 -4 -430q-15 -84 -75 -84h-4q-61 0 -71 88q0 64 -15 155v20q0 131 -4 363q-19 80 -64 195q-17 17 -41 80q-45 71 -75 104
q-71 61 -155 92q-55 28 -109 28q-41 27 -41 67v4q0 56 68 76h22q51 0 143 -48q176 -74 259 -231q74 -131 91 -195h3q28 50 106 127q0 14 101 120q20 0 94 92q27 14 94 87q10 2 60 52q51 28 68 28zM400 1400q-41 0 -70.5 29.5t-29.5 70.5t29.5 70.5t70.5 29.5t70.5 -29.5
t29.5 -70.5t-29.5 -70.5t-70.5 -29.5zM800 1400q-41 0 -70.5 29.5t-29.5 70.5t29.5 70.5t70.5 29.5t70.5 -29.5t29.5 -70.5t-29.5 -70.5t-70.5 -29.5z" />
    <glyph glyph-name="alphatonos" unicode="&#x3ac;" 
d="M447 816q51 0 112 -44q56 -9 132 -68q76 -61 76 -100q9 0 24 -48h8q101 157 112 200q26 32 60 32h4q72 -11 72 -72v-16q0 -46 -68 -140l-44 -80q-4 0 -24 -52q-4 0 -28 -60q-4 0 -4 -8l44 -64q88 -117 88 -144q24 -46 24 -84q0 -58 -76 -68q-69 0 -92 112q-72 97 -72 104
h-4q-139 -152 -180 -152q-76 -60 -132 -60h-60q-67 0 -96 60q0 26 -44 104q-36 118 -36 212q-8 0 -12 84q0 101 100 292q0 21 72 52q28 8 44 8zM383 452l24 -180q9 0 20 -64q9 -3 28 -52h8q136 47 248 216q-46 78 -60 132q-12 10 -32 64q-85 64 -128 64q-31 16 -36 20
q-12 -2 -52 -112q-20 -63 -20 -88zM528 979l-25 321h197l-24 -321h-148z" />
    <glyph glyph-name="epsilontonos" unicode="&#x3ad;" 
d="M1071 189v-153q-166 -61 -352 -61q-275 0 -421.5 149t-146.5 428q0 247 129 395q78 89 183 126t277 37q169 0 318 -36v-161q-182 49 -314 49q-360 0 -385 -320h638v-149h-638q14 -193 109.5 -281.5t290.5 -88.5q161 0 312 66zM628 1283l-25 321h197l-24 -321h-148z" />
    <glyph glyph-name="etatonos" unicode="&#x3ae;" 
d="M182 0v753q0 182 -66 333h220q27 -88 43 -206q175 230 381 230q151 0 224.5 -98.5t73.5 -302.5v-1104h-197v1080q0 240 -161 240q-179 0 -321 -216v-709h-197zM563 1283l-25 321h197l-24 -321h-148z" />
    <glyph glyph-name="iotatonos" unicode="&#x3af;" 
d="M1036 27q-136 -52 -275 -52q-201 0 -277.5 88t-76.5 319v704h197v-685q0 -179 33.5 -229t154.5 -50q109 0 244 53v-148zM432 1283l-25 321h197l-24 -321h-148z" />
    <glyph glyph-name="upsilondieresistonos" unicode="&#x3b0;" 
d="M868 800h4q58 0 108 -97q20 -23 35 -89q20 -34 20 -65v-155q-17 -156 -39 -185q0 -40 -74 -97q-51 -73 -112 -108l-38 -4h-147q-234 19 -263 62q-67 35 -127 135q-26 17 -43 108v398q0 68 50 89l23 4h4q70 -11 70 -69v-406q0 -23 31 -58q52 -108 197 -108q0 -8 58 -8h135
q9 2 58 73q50 22 50 81q10 0 20 105v112q0 25 -20 69q0 26 -46 85q-23 24 -23 62q0 54 69 66zM219 1283v173h173v-173h-173zM540 1283l-25 321h197l-24 -321h-148zM836 1283v173h173v-173h-173z" />
    <glyph glyph-name="alpha" unicode="&#x3b1;" 
d="M447 816q51 0 112 -44q56 -9 132 -68q76 -61 76 -100q9 0 24 -48h8q101 157 112 200q26 32 60 32h4q72 -11 72 -72v-16q0 -46 -68 -140l-44 -80q-4 0 -24 -52q-4 0 -28 -60q-4 0 -4 -8l44 -64q88 -117 88 -144q24 -46 24 -84q0 -58 -76 -68q-69 0 -92 112q-72 97 -72 104
h-4q-139 -152 -180 -152q-76 -60 -132 -60h-60q-67 0 -96 60q0 26 -44 104q-36 118 -36 212q-8 0 -12 84q0 101 100 292q0 21 72 52q28 8 44 8zM383 452l24 -180q9 0 20 -64q9 -3 28 -52h8q136 47 248 216q-46 78 -60 132q-12 10 -32 64q-85 64 -128 64q-31 16 -36 20
q-12 -2 -52 -112q-20 -63 -20 -88z" />
    <glyph glyph-name="beta" unicode="&#x3b2;" 
d="M359 938h-11v-1338h-148v1350q0 145 102.5 247.5t247.5 102.5t247.5 -102.5t102.5 -247.5t-102 -247q-7 -7 -14 -13q53 -26 99 -67q117 -107 117 -258t-117 -258t-283 -107q-52 0 -100 11v148q43 -16 94 -16q105 0 179 67t74 161q0 95 -74 162t-179 67q-51 0 -94 -16v152
q24 -7 51 -7q79 0 135.5 62.5t56.5 151.5t-56.5 151.5t-135.5 62.5q-80 0 -136 -62.5t-56 -151.5v-5z" />
    <glyph glyph-name="gamma" unicode="&#x3b3;" 
d="M517 106q-29 122 -202 458t-303 522h227q186 -281 391 -747q100 222 319 594l78 130l13 23h181q-48 -69 -128 -208l-138 -241q-170 -294 -262 -513q37 -105 37 -234q0 -127 -62 -285h-151l-10 33q-43 135 -43 213q0 83 53 255z" />
    <glyph glyph-name="delta" unicode="&#x3b4;" 
d="M502 977q-182 95 -262 178t-80 175q0 129 123.5 201.5t342.5 72.5q139 0 256 -29v-164q-128 45 -277 45q-112 0 -180 -30t-68 -79q0 -74 177 -178l94 -54l108 -66q198 -119 286 -249.5t88 -305.5q0 -227 -138.5 -373t-355.5 -146q-212 0 -352.5 142.5t-140.5 358.5
q0 354 379 501zM649 881q-316 -110 -316 -409q0 -149 83 -249t207 -100q119 0 198 104.5t79 260.5q0 134 -55 220t-196 173z" />
    <glyph glyph-name="epsilon" unicode="&#x3b5;" 
d="M1071 189v-153q-166 -61 -352 -61q-275 0 -421.5 149t-146.5 428q0 247 129 395q78 89 183 126t277 37q169 0 318 -36v-161q-182 49 -314 49q-360 0 -385 -320h638v-149h-638q14 -193 109.5 -281.5t290.5 -88.5q161 0 312 66z" />
    <glyph glyph-name="zeta" unicode="&#x3b6;" 
d="M654 -412v164q123 -24 183 -24q225 0 225 156q0 73 -45.5 94.5t-198.5 21.5h-75q-282 0 -419.5 124t-137.5 377q0 170 80 365.5t207 336.5q-54 -4 -78 -4q-171 0 -364 70v175q228 -119 495 -119l70 1q143 145 262 205.5t282 72.5l48 -135q-231 -222 -534 -266
q-120 -164 -189.5 -349.5t-69.5 -341.5q0 -182 88 -260.5t292 -78.5h46q214 0 307.5 -63t93.5 -207q0 -323 -441 -323q-40 0 -127 8z" />
    <glyph glyph-name="eta" unicode="&#x3b7;" 
d="M182 0v753q0 182 -66 333h220q27 -88 43 -206q175 230 381 230q151 0 224.5 -98.5t73.5 -302.5v-1104h-197v1080q0 240 -161 240q-179 0 -321 -216v-709h-197z" />
    <glyph glyph-name="theta" unicode="&#x3b8;" 
d="M123 776q0 405 126 616.5t367 211.5q240 0 367 -210t127 -604q0 -395 -127.5 -605t-366.5 -210q-240 0 -366.5 205.5t-126.5 595.5zM333 876h567q0 257 -79 418.5t-205 161.5q-125 0 -204 -161.5t-79 -418.5zM900 728h-567q0 -277 76.5 -441t205.5 -164q127 0 206 168
t79 437z" />
    <glyph glyph-name="iota" unicode="&#x3b9;" 
d="M1036 27q-136 -52 -275 -52q-201 0 -277.5 88t-76.5 319v704h197v-685q0 -179 33.5 -229t154.5 -50q109 0 244 53v-148z" />
    <glyph glyph-name="kappa" unicode="&#x3ba;" 
d="M272 800h136q6 0 12 -12v-308q268 260 328 320h144q8 -1 8 -8q-264 -264 -304 -312q117 -11 224 -76q80 -65 80 -172v-224q0 -8 -8 -8h-144q-8 0 -8 8v220q0 92 -160 92h-160v-312q0 -8 -8 -8h-144q-8 0 -8 8v780q0 6 12 12z" />
    <glyph glyph-name="lambda" unicode="&#x3bb;" 
d="M508 985l-100 230q-49 113 -102 152t-157 39h-29v173h37q193 0 275.5 -58t168.5 -256l356 -812q97 -220 201 -395l34 -58h-222q-102 169 -185 358l-185 418l-356 -776h-190z" />
    <glyph glyph-name="uni03BC" unicode="&#x3bc;" 
d="M182 -419v1505h197v-553q0 -132 18.5 -193t71.5 -109q71 -65 163 -65q126 0 235 214v706h197v-751q0 -217 60 -335h-216q-21 58 -37 173q-1 10 -4 30q-51 -126 -106 -177t-139 -51q-74 0 -127.5 31.5t-115.5 112.5v-14v-524h-197z" />
    <glyph glyph-name="nu" unicode="&#x3bd;" 
d="M527 0l-16 38l-94 228q-73 180 -118 278l-129 285q-76 166 -127 257h215q17 -37 19 -41l93 -193q117 -245 269 -615l17 -42q127 214 210.5 424t83.5 315q0 88 -25 152h194q16 -50 16 -116q0 -229 -375 -906l-36 -64h-197z" />
    <glyph glyph-name="xi" unicode="&#x3be;" 
d="M561 -410v161q117 -22 207 -22q250 0 250 144q0 127 -225 127h-104q-269 0 -399 118t-130 285q0 138 96 253.5t263 180.5q-122 47 -197.5 141.5t-75.5 200.5q0 89 74 191q-142 0 -308 67v161q168 -80 426 -98l45 -4q181 108 374 108q68 0 142 -13l30 -95
q-174 -128 -441 -128l-76 2q-68 -79 -68 -174q0 -139 116.5 -223.5t307.5 -84.5h131v-148h-136q-150 0 -221.5 -17.5t-145.5 -72.5q-126 -95 -126 -239q0 -113 80.5 -175.5t227.5 -62.5h99q204 0 299.5 -67t95.5 -210q0 -145 -124 -230t-335 -85q-33 0 -90 4z" />
    <glyph glyph-name="omicron" unicode="&#x3bf;" 
d="M592 800q223 0 304 -332q4 -45 4 -84q0 -269 -256 -376q-32 -8 -68 -8q-236 0 -312 336q-4 29 -4 76q0 276 256 380q32 8 76 8zM420 408v-16q0 -198 160 -232q160 34 160 232v16q0 198 -160 232q-160 -34 -160 -232z" />
    <glyph glyph-name="pi" unicode="&#x3c0;" 
d="M450 647v-647h-150v647h-100v153h800v-153h-100v-647h-143v647h-307z" />
    <glyph glyph-name="rho" unicode="&#x3c1;" 
d="M179 -395v812q0 385 151 549q133 144 346 144q207 0 324 -124t117 -344q0 -277 -157 -459.5t-396 -182.5q-90 0 -188 35v-430h-197zM376 226q94 -78 211 -78q143 0 238 131t95 329q0 159 -74 256.5t-195 97.5q-131 0 -203 -119t-72 -338v-279z" />
    <glyph glyph-name="sigma1" unicode="&#x3c2;" 
d="M605 -181q69 -13 135 -13q189 0 189 109q0 87 -172 87h-72q-110 0 -174.5 22.5t-120.5 78.5q-90 92 -90 235q0 198 145.5 330t363.5 132q86 0 151 -16v-110q-74 20 -156 20q-171 0 -264.5 -89.5t-93.5 -254.5q0 -118 61.5 -171t198.5 -53h50q284 0 284 -199
q0 -105 -88 -166t-240 -61q-52 0 -107 9v110z" />
    <glyph glyph-name="sigma" unicode="&#x3c3;" 
d="M664 783h362v-122h-206q67 -108 67 -263q0 -186 -91 -292t-252 -106t-252.5 106t-91.5 294q0 187 91.5 293.5t251.5 106.5q54 0 121 -17zM544 104q195 0 195 296t-195 296q-196 0 -196 -296t196 -296z" />
    <glyph glyph-name="tau" unicode="&#x3c4;" 
d="M587 0q-31 68 -40.5 129.5t-9.5 185.5v358h-152q-102 0 -185 -37v135q78 29 194 29h624v-127h-336v-439q0 -145 58 -234h-153z" />
    <glyph glyph-name="upsilon" unicode="&#x3c5;" 
d="M868 800h4q58 0 108 -97q20 -23 35 -89q20 -34 20 -65v-155q-17 -156 -39 -185q0 -40 -74 -97q-51 -73 -112 -108l-38 -4h-147q-234 19 -263 62q-67 35 -127 135q-26 17 -43 108v398q0 68 50 89l23 4h4q70 -11 70 -69v-406q0 -23 31 -58q52 -108 197 -108q0 -8 58 -8h135
q9 2 58 73q50 22 50 81q10 0 20 105v112q0 25 -20 69q0 26 -46 85q-23 24 -23 62q0 54 69 66z" />
    <glyph glyph-name="phi" unicode="&#x3c6;" 
d="M532 -346v341q-175 0 -277 109t-102 296t101.5 296t277.5 109v423h147v-423q176 0 277.5 -109t101.5 -296t-102 -296t-277 -109v-341h-147zM532 685q-231 -15 -231 -288q0 -130 62 -206.5t169 -76.5v571zM679 685v-571q107 0 169.5 76.5t62.5 206.5q0 273 -232 288z" />
    <glyph glyph-name="chi" unicode="&#x3c7;" 
d="M721 204l479 -604h-200l-351 514l-349 -514l-200 3l489 586l-489 611h200l363 -523l337 523h200z" />
    <glyph glyph-name="psi" unicode="&#x3c8;" 
d="M531 -395v395q-239 25 -338.5 172t-99.5 474v153q0 173 -49 287h187q5 -19 7 -24l25 -75q15 -47 15 -175v-153q0 -312 98 -425q69 -80 155 -86v1135h185v-1135q278 35 278 504q0 262 -79 434h184q80 -204 80 -458q0 -280 -124.5 -449t-338.5 -179v-395h-185z" />
    <glyph glyph-name="omega" unicode="&#x3c9;" 
d="M621 277q-81 -302 -262 -302q-144 0 -233 147.5t-89 385.5q0 153 39.5 310.5t105.5 267.5h201q-74 -105 -117.5 -263t-43.5 -319q0 -159 44 -262t113 -106q102 -5 166 330q-47 123 -47 251q0 140 47 264h156q47 -124 47 -264q0 -128 -47 -251q56 -330 165 -330
q64 0 104.5 104t40.5 268q0 367 -148 578h200q134 -198 134 -538q0 -252 -90.5 -412.5t-232.5 -160.5q-197 0 -253 302z" />
    <glyph glyph-name="iotadieresis" unicode="&#x3ca;" 
d="M1036 27q-136 -52 -275 -52q-201 0 -277.5 88t-76.5 319v704h197v-685q0 -179 33.5 -229t154.5 -50q109 0 244 53v-148zM338 1240q-41 0 -70.5 29.5t-29.5 70.5t29.5 70.5t70.5 29.5t70.5 -29.5t29.5 -70.5t-29.5 -70.5t-70.5 -29.5zM738 1240q-41 0 -70.5 29.5
t-29.5 70.5t29.5 70.5t70.5 29.5t70.5 -29.5t29.5 -70.5t-29.5 -70.5t-70.5 -29.5z" />
    <glyph glyph-name="upsilondieresis" unicode="&#x3cb;" 
d="M868 800h4q58 0 108 -97q20 -23 35 -89q20 -34 20 -65v-155q-17 -156 -39 -185q0 -40 -74 -97q-51 -73 -112 -108l-38 -4h-147q-234 19 -263 62q-67 35 -127 135q-26 17 -43 108v398q0 68 50 89l23 4h4q70 -11 70 -69v-406q0 -23 31 -58q52 -108 197 -108q0 -8 58 -8h135
q9 2 58 73q50 22 50 81q10 0 20 105v112q0 25 -20 69q0 26 -46 85q-23 24 -23 62q0 54 69 66zM417 1240q-41 0 -70.5 29.5t-29.5 70.5t29.5 70.5t70.5 29.5t70.5 -29.5t29.5 -70.5t-29.5 -70.5t-70.5 -29.5zM817 1240q-41 0 -70.5 29.5t-29.5 70.5t29.5 70.5t70.5 29.5
t70.5 -29.5t29.5 -70.5t-29.5 -70.5t-70.5 -29.5z" />
    <glyph glyph-name="omicrontonos" unicode="&#x3cc;" 
d="M592 800q223 0 304 -332q4 -45 4 -84q0 -269 -256 -376q-32 -8 -68 -8q-236 0 -312 336q-4 29 -4 76q0 276 256 380q32 8 76 8zM420 408v-16q0 -198 160 -232q160 34 160 232v16q0 198 -160 232q-160 -34 -160 -232zM543 1283l-25 321h197l-24 -321h-148z" />
    <glyph glyph-name="upsilontonos" unicode="&#x3cd;" 
d="M868 800h4q58 0 108 -97q20 -23 35 -89q20 -34 20 -65v-155q-17 -156 -39 -185q0 -40 -74 -97q-51 -73 -112 -108l-38 -4h-147q-234 19 -263 62q-67 35 -127 135q-26 17 -43 108v398q0 68 50 89l23 4h4q70 -11 70 -69v-406q0 -23 31 -58q52 -108 197 -108q0 -8 58 -8h135
q9 2 58 73q50 22 50 81q10 0 20 105v112q0 25 -20 69q0 26 -46 85q-23 24 -23 62q0 54 69 66zM511 1283l-25 321h197l-24 -321h-148z" />
    <glyph glyph-name="omegatonos" unicode="&#x3ce;" 
d="M621 277q-81 -302 -262 -302q-144 0 -233 147.5t-89 385.5q0 153 39.5 310.5t105.5 267.5h201q-74 -105 -117.5 -263t-43.5 -319q0 -159 44 -262t113 -106q102 -5 166 330q-47 123 -47 251q0 140 47 264h156q47 -124 47 -264q0 -128 -47 -251q56 -330 165 -330
q64 0 104.5 104t40.5 268q0 367 -148 578h200q134 -198 134 -538q0 -252 -90.5 -412.5t-232.5 -160.5q-197 0 -253 302zM550 1283l-25 321h197l-24 -321h-148z" />
    <glyph glyph-name="uni0401" unicode="&#x401;" 
d="M268 1280h624q8 -1 8 -8v-144q0 -8 -8 -8h-472v-480h472q8 -1 8 -8v-144q0 -8 -8 -8h-472v-320h472q8 -1 8 -8v-144q0 -8 -8 -8h-624q-8 0 -8 8v1264q1 8 8 8zM400 1400q-41 0 -70.5 29.5t-29.5 70.5t29.5 70.5t70.5 29.5t70.5 -29.5t29.5 -70.5t-29.5 -70.5t-70.5 -29.5
zM800 1400q-41 0 -70.5 29.5t-29.5 70.5t29.5 70.5t70.5 29.5t70.5 -29.5t29.5 -70.5t-29.5 -70.5t-70.5 -29.5z" />
    <glyph glyph-name="uni0402" unicode="&#x402;" 
d="M263 1300h624q13 -2 13 -13v-136q0 -13 -13 -13h-312v-488h78q156 0 228 -201q19 -48 19 -130q0 -228 -195 -312l-39 -7l-6 13v137q78 55 78 175q0 146 -85 163h-78v-475q0 -13 -13 -13h-136q-13 0 -13 13v1125h-150q-13 0 -13 13v136q2 13 13 13z" />
    <glyph glyph-name="uni0403" unicode="&#x403;" 
d="M268 1280h624q8 -1 8 -8v-144q0 -8 -8 -8h-472v-1112q0 -8 -8 -8h-144q-8 0 -8 8v1264q1 8 8 8zM400 1400l300 200h200l-400 -200h-100z" />
    <glyph glyph-name="uni0404" unicode="&#x404;" 
d="M572 1280q29 0 88 -8q240 -99 240 -292v-12q0 -8 -8 -8h-148q-4 37 -16 68q-49 92 -160 92h-20q-128 -43 -128 -164v-316h208q7 0 8 -8v-144q0 -8 -8 -8h-208v-140q0 -25 12 -76q39 -104 136 -104q90 0 152 72q20 88 36 88h136l8 -4l-4 -56q-81 -260 -308 -260
q-35 0 -60 4q-268 75 -268 316v628q0 41 4 64q79 268 308 268z" />
    <glyph glyph-name="uni0405" unicode="&#x405;" 
d="M588 1280q233 0 308 -336q4 -1 4 -40v-12q0 -8 -8 -8h-136q-13 17 -48 152q-62 84 -120 84q-102 0 -156 -140q-8 -37 -12 -100q0 -185 136 -236q221 0 308 -180q36 -61 36 -132v-28q0 -216 -260 -300q-42 -4 -68 -4q-220 0 -304 256q-4 21 -4 48v8q1 8 8 8h136
q11 -4 40 -96q60 -64 140 -64q103 0 140 100q12 43 12 72v4q0 103 -136 144q-242 0 -328 276q-12 55 -16 132q0 271 248 380q29 12 80 12z" />
    <glyph glyph-name="uni0406" unicode="&#x406;" 
d="M527 1283h144q8 -1 8 -8v-1264q0 -8 -8 -8h-144q-8 0 -8 8v1264q1 8 8 8z" />
    <glyph glyph-name="uni0407" unicode="&#x407;" 
d="M527 1283h144q8 -1 8 -8v-1264q0 -8 -8 -8h-144q-8 0 -8 8v1264q1 8 8 8zM400 1400q-41 0 -70.5 29.5t-29.5 70.5t29.5 70.5t70.5 29.5t70.5 -29.5t29.5 -70.5t-29.5 -70.5t-70.5 -29.5zM800 1400q-41 0 -70.5 29.5t-29.5 70.5t29.5 70.5t70.5 29.5t70.5 -29.5
t29.5 -70.5t-29.5 -70.5t-70.5 -29.5z" />
    <glyph glyph-name="uni0408" unicode="&#x408;" 
d="M748 1280h144q8 -1 8 -8v-968q0 -216 -260 -300q-42 -4 -68 -4q-220 0 -304 256q-4 21 -4 48v8q1 8 8 8h136q11 -4 40 -96q60 -64 140 -64q103 0 140 100q12 43 12 72v940q1 8 8 8z" />
    <glyph glyph-name="uni0409" unicode="&#x409;" 
d="M701 488v-325h156q127 0 169 130v39q0 136 -169 156h-156zM539 1138h-156q-127 0 -169 -130v-995q0 -13 -13 -13h-137q-13 0 -13 13v962q0 232 254 319q43 6 71 6h312q13 -2 13 -13v-637h163q232 0 318 -253q7 -44 7 -72q0 -232 -254 -318q-44 -7 -71 -7h-312
q-13 0 -13 13v1125z" />
    <glyph glyph-name="uni040A" unicode="&#x40a;" 
d="M539 1287q1 13 13 13h136q13 -2 13 -13v-637h163q232 0 318 -253q7 -44 7 -72q0 -232 -254 -318q-44 -7 -71 -7h-312q-13 0 -13 13v475h-325v-475q0 -13 -13 -13h-137q-13 0 -13 13v1274q2 13 13 13h137q13 -2 13 -13v-637h325v637zM701 163h156q127 0 169 130v39
q0 136 -169 156h-156v-325z" />
    <glyph glyph-name="uni040B" unicode="&#x40b;" 
d="M506 0h-198v1135h-302v148h802v-148h-302v-427q200 143 366 143q300 0 300 -343v-508h-198v455q0 120 -39 171t-132 51q-131 0 -297 -140v-537z" />
    <glyph glyph-name="uni040C" unicode="&#x40c;" 
d="M268 1280h144q8 -1 8 -8v-624h4l316 628l8 4h144q8 0 8 -12q-300 -604 -300 -612v-16q194 0 292 -240q8 -48 8 -76v-316q0 -8 -8 -8h-144q-8 0 -8 8v312q0 111 -116 156q-7 4 -16 4h-188v-472q0 -8 -8 -8h-144q-8 0 -8 8v1264q1 8 8 8zM498 1400l300 200h200l-400 -200
h-100z" />
    <glyph glyph-name="uni040E" unicode="&#x40e;" 
d="M268 1280h144q8 -1 8 -8v-468q0 -121 128 -164h36q106 0 140 96q16 47 16 84v452q1 8 8 8h144q8 -1 8 -8v-952q0 -241 -268 -316q-24 -4 -60 -4q-227 0 -308 264q-4 50 -4 52l8 4h136q16 0 36 -88q62 -72 152 -72q97 0 136 104q12 51 12 76v180h-4q-74 -40 -156 -40
q-238 0 -316 264q-4 31 -4 68v460q1 8 8 8zM800 1600h100q0 -83 -88 -141.5t-212 -58.5t-212 58.5t-88 141.5h100q0 -41 58.5 -70.5t141.5 -29.5t141.5 29.5t58.5 70.5z" />
    <glyph glyph-name="uni040F" unicode="&#x40f;" 
d="M313 1272h132q12 -2 12 -13v-1087h315v1087q1 13 12 13h132q13 -2 13 -13v-1232q0 -13 -13 -13h-220v-301q0 -13 -12 -13h-132q-13 0 -13 13v301h-226q-13 0 -13 13v1232q2 13 13 13z" />
    <glyph glyph-name="uni0410" unicode="&#x410;" 
d="M588 1280q200 0 296 -212q16 -49 16 -84v-976q0 -8 -8 -8h-144q-8 0 -8 8v472h-320v-472q0 -8 -8 -8h-144q-8 0 -8 8v920q0 250 216 336q52 16 112 16zM420 932v-292h320v340q0 80 -108 132q-28 8 -48 8q-114 0 -160 -124q-4 -41 -4 -64z" />
    <glyph glyph-name="uni0411" unicode="&#x411;" 
d="M268 1280h624q8 -1 8 -8v-144q0 -8 -8 -8h-472v-480h160q228 0 312 -248q8 -54 8 -80q0 -221 -260 -308q-44 -4 -80 -4h-292q-8 0 -8 8v1264q1 8 8 8zM420 480v-320h156q120 0 164 128v32q0 117 -116 152q-45 8 -64 8h-140z" />
    <glyph glyph-name="uni0412" unicode="&#x412;" 
d="M268 1280h320q211 0 296 -280q16 -55 16 -100v-28q0 -186 -124 -308q55 -20 104 -120q20 -55 20 -108v-32q0 -214 -256 -300q-31 -4 -68 -4h-308q-8 0 -8 8v1264q1 8 8 8zM420 1120v-480h128q163 0 192 216v24q0 111 -80 208q-38 32 -96 32h-144zM420 480v-320h112
q156 0 196 100l12 72q0 97 -136 144q-46 4 -88 4h-96z" />
    <glyph glyph-name="uni0413" unicode="&#x413;" 
d="M268 1280h624q8 -1 8 -8v-144q0 -8 -8 -8h-472v-1112q0 -8 -8 -8h-144q-8 0 -8 8v1264q1 8 8 8z" />
    <glyph glyph-name="uni0414" unicode="&#x414;" 
d="M572 1280h300q8 -1 8 -8v-1112h112q8 -1 8 -8v-144q0 -8 -8 -8h-856q-8 0 -8 8v144q1 8 8 8h104v812q0 221 260 304q38 4 72 4zM400 160h320v960h-156q-119 0 -164 -124v-836z" />
    <glyph glyph-name="uni0415" unicode="&#x415;" 
d="M268 1280h624q8 -1 8 -8v-144q0 -8 -8 -8h-472v-480h472q8 -1 8 -8v-144q0 -8 -8 -8h-472v-320h472q8 -1 8 -8v-144q0 -8 -8 -8h-624q-8 0 -8 8v1264q1 8 8 8z" />
    <glyph glyph-name="uni0416" unicode="&#x416;" 
d="M62 1280h140q19 -12 236 -452q0 -6 88 -180h8v624q1 8 8 8h144q8 -1 8 -8v-620q31 45 320 628h152l8 -4q-24 -60 -304 -616v-20q202 0 296 -248q8 -69 8 -112v-272q0 -8 -8 -8h-144q-8 0 -8 8v268q0 159 -100 192q-20 12 -40 12h-180v-472q0 -8 -8 -8h-144q-8 0 -8 8v472
h-156q-126 0 -164 -128v-344q0 -8 -8 -8h-144q-8 0 -8 8v328q0 213 252 296q18 8 52 8q-2 25 -284 580q-20 25 -20 52q1 8 8 8z" />
    <glyph glyph-name="uni0417" unicode="&#x417;" 
d="M588 1280h8q214 0 300 -324q4 -25 4 -56v-44q0 -148 -112 -284q112 -116 112 -240v-28q0 -216 -260 -300q-42 -4 -68 -4q-231 0 -308 272v40q1 8 8 8h136q11 -4 40 -96q60 -64 140 -64q116 0 148 128l4 40q0 87 -96 144q-64 9 -123 16l2 137q57 1 153 59q64 81 64 180v40
q0 150 -116 204q-36 12 -48 12q-118 0 -164 -236h-144q-8 0 -8 8q0 267 248 376q29 12 80 12z" />
    <glyph glyph-name="uni0418" unicode="&#x418;" 
d="M412 1280q7 0 8 -8v-824q9 5 472 824h8v-1264q0 -8 -8 -8h-144q-8 0 -8 8v832h-4l-468 -828h-8v1260q0 7 8 8h144z" />
    <glyph glyph-name="uni0419" unicode="&#x419;" 
d="M412 1280q7 0 8 -8v-824q9 5 472 824h8v-1264q0 -8 -8 -8h-144q-8 0 -8 8v832h-4l-468 -828h-8v1260q0 7 8 8h144zM814 1600h100q0 -83 -88 -141.5t-212 -58.5t-212 58.5t-88 141.5h100q0 -41 58.5 -70.5t141.5 -29.5t141.5 29.5t58.5 70.5z" />
    <glyph glyph-name="uni041A" unicode="&#x41a;" 
d="M268 1280h144q8 -1 8 -8v-624h4l316 628l8 4h144q8 0 8 -12q-300 -604 -300 -612v-16q194 0 292 -240q8 -48 8 -76v-316q0 -8 -8 -8h-144q-8 0 -8 8v312q0 111 -116 156q-7 4 -16 4h-188v-472q0 -8 -8 -8h-144q-8 0 -8 8v1264q1 8 8 8z" />
    <glyph glyph-name="uni041B" unicode="&#x41b;" 
d="M592 1280h300q8 -1 8 -8v-1264q0 -8 -8 -8h-144q-8 0 -8 8v1112h-156q-119 0 -164 -124v-988q0 -8 -8 -8h-144q-8 0 -8 8v964q0 221 260 304q38 4 72 4z" />
    <glyph glyph-name="uni041C" unicode="&#x41c;" 
d="M264 1280q188 -384 304 -612q5 -20 12 -20q82 174 308 624h4q8 -1 8 -8v-1256q0 -8 -8 -8h-148q-8 0 -8 8v772h-8q-8 -8 -112 -232q-20 -38 -40 -60h-4q-31 48 -140 292h-12v-772q0 -8 -8 -8h-148q-8 0 -8 8v1264q1 8 8 8z" />
    <glyph glyph-name="uni041D" unicode="&#x41d;" 
d="M268 1280h144q8 -1 8 -8v-632h320v632q1 8 8 8h144q8 -1 8 -8v-1264q0 -8 -8 -8h-144q-8 0 -8 8v472h-320v-472q0 -8 -8 -8h-144q-8 0 -8 8v1264q1 8 8 8z" />
    <glyph glyph-name="uni041E" unicode="&#x41e;" 
d="M584 1280q198 0 296 -420q12 -53 20 -220q0 -396 -204 -600q-59 -40 -124 -40q-197 0 -296 420q-16 96 -16 180v80q0 311 164 524q70 76 160 76zM420 672v-76q27 -436 164 -436q98 0 148 340l8 140q-25 480 -168 480q-95 0 -144 -320q-8 -41 -8 -128z" />
    <glyph glyph-name="uni041F" unicode="&#x41f;" 
d="M268 1280h624q8 -1 8 -8v-1264q0 -8 -8 -8h-144q-8 0 -8 8v1112h-320v-1112q0 -8 -8 -8h-144q-8 0 -8 8v1264q1 8 8 8z" />
    <glyph glyph-name="uni0420" unicode="&#x420;" 
d="M268 1280h312q244 0 316 -272q4 -38 4 -76v-116q0 -251 -256 -332q-44 -4 -76 -4h-148v-472q0 -8 -8 -8h-144q-8 0 -8 8v1264q1 8 8 8zM420 1120v-480h156q120 0 164 128v172q0 123 -92 164q-27 16 -48 16h-180z" />
    <glyph glyph-name="uni0421" unicode="&#x421;" 
d="M584 1280q205 0 300 -220q12 -45 16 -96l-8 -4h-144q-9 0 -24 72q-56 88 -152 88q-106 0 -152 -128v-692q0 -80 108 -132q28 -8 48 -8q115 0 160 124q0 36 12 36h144l8 -4q0 -200 -216 -300q-52 -16 -112 -16q-200 0 -296 212q-16 47 -16 84v688q0 170 200 276
q58 20 124 20z" />
    <glyph glyph-name="uni0422" unicode="&#x422;" 
d="M268 1280h624q8 -1 8 -8v-144q0 -8 -8 -8h-228v-1112q0 -8 -8 -8h-144q-8 0 -8 8v1112h-236q-8 0 -8 8v144q1 8 8 8z" />
    <glyph glyph-name="uni0423" unicode="&#x423;" 
d="M268 1280h144q8 -1 8 -8v-468q0 -121 128 -164h36q106 0 140 96q16 47 16 84v452q1 8 8 8h144q8 -1 8 -8v-952q0 -241 -268 -316q-24 -4 -60 -4q-227 0 -308 264q-4 50 -4 52l8 4h136q16 0 36 -88q62 -72 152 -72q97 0 136 104q12 51 12 76v180h-4q-74 -40 -156 -40
q-238 0 -316 264q-4 31 -4 68v460q1 8 8 8z" />
    <glyph glyph-name="uni0424" unicode="&#x424;" 
d="M531 1280h144q8 -1 8 -8v-316q207 0 404 -148q76 -81 76 -152v-32q0 -179 -352 -284q-91 -16 -128 -16v-316q0 -8 -8 -8h-144q-8 0 -8 8v316h-4q-186 0 -384 140q-92 80 -92 180q0 199 372 300q84 12 108 12v316q1 8 8 8zM203 640q0 -115 320 -156v312
q-320 -39 -320 -156zM683 796v-312h4q162 0 300 104q16 31 16 40v24q0 78 -220 132q-67 12 -100 12z" />
    <glyph glyph-name="uni0425" unicode="&#x425;" 
d="M260 1280h152q33 -37 132 -320l32 -96h8q125 375 164 416h152v-4q-204 -534 -232 -640l232 -628v-4l-8 -4h-140q-23 2 -156 380q-9 0 -12 44h-8q-104 -315 -160 -420l-8 -4h-144l-8 4q184 472 236 644z" />
    <glyph glyph-name="uni0426" unicode="&#x426;" 
d="M268 1274h144q8 -1 8 -8v-1112h244v1112q1 8 8 8h144q8 -1 8 -8v-1112h68q8 -1 8 -8v-304q0 -8 -8 -8h-144q-8 0 -8 8v152h-472q-8 0 -8 8v1264q1 8 8 8z" />
    <glyph glyph-name="uni0427" unicode="&#x427;" 
d="M268 1280h144q8 -1 8 -8v-416q0 -150 116 -204q36 -12 48 -12h156v632q1 8 8 8h144q8 -1 8 -8v-1264q0 -8 -8 -8h-144q-8 0 -8 8v472h-160q-218 0 -300 268q-20 72 -20 104v420q1 8 8 8z" />
    <glyph glyph-name="uni0428" unicode="&#x428;" 
d="M8 1280h144q8 -1 8 -8v-1112h320v1112q1 8 8 8h144q8 -1 8 -8v-1112h320v1112q1 8 8 8h144q8 -1 8 -8v-1264q0 -8 -8 -8h-1104q-8 0 -8 8v1264q1 8 8 8z" />
    <glyph glyph-name="uni0429" unicode="&#x429;" 
d="M8 1274h144q8 -1 8 -8v-1112h320v1112q1 8 8 8h144q8 -1 8 -8v-1112h320v1112q1 8 8 8h144q8 -1 8 -8v-1112h72q8 -1 8 -8v-304q0 -8 -8 -8h-144q-8 0 -8 8v152h-1032q-8 0 -8 8v1264q1 8 8 8z" />
    <glyph glyph-name="uni042A" unicode="&#x42a;" 
d="M108 1280h304q8 -1 8 -8v-632h160q241 0 316 -268q4 -24 4 -60q0 -227 -264 -308q-31 -4 -68 -4h-300q-8 0 -8 8v1112h-152q-8 0 -8 8v144q1 8 8 8zM420 480v-320h156q121 0 164 128v36q0 105 -96 140q-47 16 -84 16h-140z" />
    <glyph glyph-name="uni042B" unicode="&#x42b;" 
d="M208 1280h144q8 -1 8 -8v-632h160q232 0 312 -252v-24h8v908q1 8 8 8h144q8 -1 8 -8v-1264q0 -8 -8 -8h-144q-8 0 -8 8v268h-8v-8q0 -171 -252 -264q-47 -4 -68 -4h-304q-8 0 -8 8v1264q1 8 8 8zM360 480v-320h156q120 0 164 128v32q0 117 -116 152q-45 8 -64 8h-140z
" />
    <glyph glyph-name="uni042C" unicode="&#x42c;" 
d="M268 1280h144q8 -1 8 -8v-632h160q235 0 316 -256q4 -26 4 -52v-28q0 -216 -260 -300q-38 -4 -72 -4h-300q-8 0 -8 8v1264q1 8 8 8zM420 480v-320h156q109 0 152 96q12 21 12 40v44q0 89 -104 128q-42 12 -84 12h-132z" />
    <glyph glyph-name="uni042D" unicode="&#x42d;" 
d="M588 1280q229 0 308 -268q4 -23 4 -64v-628q0 -241 -268 -316q-24 -4 -60 -4q-227 0 -308 260l-4 56l8 4h136q16 0 36 -88q62 -72 152 -72q97 0 136 104q12 51 12 76v140h-208q-8 0 -8 8v144q1 8 8 8h208v316q0 121 -128 164h-20q-111 0 -160 -92q-12 -31 -16 -68h-148
q-8 0 -8 8v12q0 193 240 292q59 8 88 8z" />
    <glyph glyph-name="uni042E" unicode="&#x42e;" 
d="M81 1280h144q8 -1 8 -8v-632h160v304q0 249 252 332q59 4 80 4q221 0 304 -260q4 -25 4 -56v-656q0 -220 -260 -304q-42 -4 -68 -4q-229 0 -308 268q-4 38 -4 76v136h-160v-472q0 -8 -8 -8h-144q-8 0 -8 8v1264q1 8 8 8zM553 928v-588q0 -123 92 -164q27 -16 48 -16h28
q90 0 128 76q24 51 24 100v624q0 111 -116 156q-7 4 -16 4h-32q-107 0 -144 -104q-12 -50 -12 -88z" />
    <glyph glyph-name="uni042F" unicode="&#x42f;" 
d="M892 1288q7 0 8 -8v-1264q0 -8 -8 -8h-144q-8 0 -8 8v464h-4l-140 -212q-141 -221 -184 -268h-144q-8 0 -8 8v4q202 302 312 472q0 5 -56 8q-256 81 -256 316v144q0 141 92 236q65 100 288 100h252zM740 1128h-188q-132 -41 -132 -168v-180q40 -132 152 -132h168v480z
" />
    <glyph glyph-name="uni0430" unicode="&#x430;" 
d="M268 800h312q241 0 316 -264q4 -31 4 -68v-460q0 -8 -8 -8h-144q-8 0 -8 32q-74 -32 -160 -32q-138 0 -272 104q-48 65 -48 144q0 152 208 212q75 20 124 20q67 0 148 -32v28q0 121 -128 164h-344q-8 0 -8 8v144q1 8 8 8zM400 223q31 -96 77 -96q41 -27 106 -27
q157 18 157 143v7q-34 109 -115 109q0 12 -68 14q-157 -20 -157 -143v-7z" />
    <glyph glyph-name="uni0431" unicode="&#x431;" 
d="M592 1280h300q8 -1 8 -8v-144q0 -8 -8 -8h-308q-119 0 -164 -124v-244h4q76 48 164 48q222 0 304 -320q8 -46 8 -88q0 -285 -268 -388q-41 -4 -64 -4h-4q-210 0 -296 312q-8 21 -8 84v576q0 221 260 304q38 4 72 4zM420 420v-40q0 -184 160 -220q68 0 132 96
q28 59 28 148q0 168 -116 224q-39 12 -48 12q-156 -39 -156 -220z" />
    <glyph glyph-name="uni0432" unicode="&#x432;" 
d="M268 800h304q236 0 320 -184q8 -33 8 -64q0 -69 -140 -152q140 -67 140 -168q0 -152 -208 -212q-75 -20 -124 -20h-300q-8 0 -8 8v784q1 8 8 8zM420 640v-179l172 -4q144 32 144 95q4 7 4 16q-28 72 -176 72h-144zM421 345l-1 -185h160q156 9 156 72q4 7 4 16
q-28 72 -175 96z" />
    <glyph glyph-name="uni0433" unicode="&#x433;" 
d="M268 800h624q8 -1 8 -8v-144q0 -8 -8 -8h-472v-632q0 -8 -8 -8h-144q-8 0 -8 8v784q1 8 8 8z" />
    <glyph glyph-name="uni0434" unicode="&#x434;" 
d="M592 800h300q8 -1 8 -8v-632h92q8 -1 8 -8v-144q0 -8 -8 -8h-812q-8 0 -8 8v144q1 8 8 8h80v332q0 221 260 304q38 4 72 4zM420 504v-344h320v480h-156q-111 0 -156 -104q-8 -15 -8 -32z" />
    <glyph glyph-name="uni0435" unicode="&#x435;" 
d="M624 800q236 0 312 -340q4 -46 4 -88q-4 -52 -20 -52h-448q38 -160 148 -160h240q8 -1 8 -8q-95 -152 -256 -152h-8q-210 0 -296 312q-8 21 -8 84v32q0 253 252 364q40 8 72 8zM466 439h298v5q-34 196 -155 196q-102 0 -143 -201z" />
    <glyph glyph-name="uni0436" unicode="&#x436;" 
d="M31 800h156l320 -316v308q1 8 8 8h144q8 -1 8 -8v-308l320 316h156v-4l-312 -316q206 0 300 -164q16 -35 16 -76v-232q0 -8 -8 -8h-144q-8 0 -8 8v228q0 71 -148 84h-172v-312q0 -8 -8 -8h-144q-8 0 -8 8v312h-156q-130 0 -164 -68v-244q0 -8 -8 -8h-144q-8 0 -8 8v232
q0 172 252 236q41 4 64 4l-312 316v4z" />
    <glyph glyph-name="uni0437" unicode="&#x437;" 
d="M576 800q143 0 272 -100q52 -62 52 -148q0 -69 -160 -136q160 -83 160 -184q0 -152 -208 -212q-75 -20 -124 -20q-231 0 -304 208l-4 20l12 8h132q65 -76 176 -76q160 0 160 92q9 109 -240 148v48q92 20 208 60q32 32 32 52q0 69 -168 80h-4q-96 0 -164 -76h-136
q-8 0 -8 12q22 95 88 152q89 72 228 72z" />
    <glyph glyph-name="uni0438" unicode="&#x438;" 
d="M900 800v-792q0 -8 -8 -8h-152q-8 0 -8 8v468l-476 -472h-4v788q0 7 8 8h152q7 0 8 -8v-464l476 472h4z" />
    <glyph glyph-name="uni0439" unicode="&#x439;" 
d="M900 800v-792q0 -8 -8 -8h-152q-8 0 -8 8v468l-476 -472h-4v788q0 7 8 8h152q7 0 8 -8v-464l476 472h4zM799 1200h100q0 -83 -88 -141.5t-212 -58.5t-212 58.5t-88 141.5h100q0 -41 58.5 -70.5t141.5 -29.5t141.5 29.5t58.5 70.5z" />
    <glyph glyph-name="uni043A" unicode="&#x43a;" 
d="M272 800h136q6 0 12 -12v-308q268 260 328 320h144q8 -1 8 -8q-264 -264 -304 -312q117 -11 224 -76q80 -65 80 -172v-224q0 -8 -8 -8h-144q-8 0 -8 8v220q0 92 -160 92h-160v-312q0 -8 -8 -8h-144q-8 0 -8 8v780q0 6 12 12z" />
    <glyph glyph-name="uni043B" unicode="&#x43b;" 
d="M592 800h296q6 0 12 -12v-780q0 -8 -8 -8h-144q-8 0 -8 8v632h-156q-133 0 -164 -140v-492q0 -8 -8 -8h-144q-8 0 -8 8v472q0 241 268 316q23 4 64 4z" />
    <glyph glyph-name="uni043C" unicode="&#x43c;" 
d="M260 800q312 -381 320 -388q141 185 316 388l4 -8v-784q0 -8 -8 -8h-148q-6 0 -12 12v452h-4q-94 -138 -144 -220h-12q-5 0 -96 148l-56 72v-456q0 -8 -8 -8h-148q-6 0 -12 12v780q1 8 8 8z" />
    <glyph glyph-name="uni043D" unicode="&#x43d;" 
d="M268 800h140q6 0 12 -12l-6 -354l322 -10l4 368q1 8 8 8h140q6 0 12 -12v-780q0 -8 -8 -8h-144q-8 0 -8 8v312h-322l2 -312q0 -8 -8 -8h-144q-8 0 -8 8v784q1 8 8 8z" />
    <glyph glyph-name="uni043E" unicode="&#x43e;" 
d="M592 800q223 0 304 -332q4 -45 4 -84q0 -269 -256 -376q-32 -8 -68 -8q-236 0 -312 336q-4 29 -4 76q0 276 256 380q32 8 76 8zM420 408v-16q0 -198 160 -232q160 34 160 232v16q0 198 -160 232q-160 -34 -160 -232z" />
    <glyph glyph-name="uni043F" unicode="&#x43f;" 
d="M268 800h624q8 -1 8 -8v-784q0 -8 -8 -8h-144q-8 0 -8 8v632h-320v-632q0 -8 -8 -8h-144q-8 0 -8 8v784q1 8 8 8z" />
    <glyph glyph-name="uni0440" unicode="&#x440;" 
d="M268 800h144q8 -1 8 -8v-44q69 52 172 52q215 0 300 -320l8 -92q0 -269 -256 -380q-38 -8 -60 -8h-4q-81 0 -156 48h-4v-360q0 -8 -8 -8h-144q-8 0 -8 8v1104q1 8 8 8zM420 424v-48q0 -180 160 -216q160 36 160 240q0 184 -132 232q-25 8 -32 8q-52 0 -120 -76
q-36 -65 -36 -140z" />
    <glyph glyph-name="uni0441" unicode="&#x441;" 
d="M592 800q224 0 308 -316l-8 -4h-140q-12 7 -64 112q-55 48 -96 48q-86 0 -148 -116q-16 -63 -16 -104v-40q0 -184 160 -220h8q88 0 144 156l8 4h144q8 -1 8 -8q-24 -132 -124 -240q-86 -72 -200 -72h-4q-210 0 -296 312q-8 21 -8 84v32q0 253 252 364q40 8 72 8z" />
    <glyph glyph-name="uni0442" unicode="&#x442;" 
d="M268 800h620q6 0 12 -12v-140q0 -8 -8 -8h-228v-628q0 -6 -12 -12h-140q-8 0 -8 8v632h-236q-8 0 -8 8v144q1 8 8 8z" />
    <glyph glyph-name="uni0443" unicode="&#x443;" 
d="M268 800h144q8 -1 8 -8v-468q0 -121 128 -164h36q106 0 140 96q16 47 16 84v452q1 8 8 8h144q8 -1 8 -8v-864q0 -160 -180 -220q-63 -20 -136 -28l-4 8v136q0 12 128 44q32 32 32 52v120h-4q-74 -40 -156 -40q-238 0 -316 264q-4 31 -4 68v460q1 8 8 8z" />
    <glyph glyph-name="uni0444" unicode="&#x444;" 
d="M542 1263h144q8 -1 8 -8v-524q79 52 164 52q204 0 300 -264q16 -57 16 -112v-48q0 -213 -188 -344q-65 -32 -132 -32q-82 0 -160 52v-364q0 -8 -8 -8h-144q-8 0 -8 8v364q-70 -52 -160 -52q-211 0 -304 276q-12 48 -16 124q0 231 180 360q62 40 144 40q84 0 156 -52v524
q1 8 8 8zM214 383q0 -181 140 -240h24q114 0 156 196v60q0 155 -124 220l-28 4h-4q-127 0 -160 -204zM694 383q0 -181 140 -240h24q114 0 156 196v60q0 155 -124 220l-28 4h-4q-127 0 -160 -204z" />
    <glyph glyph-name="uni0445" unicode="&#x445;" 
d="M280 800h140q9 -5 168 -252h4q102 187 152 252h152q0 -29 -224 -388v-8q0 -8 180 -308q48 -81 48 -92l-8 -4h-140q-20 20 -168 260h-4q-116 -207 -160 -260h-144l-8 4q60 115 232 400v4q-228 368 -228 388z" />
    <glyph glyph-name="uni0446" unicode="&#x446;" 
d="M265 800h144q8 -1 8 -8v-632h320v632q1 8 8 8h144q8 -1 8 -8v-632h152q8 -1 8 -8v-304q0 -8 -8 -8h-144q-8 0 -8 8v152h-632q-8 0 -8 8v784q1 8 8 8z" />
    <glyph glyph-name="uni0447" unicode="&#x447;" 
d="M268 800h140q6 0 12 -12v-216q0 -92 160 -92h160v312q1 8 8 8h140q6 0 12 -12v-780q0 -8 -8 -8h-144q-8 0 -8 8v312h-156q-227 0 -308 172q-16 24 -16 68v232q1 8 8 8z" />
    <glyph glyph-name="uni0448" unicode="&#x448;" 
d="M8 800h144q8 -1 8 -8v-632h320v632q1 8 8 8h144q8 -1 8 -8v-632h320v632q1 8 8 8h144q8 -1 8 -8v-784q0 -8 -8 -8h-1104q-8 0 -8 8v784q1 8 8 8z" />
    <glyph glyph-name="uni0449" unicode="&#x449;" 
d="M8 800h144q8 -1 8 -8v-632h320v632q1 8 8 8h144q8 -1 8 -8v-632h320v632q1 8 8 8h144q8 -1 8 -8v-632h72q8 -1 8 -8v-304q0 -8 -8 -8h-144q-8 0 -8 8v152h-1032q-8 0 -8 8v784q1 8 8 8z" />
    <glyph glyph-name="uni044A" unicode="&#x44a;" 
d="M208 800h300q6 0 12 -12v-308h152q258 2 320 -184q8 -33 8 -64q0 -152 -208 -212q-75 -20 -124 -20h-300q-8 0 -8 8v632h-152q-8 0 -8 8v144q1 8 8 8zM522 344l-2 -206l180 -4q134 15 142 54q18 27 18 56q-20 84 -160 98z" />
    <glyph glyph-name="uni044B" unicode="&#x44b;" 
d="M908 800h144q8 -1 8 -8v-784q0 -8 -8 -8h-144q-8 0 -8 8v784q1 8 8 8zM262 360l-2 -234h160q168 11 180 94v28q-12 90 -172 106zM108 800h140q6 0 12 -12v-308h152q236 0 320 -184q8 -33 8 -64q0 -152 -208 -212q-75 -20 -124 -20h-300q-8 0 -8 8v784q1 8 8 8z" />
    <glyph glyph-name="uni044C" unicode="&#x44c;" 
d="M422 360l-2 -234h160q168 11 180 94v28q-12 90 -172 106zM268 800h140q6 0 12 -12v-308h152q236 0 320 -184q8 -33 8 -64q0 -152 -208 -212q-75 -20 -124 -20h-300q-8 0 -8 8v784q1 8 8 8z" />
    <glyph glyph-name="uni044D" unicode="&#x44d;" 
d="M592 800h4q214 0 300 -324q4 -25 4 -56v-52q0 -248 -252 -360q-40 -8 -72 -8q-221 0 -294 300q10 0 18 -1l100 1q19 -116 90 -132q48 -8 98 -8q103 0 144 172v24l6 23q-89 7 -138 6l-100 -3v75l238 2l-2 11q-47 170 -116 176q-113 13 -194 -54l-26 -110l-120 -2
q-6 0 -12 12q62 211 172 272q86 36 152 36z" />
    <glyph glyph-name="uni044E" unicode="&#x44e;" 
d="M108 800h144q8 -1 8 -8v-312h168q0 121 144 264q77 56 176 56q203 0 300 -280q12 -71 12 -120q0 -265 -216 -380q-53 -20 -108 -20q-205 0 -300 272q-8 32 -8 48h-168v-312q0 -8 -8 -8h-144q-8 0 -8 8v784q1 8 8 8zM580 400q0 -170 120 -232q16 -8 44 -8q105 0 152 180
q4 35 4 60q0 170 -120 232q-16 8 -44 8q-108 0 -152 -184q-4 -25 -4 -56z" />
    <glyph glyph-name="uni044F" unicode="&#x44f;" 
d="M600 808h276q24 -2 24 -12v-780q0 -8 -8 -8h-144q-8 0 -8 8v296q-239 -232 -320 -312h-144q-8 0 -8 8q80 81 312 320q-139 0 -264 96q-56 62 -56 140v8q0 149 196 212q96 24 144 24zM420 560q0 -61 164 -72h156v160h-100q-202 0 -212 -64q-8 0 -8 -24z" />
    <glyph glyph-name="uni0451" unicode="&#x451;" 
d="M624 800q236 0 312 -340q4 -46 4 -88q-4 -52 -20 -52h-448q38 -160 148 -160h240q8 -1 8 -8q-95 -152 -256 -152h-8q-210 0 -296 312q-8 21 -8 84v32q0 253 252 364q40 8 72 8zM466 439h298v5q-34 196 -155 196q-102 0 -143 -201zM400 1000q-41 0 -70.5 29.5t-29.5 70.5
t29.5 70.5t70.5 29.5t70.5 -29.5t29.5 -70.5t-29.5 -70.5t-70.5 -29.5zM800 1000q-41 0 -70.5 29.5t-29.5 70.5t29.5 70.5t70.5 29.5t70.5 -29.5t29.5 -70.5t-29.5 -70.5t-70.5 -29.5z" />
    <glyph glyph-name="uni0452" unicode="&#x452;" 
d="M380 882q136 228 370 228q308 0 308 -367v-743v-92q0 -145 -90.5 -236t-234.5 -91q-68 0 -144 20v155q62 -27 125 -27q80 0 113.5 49.5t33.5 167.5v743q0 128 -39 181t-133 53q-148 0 -309 -213v-710h-198v1258h-148v124h148v197h198v-197h320v-124h-320v-172v-204z" />
    <glyph glyph-name="uni0453" unicode="&#x453;" 
d="M268 800h624q8 -1 8 -8v-144q0 -8 -8 -8h-472v-632q0 -8 -8 -8h-144q-8 0 -8 8v784q1 8 8 8zM672 1000h-100l200 300h200z" />
    <glyph glyph-name="uni0454" unicode="&#x454;" 
d="M576 800q66 0 152 -36q110 -61 172 -272q-6 -12 -12 -12l-120 2l-26 110q-81 67 -194 54q-69 -6 -116 -176l-2 -11l238 -2v-75l-100 3q-49 1 -138 -6l6 -23v-24q41 -172 144 -172q50 0 98 8q71 16 90 132l100 -1q8 1 18 1q-73 -300 -294 -300q-32 0 -72 8
q-252 112 -252 360v52q0 31 4 56q86 324 300 324h4z" />
    <glyph glyph-name="uni0455" unicode="&#x455;" 
d="M584 800q218 0 308 -180q8 -38 8 -60l-8 -4l-128 2q-11 42 -14 60q-50 56 -170 60q-160 -13 -160 -122q0 -66 180 -98q238 -16 292 -158q8 -38 8 -60q0 -168 -236 -232q-34 -8 -88 -8q-193 0 -292 148q-24 41 -24 84l8 4h144q35 -120 170 -122q165 -14 158 114v16
q42 76 -196 126q-212 42 -274 150q-10 18 -10 40q0 168 236 232q34 8 88 8z" />
    <glyph glyph-name="uni0456" unicode="&#x456;" 
d="M612 1280h4q84 -16 84 -76q-15 -84 -76 -84q-84 15 -84 64v24q17 72 72 72zM548 800h144q8 -1 8 -8v-784q0 -8 -8 -8h-144q-8 0 -8 8v784q1 8 8 8z" />
    <glyph glyph-name="uni0457" unicode="&#x457;" 
d="M548 800h144q8 -1 8 -8v-784q0 -8 -8 -8h-144q-8 0 -8 8v784q1 8 8 8zM437 1000q-41 0 -70.5 29.5t-29.5 70.5t29.5 70.5t70.5 29.5t70.5 -29.5t29.5 -70.5t-29.5 -70.5t-70.5 -29.5zM837 1000q-41 0 -70.5 29.5t-29.5 70.5t29.5 70.5t70.5 29.5t70.5 -29.5t29.5 -70.5
t-29.5 -70.5t-70.5 -29.5z" />
    <glyph glyph-name="uni0458" unicode="&#x458;" 
d="M712 1268h4q84 -16 84 -76q-17 -84 -76 -84q-84 15 -84 64v24q17 72 72 72zM648 788h144q8 -1 8 -8v-980q0 -91 -88 -116q-53 -16 -88 -16h-136q-8 0 -8 8v144q1 8 8 8h152v952q1 8 8 8z" />
    <glyph glyph-name="uni0459" unicode="&#x459;" 
d="M693 320v-160h160q144 0 160 83q-8 67 -160 77h-160zM533 640h-154q-126 0 -166 -128v-499q0 -13 -13 -13h-134q-13 0 -13 13v467q0 229 250 314q43 6 70 6h307q13 -2 13 -13v-307h154q241 0 320 -192q6 -24 6 -51q0 -194 -307 -237h-320q-13 0 -13 13v627z" />
    <glyph glyph-name="uni045A" unicode="&#x45a;" 
d="M534 787q2 13 13 13h134q13 -2 13 -13v-307h154q241 0 320 -192q6 -24 6 -51q0 -194 -307 -237h-320q-13 0 -13 13v307h-320v-307q0 -13 -13 -13h-134q-13 0 -13 13v774q2 13 13 13h134q13 -2 13 -13v-307h320v307zM694 160h160q144 0 160 83q-8 67 -160 77h-160v-160z
" />
    <glyph glyph-name="uni045B" unicode="&#x45b;" 
d="M368 1280h140q6 0 12 -12v-148h392q8 -1 8 -8v-144q0 -8 -8 -8h-392v-208h4q76 48 164 48q227 0 308 -332q4 -44 4 -80v-380q0 -8 -8 -8h-144q-8 0 -8 8v400q0 198 -160 232q-160 -34 -160 -232v-400q0 -8 -8 -8h-144q-8 0 -8 8v952h-72q-8 0 -8 8v144q1 8 8 8h72v152
q1 8 8 8z" />
    <glyph glyph-name="uni045C" unicode="&#x45c;" 
d="M272 800h136q6 0 12 -12v-308q268 260 328 320h144q8 -1 8 -8q-264 -264 -304 -312q117 -11 224 -76q80 -65 80 -172v-224q0 -8 -8 -8h-144q-8 0 -8 8v220q0 92 -160 92h-160v-312q0 -8 -8 -8h-144q-8 0 -8 8v780q0 6 12 12zM609 1000h-100l200 300h200z" />
    <glyph glyph-name="uni045E" unicode="&#x45e;" 
d="M268 800h144q8 -1 8 -8v-468q0 -121 128 -164h36q106 0 140 96q16 47 16 84v452q1 8 8 8h144q8 -1 8 -8v-864q0 -160 -180 -220q-63 -20 -136 -28l-4 8v136q0 12 128 44q32 32 32 52v120h-4q-74 -40 -156 -40q-238 0 -316 264q-4 31 -4 68v460q1 8 8 8zM827 1200h100
q0 -83 -88 -141.5t-212 -58.5t-212 58.5t-88 141.5h100q0 -41 58.5 -70.5t141.5 -29.5t141.5 29.5t58.5 70.5z" />
    <glyph glyph-name="uni045F" unicode="&#x45f;" 
d="M313 800h132q12 -2 12 -13v-616h314v616q2 13 13 13h132q13 -2 13 -13v-760q0 -13 -13 -13h-220v-301q0 -13 -13 -13h-132q-12 0 -12 13v301h-226q-13 0 -13 13v760q2 13 13 13z" />
    <glyph glyph-name="uni0490" unicode="&#x490;" 
d="M753 1438h134q13 -2 13 -13v-294q0 -13 -13 -13h-466v-1105q0 -13 -13 -13h-134q-13 0 -13 13v1252q2 13 13 13h466v147q2 13 13 13z" />
    <glyph glyph-name="uni0491" unicode="&#x491;" 
d="M754 954h133q13 -2 13 -13v-292q0 -13 -13 -13h-464v-623q0 -13 -13 -13h-133q-13 0 -13 13v769q2 13 13 13h464v146q2 13 13 13z" />
    <glyph glyph-name="Wgrave" unicode="&#x1e80;" 
d="M264 1280h148q8 -1 8 -8v-772h4q5 0 116 232q20 38 40 60h4q43 -73 144 -292h8v772q1 8 8 8h148q8 -1 8 -8v-1264q0 -8 -8 -8l-312 472h-8q-277 -437 -308 -472q-8 0 -8 8v1264q1 8 8 8zM820 1400h-100l-400 200h200z" />
    <glyph glyph-name="wgrave" unicode="&#x1e81;" 
d="M264 800h148q8 -1 8 -8v-376h4q148 216 152 216h8l148 -216h4v376q1 8 8 8h148q8 -1 8 -8v-784q0 -8 -8 -8l-312 472h-8q-277 -437 -308 -472q-8 0 -8 8v784q1 8 8 8zM626 1000l-300 300h200l200 -300h-100z" />
    <glyph glyph-name="Wacute" unicode="&#x1e82;" 
d="M264 1280h148q8 -1 8 -8v-772h4q5 0 116 232q20 38 40 60h4q43 -73 144 -292h8v772q1 8 8 8h148q8 -1 8 -8v-1264q0 -8 -8 -8l-312 472h-8q-277 -437 -308 -472q-8 0 -8 8v1264q1 8 8 8zM492 1400l300 200h200l-400 -200h-100z" />
    <glyph glyph-name="wacute" unicode="&#x1e83;" 
d="M264 800h148q8 -1 8 -8v-376h4q148 216 152 216h8l148 -216h4v376q1 8 8 8h148q8 -1 8 -8v-784q0 -8 -8 -8l-312 472h-8q-277 -437 -308 -472q-8 0 -8 8v784q1 8 8 8zM598 1000h-100l200 300h200z" />
    <glyph glyph-name="Wdieresis" unicode="&#x1e84;" 
d="M264 1280h148q8 -1 8 -8v-772h4q5 0 116 232q20 38 40 60h4q43 -73 144 -292h8v772q1 8 8 8h148q8 -1 8 -8v-1264q0 -8 -8 -8l-312 472h-8q-277 -437 -308 -472q-8 0 -8 8v1264q1 8 8 8zM408 1400q-41 0 -70.5 29.5t-29.5 70.5t29.5 70.5t70.5 29.5t70.5 -29.5
t29.5 -70.5t-29.5 -70.5t-70.5 -29.5zM808 1400q-41 0 -70.5 29.5t-29.5 70.5t29.5 70.5t70.5 29.5t70.5 -29.5t29.5 -70.5t-29.5 -70.5t-70.5 -29.5z" />
    <glyph glyph-name="wdieresis" unicode="&#x1e85;" 
d="M264 800h148q8 -1 8 -8v-376h4q148 216 152 216h8l148 -216h4v376q1 8 8 8h148q8 -1 8 -8v-784q0 -8 -8 -8l-312 472h-8q-277 -437 -308 -472q-8 0 -8 8v784q1 8 8 8zM414 1000q-41 0 -70.5 29.5t-29.5 70.5t29.5 70.5t70.5 29.5t70.5 -29.5t29.5 -70.5t-29.5 -70.5
t-70.5 -29.5zM814 1000q-41 0 -70.5 29.5t-29.5 70.5t29.5 70.5t70.5 29.5t70.5 -29.5t29.5 -70.5t-29.5 -70.5t-70.5 -29.5z" />
    <glyph glyph-name="Ygrave" unicode="&#x1ef2;" 
d="M260 1280h152q28 -34 104 -364q36 -145 60 -256h8q116 507 156 620h160v-4q-160 -536 -232 -808v-460q0 -8 -8 -8h-152q-8 0 -8 8v444q-28 136 -240 824v4zM829 1400h-100l-400 200h200z" />
    <glyph glyph-name="ygrave" unicode="&#x1ef3;" 
d="M268 800h144q8 -1 8 -8v-468q0 -121 128 -164h36q106 0 140 96q16 47 16 84v452q1 8 8 8h144q8 -1 8 -8v-864q0 -160 -180 -220q-63 -20 -136 -28l-4 8v136q0 12 128 44q32 32 32 52v120h-4q-74 -40 -156 -40q-238 0 -316 264q-4 31 -4 68v460q1 8 8 8zM641 1000
l-300 300h200l200 -300h-100z" />
    <glyph glyph-name="endash" unicode="&#x2013;" 
d="M136 543v123h962v-123h-962z" />
    <glyph glyph-name="emdash" unicode="&#x2014;" 
d="M62 543v123h1110v-123h-1110z" />
    <glyph glyph-name="uni2015" unicode="&#x2015;" 
d="M99 543v123h1036v-123h-1036z" />
    <glyph glyph-name="underscoredbl" unicode="&#x2017;" 
d="M0 -136v136h1234v-136h-1234zM0 -420v136h1234v-136h-1234z" />
    <glyph glyph-name="quoteleft" unicode="&#x2018;" 
d="M765 1579v-99q-111 -13 -123 -222h123v-296h-296v180q0 421 296 437z" />
    <glyph glyph-name="quoteright" unicode="&#x2019;" 
d="M469 962v99q111 14 123 222h-123v296h296v-179q0 -421 -296 -438z" />
    <glyph glyph-name="quotesinglbase" unicode="&#x201a;" 
d="M800 0q0 -124 -88 -212t-212 -88v100q41 0 71 59q27 54 29 149q-31 11 -56 36q-44 44 -44 106t44 106t106 44t106 -44t44 -106v-150z" />
    <glyph glyph-name="quotedblleft" unicode="&#x201c;" 
d="M247 1036v222q0 321 247 321v-99q-105 0 -105 -145v-52h105v-247h-247zM740 1036v222q0 321 247 321v-99q-105 0 -105 -145v-52h105v-247h-247z" />
    <glyph glyph-name="quotedblright" unicode="&#x201d;" 
d="M494 1579v-222q0 -321 -247 -321v99q105 0 105 145v52h-105v247h247zM987 1579v-222q0 -321 -247 -321v99q105 0 105 145v52h-105v247h247z" />
    <glyph glyph-name="quotedblbase" unicode="&#x201e;" 
d="M500 243v-222q0 -321 -247 -321v99q105 0 105 145v52h-105v247h247zM1000 243v-222q0 -321 -247 -321v99q105 0 105 145v52h-105v247h247z" />
    <glyph glyph-name="dagger" unicode="&#x2020;" 
d="M700 700v-1100h-200v1100h-400v200h400v600h200v-600h400v-200h-400z" />
    <glyph glyph-name="daggerdbl" unicode="&#x2021;" 
d="M500 1000v500h200v-500h400v-200h-400v-400h400v-200h-400v-500h-200v500h-400v200h400v400h-400v200h400z" />
    <glyph glyph-name="bullet" unicode="&#x2022;" 
d="M617 290q-123 0 -209.5 86.5t-86.5 209.5t86.5 209.5t209.5 86.5t209.5 -86.5t86.5 -209.5t-86.5 -209.5t-209.5 -86.5z" />
    <glyph glyph-name="ellipsis" unicode="&#x2026;" 
d="M1000 0q-41 0 -70.5 29.5t-29.5 70.5t29.5 70.5t70.5 29.5t70.5 -29.5t29.5 -70.5t-29.5 -70.5t-70.5 -29.5zM200 0q-41 0 -70.5 29.5t-29.5 70.5t29.5 70.5t70.5 29.5t70.5 -29.5t29.5 -70.5t-29.5 -70.5t-70.5 -29.5zM600 0q-41 0 -70.5 29.5t-29.5 70.5t29.5 70.5
t70.5 29.5t70.5 -29.5t29.5 -70.5t-29.5 -70.5t-70.5 -29.5z" />
    <glyph glyph-name="perthousand" unicode="&#x2030;" 
d="M800 1289l-700 -1278l-100 -11l700 1290zM200 800q-83 0 -141.5 73t-58.5 177t58.5 177t141.5 73t141.5 -73t58.5 -177t-58.5 -177t-141.5 -73zM200 900q28 0 47.5 44t19.5 106t-19.5 106t-47.5 44t-47.5 -44t-19.5 -106t19.5 -106t47.5 -44zM600 0q-83 0 -141.5 73
t-58.5 177t58.5 177t141.5 73t141.5 -73t58.5 -177t-58.5 -177t-141.5 -73zM600 100q28 0 47.5 44t19.5 106t-19.5 106t-47.5 44t-47.5 -44t-19.5 -106t19.5 -106t47.5 -44zM1000 0q-83 0 -141.5 73t-58.5 177t58.5 177t141.5 73t141.5 -73t58.5 -177t-58.5 -177t-141.5 -73
zM1000 100q28 0 47.5 44t19.5 106t-19.5 106t-47.5 44t-47.5 -44t-19.5 -106t19.5 -106t47.5 -44z" />
    <glyph glyph-name="guilsinglleft" unicode="&#x2039;" 
d="M800 993l100 -93l-400 -400l400 -318l-100 -82l-500 400z" />
    <glyph glyph-name="guilsinglright" unicode="&#x203a;" 
d="M400 993l500 -493l-500 -400l-100 82l400 318l-400 400z" />
    <glyph glyph-name="exclamdbl" unicode="&#x203c;" 
d="M394 0q-40 0 -67 27t-27 67q0 39 27 66.5t67 27.5q39 0 66.5 -27.5t27.5 -66.5q0 -40 -27.5 -67t-66.5 -27zM394 563l-94 937h188zM806 0q-40 0 -67 27t-27 67q0 39 27 66.5t67 27.5q39 0 66.5 -27.5t27.5 -66.5q0 -40 -27.5 -67t-66.5 -27zM806 563l-94 937h188z" />
    <glyph glyph-name="uni203E" unicode="&#x203e;" 
d="M0 1493v123h1234v-123h-1234z" />
    <glyph glyph-name="fraction" unicode="&#x2044;" 
d="M0 -37l1055 1554h179l-1055 -1554h-179z" />
    <glyph glyph-name="uni207F" unicode="&#x207f;" 
d="M766 1504h123q11 -1 11 -11v-687h-5l-414 407v-402q0 -11 -11 -11h-123q-11 0 -11 11v687h6l413 -407v402q1 11 11 11z" />
    <glyph glyph-name="franc" unicode="&#x20a3;" 
d="M260 300v972q1 8 8 8h624q8 -1 8 -8v-144q0 -8 -8 -8h-472v-480h472q8 -1 8 -8v-144q0 -8 -8 -8h-472v-180h180v-100h-180v-192q0 -8 -8 -8h-144q-8 0 -8 8v192h-160v100h160z" />
    <glyph glyph-name="lira" unicode="&#x20a4;" 
d="M494 148h505v-148h-699v148q171 65 171 265v79h-149v105h149v128h-149v105h149v95q0 184 84.5 279.5t247.5 95.5q81 0 183 -25v-144q-114 42 -188 42q-159 0 -159 -182v-161h170v-105h-170v-128h170v-105h-170q0 -118 -28 -185t-117 -159z" />
    <glyph glyph-name="peseta" unicode="&#x20a7;" 
d="M37 1280h258q201 0 261 -272q3 -38 3 -76v-116q0 -251 -211 -332q-37 -4 -63 -4h-123v-472q0 -8 -6 -8h-119q-7 0 -7 8v1264q1 8 7 8zM162 1120v-480h129q99 0 136 128v172q0 123 -76 164q-23 16 -40 16h-149zM605 800h90q5 -1 5 -5v-295h195q5 -1 5 -5v-90q0 -5 -5 -5
h-195v-240q0 -52 43 -60h12q23 0 55 48h85q5 0 5 -8q-4 -53 -57 -112q-43 -28 -90 -28q-60 0 -125 58q-28 40 -28 97v245h-95q-5 0 -5 5v90q1 5 5 5h95v295q1 5 5 5zM1052 800q102 0 144 -180q4 -38 4 -60l-4 -4h-67q-9 35 -17 52q-26 32 -66 32q-71 -13 -71 -84
q0 -66 83 -116q94 -40 138 -140q4 -38 4 -60q0 -168 -111 -232q-15 -8 -41 -8q-90 0 -137 148q-11 41 -11 84l4 4h67q22 -76 79 -76t75 68v16q0 66 -79 125q-94 20 -142 131q-4 38 -4 60q0 168 111 232q15 8 41 8z" />
    <glyph glyph-name="Euro" unicode="&#x20ac;" horiz-adv-x="1235" 
d="M694 1300q189 0 293 -396l-13 -7h-137q-8 0 -52 150q-49 91 -97 91q-103 0 -156 -325h143q13 -2 13 -13v-137q0 -13 -13 -13h-150v-78h150q13 -2 13 -13v-136q0 -13 -13 -13h-130q55 -247 143 -247q71 0 136 195h150v-7q-96 -351 -293 -351t-292 410h-176q-13 0 -13 13
v136q2 13 13 13h150v78h-150q-13 0 -13 13v137q2 13 13 13h163v6q82 481 318 481z" />
    <glyph glyph-name="uni2116" unicode="&#x2116;" 
d="M490 1286h147q12 -2 12 -13v-1267h-6q-30 31 -465 771h-6v-764q0 -13 -13 -13h-146q-13 0 -13 13v1254q2 13 13 13q449 -748 458 -771h6v764q2 13 13 13zM961 796q-98 0 -168 70t-70 168q0 99 70 169t168 70q99 0 169 -70t70 -169q0 -98 -70 -168t-169 -70zM961 955
q34 0 57 23t23 56q0 34 -23 57t-57 23q-33 0 -56 -23t-23 -57q0 -33 23 -56t56 -23zM1200 541h-477v159h477v-159z" />
    <glyph glyph-name="trademark" unicode="&#x2122;" 
d="M204 1480h332q4 -1 4 -4v-77q0 -4 -4 -4h-121v-591q0 -4 -5 -4h-76q-4 0 -4 4v591h-126q-4 0 -4 4v77q1 4 4 4zM662 1480q100 -204 162 -325q2 -11 6 -11q44 93 164 332h2q4 -1 4 -4v-668q0 -4 -4 -4h-79q-4 0 -4 4v410h-4q-4 -4 -60 -123q-10 -20 -21 -32h-2
q-17 26 -74 155h-7v-410q0 -4 -4 -4h-79q-4 0 -4 4v672q1 4 4 4z" />
    <glyph glyph-name="Omega" unicode="&#x2126;" 
d="M542 2v-2h-342v200h147q-40 90 -71 220q-16 96 -16 180v80q0 311 164 524q70 76 160 76q198 0 296 -420q12 -53 20 -220q0 -262 -89 -440h149v-200h-360l1 2h-1v160q86 26 132 338l8 140q-25 480 -168 480q-95 0 -144 -320q-8 -41 -8 -128v-76q23 -366 123 -425v-169h-1z
" />
    <glyph glyph-name="oneeighth" unicode="&#x215b;" 
d="M957 536q155 0 221 -212q10 -35 10 -87q0 -119 -84 -221q84 -79 84 -181q0 -168 -183 -230q-31 -5 -50 -5q-169 0 -231 183q-4 31 -4 52q0 102 83 181q-83 97 -83 235q0 180 154 266q33 19 83 19zM836 246v-5q0 -149 119 -173q116 24 116 173v5q0 150 -116 173
q-119 -23 -119 -173zM836 -170q0 -99 121 -114q100 0 114 122q0 99 -121 114q-100 0 -114 -122zM1188 1500l-950 -1900h-238l950 1900h238zM188 1500h104q10 -2 10 -9v-941q0 -9 -10 -9h-100q-9 0 -9 9v819l-178 -166h-5v109q0 8 188 188z" />
    <glyph glyph-name="threeeighths" unicode="&#x215c;" 
d="M967 536q154 0 221 -212q9 -35 9 -87q0 -119 -83 -221q83 -79 83 -181q0 -168 -183 -230q-31 -5 -50 -5q-168 0 -230 183q-5 31 -5 52q0 102 83 181q-83 97 -83 235q0 180 155 266q33 19 83 19zM846 246v-5q0 -149 118 -173q117 24 117 173v5q0 150 -117 173
q-118 -23 -118 -173zM846 -170q0 -99 121 -114q99 0 114 122q0 99 -121 114q-100 0 -114 -122zM1197 1500l-950 -1900h-237l950 1900h237zM10 1500h460q10 -2 10 -9v-95q0 -12 5 -22l-136 -268q131 -93 131 -273q0 -186 -159 -273q-34 -19 -86 -19q-168 0 -230 239
q-5 34 -5 57l10 5h99q10 0 26 -95q46 -85 105 -85q121 23 121 175v5q-21 178 -116 178l-5 10v111q9 12 121 240h-351q-10 0 -10 10v100q2 9 10 9z" />
    <glyph glyph-name="fiveeighths" unicode="&#x215d;" 
d="M969 536q155 0 221 -212q10 -35 10 -87q0 -119 -84 -221q84 -79 84 -181q0 -168 -183 -230q-31 -5 -50 -5q-169 0 -231 183q-4 31 -4 52q0 102 83 181q-83 97 -83 235q0 180 154 266q33 19 83 19zM848 246v-5q0 -149 119 -173q116 24 116 173v5q0 150 -116 173
q-119 -23 -119 -173zM848 -170q0 -99 121 -114q100 0 114 122q0 99 -121 114q-100 0 -114 -122zM1200 1500l-950 -1900h-238l950 1900h238zM22 1500h446q10 0 10 -9v-98q0 -9 -10 -9h-340v-233h112q190 0 238 -264v-33q0 -180 -155 -264q-33 -19 -83 -19q-164 0 -223 233
q-5 31 -5 55l10 5h97q7 0 24 -93q42 -83 102 -83q116 24 116 171v5q0 149 -116 173h-223q-10 0 -10 7v447q0 9 10 9z" />
    <glyph glyph-name="seveneighths" unicode="&#x215e;" 
d="M969 536q155 0 221 -212q10 -35 10 -87q0 -119 -84 -221q84 -79 84 -181q0 -168 -183 -230q-31 -5 -50 -5q-169 0 -231 183q-4 31 -4 52q0 102 83 181q-83 97 -83 235q0 180 154 266q33 19 83 19zM848 246v-5q0 -149 119 -173q116 24 116 173v5q0 150 -116 173
q-119 -23 -119 -173zM848 -170q0 -99 121 -114q100 0 114 122q0 99 -121 114q-100 0 -114 -122zM1200 1500l-950 -1900h-238l950 1900h238zM22 1500h451q9 0 9 -9v-95q0 -10 5 -17q-340 -791 -356 -824h-109l-10 5q273 629 354 821h-344q-10 0 -10 10v100q0 9 10 9z" />
    <glyph glyph-name="arrowleft" unicode="&#x2190;" 
d="M500 600h600v-200h-600v-200l-400 300l400 300v-200z" />
    <glyph glyph-name="arrowup" unicode="&#x2191;" 
d="M700 600v-600h-200v600h-200l300 400l300 -400h-200z" />
    <glyph glyph-name="arrowright" unicode="&#x2192;" 
d="M700 400h-600v200h600v200l400 -300l-400 -300v200z" />
    <glyph glyph-name="arrowdown" unicode="&#x2193;" 
d="M500 400v600h200v-600h200l-300 -400l-300 400h200z" />
    <glyph glyph-name="arrowboth" unicode="&#x2194;" 
d="M879 518h-525q103 -80 135 -222h-103q-121 201 -300 272v49q178 69 300 271h103q-32 -142 -135 -222h525q-103 80 -135 222h103q122 -202 300 -271v-49q-179 -71 -300 -272h-103q32 142 135 222z" />
    <glyph glyph-name="arrowupdn" unicode="&#x2195;" 
d="M592 -296q-62 184 -271 296v102q133 -40 222 -137v1254q-89 -98 -222 -137v102q208 111 271 296h50q63 -185 271 -296v-102q-133 39 -222 137v-1254q89 97 222 137v-102q-209 -112 -271 -296h-50z" />
    <glyph glyph-name="arrowupdnbse" unicode="&#x21a8;" 
d="M592 -173q-62 184 -271 296v103q132 -40 222 -137v1253q-89 -97 -222 -137v103q209 111 271 296h50q62 -185 271 -296v-103q-133 40 -222 137v-1253q90 97 222 137v-103q-209 -112 -271 -296h-50zM321 -419v148h592v-148h-592z" />
    <glyph glyph-name="partialdiff" unicode="&#x2202;" 
d="M216 1298q147 306 414 306q208 0 323 -182.5t115 -511.5q0 -403 -169.5 -669t-425.5 -266q-136 0 -218.5 95.5t-82.5 252.5q0 260 172.5 478.5t377.5 218.5q86 0 193 -69v30q0 195 -98.5 324.5t-246.5 129.5q-195 0 -354 -137zM915 774q-98 103 -204 103
q-132 0 -242.5 -150.5t-110.5 -330.5q0 -121 49.5 -195t130.5 -74q136 0 244 185t133 462z" />
    <glyph glyph-name="Delta" unicode="&#x2206;" 
d="M1000 200l-400 1100l-400 -1100h800zM1200 0h-1200l600 1619z" />
    <glyph glyph-name="product" unicode="&#x220f;" 
d="M400 1100v-1100h-200v1100h-100v200h1000v-200h-100v-1100h-200v1100h-400z" />
    <glyph glyph-name="summation" unicode="&#x2211;" 
d="M200 1200v200h800v-200h-600l400 -500l-400 -500h600v-200h-800v200l400 500z" />
    <glyph glyph-name="minus" unicode="&#x2212;" 
d="M1147 456h-1061v149h1061v-149z" />
    <glyph glyph-name="uni2219" unicode="&#x2219;" 
d="M617 290q-123 0 -209.5 86.5t-86.5 209.5t86.5 209.5t209.5 86.5t209.5 -86.5t86.5 -209.5t-86.5 -209.5t-209.5 -86.5z" />
    <glyph glyph-name="radical" unicode="&#x221a;" 
d="M63 324l-63 106l275 163l295 -632l510 1655h154l-587 -1912h-121l-327 700z" />
    <glyph glyph-name="infinity" unicode="&#x221e;" 
d="M384 374q58 0 100 42t42 100t-42 100t-100 42t-100 -42t-42 -100t42 -100t100 -42zM810 374q58 0 100 42t42 100t-42 100t-100 42t-100 -42t-42 -100t42 -100t100 -42zM597 327l-11 -11q-84 -84 -202 -84t-201 83t-83 201t83 201t201 83t202 -82q5 -7 11 -13l13 13
q82 82 200 82t201 -83t83 -201t-83 -201t-201 -83t-200 84q-7 5 -13 11z" />
    <glyph glyph-name="orthogonal" unicode="&#x221f;" 
d="M1147 148v-148h-1061v1061h148v-913h913z" />
    <glyph glyph-name="intersection" unicode="&#x2229;" 
d="M234 0h-148v573q0 206 158.5 359.5t371.5 153.5q214 0 372.5 -153.5t158.5 -359.5v-573h-148v573q0 144 -116 254.5t-267 110.5t-266.5 -110.5t-115.5 -254.5v-573z" />
    <glyph glyph-name="integral" unicode="&#x222b;" 
d="M369 -299q-10 -1 -19 -1q-62 0 -106 44t-44 106t44 106t106 44t106 -44q28 -28 38 -64l8 8h-2v1400h1q8 61 99 136q6 17 68 40q37 16 52 16h80q24 8 50 8q62 0 106 -44t44 -106t-44 -106t-106 -44t-106 44q-19 19 -30 41q-1 0 -2 -1q-6 -5 -12 -8v-1388q0 -21 -12 -36
v-36q0 -66 -128 -100q-49 -16 -60 -16h-124q-4 0 -7 1z" />
    <glyph glyph-name="approxequal" unicode="&#x2248;" 
d="M553 830v-6l186 -127q24 -26 60 -26t62 26q22 22 24 56h171q-2 -104 -75 -178q-76 -75 -182 -75q-49 0 -92 15v2l-187 129l-2 1q-25 24 -61 24t-60 -24q-22 -22 -26 -51h-171q3 99 75 171q76 75 182 75q51 0 94 -17q0 2 2 5zM553 430v-6l186 -127q24 -26 60 -26t62 26
q22 22 24 56h171q-2 -104 -75 -178q-76 -75 -182 -75q-49 0 -92 15v2l-187 129l-2 1q-25 24 -61 24t-60 -24q-22 -22 -26 -51h-171q3 99 75 171q76 75 182 75q51 0 94 -17q0 2 2 5z" />
    <glyph glyph-name="notequal" unicode="&#x2260;" 
d="M793 793h258v-142h-322l-65 -142h387v-142h-451l-258 -567h-142l258 567h-258v142h322l65 142h-387v142h451l258 567h142z" />
    <glyph glyph-name="equivalence" unicode="&#x2261;" 
d="M86 111v148h1061v-148h-1061zM86 456v149h1061v-149h-1061zM86 802v148h1061v-148h-1061z" />
    <glyph glyph-name="lessequal" unicode="&#x2264;" 
d="M86 -148v148h1061v-148h-1061zM1147 148l-1061 531l1061 530v-165l-730 -365l730 -365v-166z" />
    <glyph glyph-name="greaterequal" unicode="&#x2265;" 
d="M86 -148v148h1061v-148h-1061zM86 1209l1061 -530l-1061 -531v166l730 365l-730 365v165z" />
    <glyph glyph-name="house" unicode="&#x2302;" 
d="M1098 0h-962v703l481 481l481 -481v-703zM950 148v495l-333 333l-333 -333v-495h666z" />
    <glyph glyph-name="revlogicalnot" unicode="&#x2310;" 
d="M86 790h1061v-148h-913v-346h-148v494z" />
    <glyph glyph-name="integraltp" unicode="&#x2320;" 
d="M884 1514q-16 5 -26 5q-67 0 -106 -93q-37 -89 -37 -620v-1238h-197v981q0 624 85 829q99 238 290 238q155 0 155 -119q0 -42 -26.5 -70.5t-64.5 -28.5q-81 0 -81 80q0 14 8 36z" />
    <glyph glyph-name="integralbt" unicode="&#x2321;" 
d="M350 -330q16 -5 26 -5q67 0 105 93q37 90 37 620v1238h197v-981q0 -624 -84 -828q-99 -239 -291 -239q-155 0 -155 120q0 41 26.5 69.5t65.5 28.5q81 0 81 -79q0 -14 -8 -37z" />
    <glyph glyph-name="SF100000" unicode="&#x2500;" 
d="M0 518v148h1234v-148h-1234z" />
    <glyph glyph-name="SF110000" unicode="&#x2502;" 
d="M543 1616h148v-2048h-148v2048z" />
    <glyph glyph-name="SF010000" unicode="&#x250c;" 
d="M543 666h691v-148h-543v-950h-148v1098z" />
    <glyph glyph-name="SF030000" unicode="&#x2510;" 
d="M0 518v148h691v-1098h-148v950h-543z" />
    <glyph glyph-name="SF020000" unicode="&#x2514;" 
d="M543 1616h148v-950h543v-148h-691v1098z" />
    <glyph glyph-name="SF040000" unicode="&#x2518;" 
d="M0 518v148h543v950h148v-1098h-691z" />
    <glyph glyph-name="SF080000" unicode="&#x251c;" 
d="M543 1616h148v-950h543v-148h-543v-950h-148v2048z" />
    <glyph glyph-name="SF090000" unicode="&#x2524;" 
d="M0 518v148h543v950h148v-2048h-148v950h-543z" />
    <glyph glyph-name="SF060000" unicode="&#x252c;" 
d="M0 518v148h1234v-148h-543v-950h-148v950h-543z" />
    <glyph glyph-name="SF070000" unicode="&#x2534;" 
d="M0 518v148h543v950h148v-950h543v-148h-1234z" />
    <glyph glyph-name="SF050000" unicode="&#x253c;" 
d="M0 518v148h543v950h148v-950h543v-148h-543v-950h-148v950h-543z" />
    <glyph glyph-name="SF430000" unicode="&#x2550;" 
d="M0 666v148h1234v-148h-1234zM0 370v148h1234v-148h-1234z" />
    <glyph glyph-name="SF240000" unicode="&#x2551;" 
d="M395 -432v2048h148v-2048h-148zM691 -432v2048h148v-2048h-148z" />
    <glyph glyph-name="SF510000" unicode="&#x2552;" 
d="M543 -432v1246h691v-148h-543v-148h543v-148h-543v-802h-148z" />
    <glyph glyph-name="SF520000" unicode="&#x2553;" 
d="M395 -432v1098h839v-148h-395v-950h-148v950h-148v-950h-148z" />
    <glyph glyph-name="SF390000" unicode="&#x2554;" 
d="M1234 814v-148h-691v-1098h-148v1246h839zM1234 370h-395v-802h-148v950h543v-148z" />
    <glyph glyph-name="SF220000" unicode="&#x2555;" 
d="M0 666v148h691v-1246h-148v802h-543v148h543v148h-543z" />
    <glyph glyph-name="SF210000" unicode="&#x2556;" 
d="M395 -432v950h-395v148h839v-1098h-148v950h-148v-950h-148z" />
    <glyph glyph-name="SF250000" unicode="&#x2557;" 
d="M0 370v148h543v-950h-148v802h-395zM0 666v148h839v-1246h-148v1098h-691z" />
    <glyph glyph-name="SF500000" unicode="&#x2558;" 
d="M543 1616h148v-802h543v-148h-543v-148h543v-148h-691v1246z" />
    <glyph glyph-name="SF490000" unicode="&#x2559;" 
d="M395 1616h148v-950h148v950h148v-950h395v-148h-839v1098z" />
    <glyph glyph-name="SF380000" unicode="&#x255a;" 
d="M1234 666h-543v950h148v-802h395v-148zM1234 370h-839v1246h148v-1098h691v-148z" />
    <glyph glyph-name="SF280000" unicode="&#x255b;" 
d="M0 666v148h543v802h148v-1246h-691v148h543v148h-543z" />
    <glyph glyph-name="SF270000" unicode="&#x255c;" 
d="M395 1616h148v-950h148v950h148v-1098h-839v148h395v950z" />
    <glyph glyph-name="SF260000" unicode="&#x255d;" 
d="M0 666v148h395v802h148v-950h-543zM0 370v148h691v1098h148v-1246h-839z" />
    <glyph glyph-name="SF360000" unicode="&#x255e;" 
d="M543 1616h148v-802h543v-148h-543v-148h543v-148h-543v-802h-148v2048z" />
    <glyph glyph-name="SF370000" unicode="&#x255f;" 
d="M395 -432v2048h148v-2048h-148zM691 -432v2048h148v-950h395v-148h-395v-950h-148z" />
    <glyph glyph-name="SF420000" unicode="&#x2560;" 
d="M395 1616h148v-2048h-148v2048zM1234 666h-543v950h148v-802h395v-148zM1234 370h-395v-802h-148v950h543v-148z" />
    <glyph glyph-name="SF190000" unicode="&#x2561;" 
d="M0 666v148h543v802h148v-2048h-148v802h-543v148h543v148h-543z" />
    <glyph glyph-name="SF200000" unicode="&#x2562;" 
d="M395 -432v950h-395v148h395v950h148v-2048h-148zM691 -432v2048h148v-2048h-148z" />
    <glyph glyph-name="SF230000" unicode="&#x2563;" 
d="M0 370v148h543v-950h-148v802h-395zM0 666v148h395v802h148v-950h-543zM691 1616h148v-2048h-148v2048z" />
    <glyph glyph-name="SF470000" unicode="&#x2564;" 
d="M0 666v148h1234v-148h-1234zM0 370v148h1234v-148h-543v-802h-148v802h-543z" />
    <glyph glyph-name="SF480000" unicode="&#x2565;" 
d="M0 518v148h1234v-148h-395v-950h-148v950h-148v-950h-148v950h-395z" />
    <glyph glyph-name="SF410000" unicode="&#x2566;" 
d="M0 666v148h1234v-148h-1234zM0 370v148h543v-950h-148v802h-395zM1234 370h-395v-802h-148v950h543v-148z" />
    <glyph glyph-name="SF450000" unicode="&#x2567;" 
d="M0 666v148h543v802h148v-802h543v-148h-1234zM0 370v148h1234v-148h-1234z" />
    <glyph glyph-name="SF460000" unicode="&#x2568;" 
d="M0 518v148h395v950h148v-950h148v950h148v-950h395v-148h-1234z" />
    <glyph glyph-name="SF400000" unicode="&#x2569;" 
d="M0 666v148h395v802h148v-950h-543zM1234 666h-543v950h148v-802h395v-148zM0 370v148h1234v-148h-1234z" />
    <glyph glyph-name="SF540000" unicode="&#x256a;" 
d="M0 666v148h543v802h148v-802h543v-148h-543v-148h543v-148h-543v-802h-148v802h-543v148h543v148h-543z" />
    <glyph glyph-name="SF530000" unicode="&#x256b;" 
d="M395 -432v950h-395v148h395v950h148v-950h148v950h148v-950h395v-148h-395v-950h-148v950h-148v-950h-148z" />
    <glyph glyph-name="SF440000" unicode="&#x256c;" 
d="M0 370v148h543v-950h-148v802h-395zM0 666v148h395v802h148v-950h-543zM1234 666h-543v950h148v-802h395v-148zM1234 370h-395v-802h-148v950h543v-148z" />
    <glyph glyph-name="upblock" unicode="&#x2580;" 
d="M0 592v1024h1234v-1024h-1234z" />
    <glyph glyph-name="dnblock" unicode="&#x2584;" 
d="M0 592h1234v-1024h-1234v1024z" />
    <glyph glyph-name="block" unicode="&#x2588;" 
d="M0 1616h1234v-2048h-1234v2048z" />
    <glyph glyph-name="lfblock" unicode="&#x258c;" 
d="M0 1616h617v-2048h-617v2048z" />
    <glyph glyph-name="rtblock" unicode="&#x2590;" 
d="M617 1616h617v-2048h-617v2048z" />
    <glyph glyph-name="ltshade" unicode="&#x2591;" 
d="M0 1411v205h206v-205h-206zM0 1002v205h206v-205h-206zM0 592v205h206v-205h-206zM0 183v204h206v-204h-206zM0 -227v205h206v-205h-206zM411 1411v205h206v-205h-206zM411 1002v205h206v-205h-206zM411 592v205h206v-205h-206zM411 183v204h206v-204h-206zM411 -227v205
h206v-205h-206zM822 1411v205h206v-205h-206zM822 1002v205h206v-205h-206zM822 592v205h206v-205h-206zM822 183v204h206v-204h-206zM822 -227v205h206v-205h-206z" />
    <glyph glyph-name="shade" unicode="&#x2592;" 
d="M0 1209v202h204v-202h-204zM0 798v203h204v-203h-204zM0 388v203h204v-203h-204zM0 -22v203h204v-203h-204zM0 -432v203h204v-203h-204zM206 1413v203h204v-203h-204zM206 1004v202h204v-202h-204zM206 593v203h204v-203h-204zM206 183v203h204v-203h-204zM206 -227v203
h204v-203h-204zM412 1209v202h204v-202h-204zM412 798v203h204v-203h-204zM412 388v203h204v-203h-204zM412 -22v203h204v-203h-204zM412 -432v203h204v-203h-204zM618 1413v203h204v-203h-204zM618 1004v202h204v-202h-204zM618 593v203h204v-203h-204zM618 183v203h204
v-203h-204zM618 -227v203h204v-203h-204zM824 1209v202h204v-202h-204zM824 798v203h204v-203h-204zM824 388v203h204v-203h-204zM824 -22v203h204v-203h-204zM824 -432v203h204v-203h-204zM1030 1413v203h204v-203h-204zM1030 1004v202h204v-202h-204zM1030 593v203h204
v-203h-204zM1030 183v203h204v-203h-204zM1030 -227v203h204v-203h-204z" />
    <glyph glyph-name="dkshade" unicode="&#x2593;" 
d="M0 -432v2048h1234v-205h-206v-204h206v-205h-206v-205h206v-205h-206v-205h206v-204h-206v-205h206v-205h-206v-205h-206v205h-205v-205h-206v205h-206v-205h-205zM205 1207h206v204h-206v-204zM205 797h206v205h-206v-205zM205 387h206v205h-206v-205zM205 -22h206v204
h-206v-204zM617 1207h205v204h-205v-204zM617 797h205v205h-205v-205zM617 387h205v205h-205v-205zM617 -22h205v204h-205v-204z" />
    <glyph glyph-name="filledbox" unicode="&#x25a0;" 
d="M74 0v1086h1086v-1086h-1086z" />
    <glyph glyph-name="filledrect" unicode="&#x25ac;" 
d="M74 625v362h1086v-362h-1086z" />
    <glyph glyph-name="triagup" unicode="&#x25b2;" 
d="M1179 0h-1123l561 1184z" />
    <glyph glyph-name="triagrt" unicode="&#x25ba;" 
d="M56 0v1184l1123 -592z" />
    <glyph glyph-name="triagdn" unicode="&#x25bc;" 
d="M56 1184h1123l-562 -1184z" />
    <glyph glyph-name="triaglf" unicode="&#x25c4;" 
d="M1179 1184v-1184l-1123 592z" />
    <glyph glyph-name="lozenge" unicode="&#x25ca;" 
d="M617 0l-592 592l592 592l592 -592zM617 209l383 383l-383 383l-383 -383z" />
    <glyph glyph-name="circle" unicode="&#x25cb;" 
d="M617 -12q-230 0 -392.5 162t-162.5 393q0 230 162.5 392.5t392.5 162.5t392.5 -162.5t162.5 -392.5t-162.5 -392.5t-392.5 -162.5zM617 111q179 0 305.5 126.5t126.5 305.5t-126.5 305.5t-305.5 126.5t-305.5 -126.5t-126.5 -305.5t126.5 -305.5t305.5 -126.5z" />
    <glyph glyph-name="invbullet" unicode="&#x25d8;" 
d="M1234 -432h-1234v2048h1234v-2048zM617 290q123 0 209.5 86.5t86.5 209.5t-86.5 209.5t-209.5 86.5t-209.5 -86.5t-86.5 -209.5t86.5 -209.5t209.5 -86.5z" />
    <glyph glyph-name="invcircle" unicode="&#x25d9;" 
d="M0 1616h1234v-2048h-1234v2048zM617 -12q230 0 392.5 162t162.5 393q0 230 -162.5 392.5t-392.5 162.5t-392.5 -162.5t-162.5 -392.5q0 -231 162.5 -393t392.5 -162zM617 111q-179 0 -305.5 126.5t-126.5 305.5t126.5 305.5t305.5 126.5t305.5 -126.5t126.5 -305.5
t-126.5 -305.5t-305.5 -126.5z" />
    <glyph glyph-name="smileface" unicode="&#x263a;" 
d="M617 -12q-230 0 -392.5 162.5t-162.5 392.5t162.5 392.5t392.5 162.5t392.5 -162.5t162.5 -392.5t-162.5 -392.5t-392.5 -162.5zM617 93q187 0 318.5 131.5t131.5 318.5q0 186 -131.5 317.5t-318.5 131.5q-186 0 -317.5 -131.5t-131.5 -317.5q0 -187 131.5 -318.5
t317.5 -131.5zM274 512h79q52 -216 264 -216t264 216h80q-22 -152 -115 -241t-229 -89t-229 89.5t-114 240.5zM441 631q-37 0 -62.5 25.5t-25.5 62.5t25.5 62.5t62.5 25.5t62.5 -25.5t25.5 -62.5t-25.5 -62.5t-62.5 -25.5zM793 631q-36 0 -62 25.5t-26 62.5t26 62.5t62 25.5
q37 0 62.5 -25.5t25.5 -62.5t-25.5 -62.5t-62.5 -25.5z" />
    <glyph glyph-name="invsmileface" unicode="&#x263b;" 
d="M617 -12q-230 0 -392.5 162.5t-162.5 392.5t162.5 392.5t392.5 162.5t393 -162.5t163 -392.5t-162.5 -392.5t-393.5 -162.5zM274 512q21 -151 114.5 -240.5t228.5 -89.5q136 0 229 89t115 241h-79q-52 -216 -265 -216q-212 0 -264 216h-79zM441 631q37 0 62.5 25.5
t25.5 62.5t-25.5 62.5t-62.5 25.5q-36 0 -62 -25.5t-26 -62.5t26 -62.5t62 -25.5zM794 631q36 0 62 25.5t26 62.5t-26 62.5t-62 25.5q-37 0 -63 -25.5t-26 -62.5t26 -62.5t63 -25.5z" />
    <glyph glyph-name="sun" unicode="&#x263c;" 
d="M617 432q102 0 174.5 72.5t72.5 174.5t-72.5 174.5t-174.5 72.5t-174.5 -72.5t-72.5 -174.5t72.5 -174.5t174.5 -72.5zM543 123v168q-81 18 -148 61l-119 -118l-104 104l118 118q-44 70 -61 149h-168v148h168q16 76 61 148l-118 118l104 105l119 -119q67 43 148 62v167
h148v-167q81 -19 148 -62l118 119l105 -105l-118 -118q45 -72 61 -148h167v-148h-167q-17 -79 -61 -149l118 -118l-105 -104l-119 118q-66 -43 -147 -61v-168h-148z" />
    <glyph glyph-name="female" unicode="&#x2640;" 
d="M542 0v197h-246v148h246v156q-180 25 -299.5 164t-119.5 324q0 203 144.5 347t348.5 144q205 0 349.5 -144t144.5 -347q0 -185 -120 -324t-300 -164v-156h247v-148h-247v-197h-148zM616 642q143 0 244.5 102.5t101.5 246.5q0 141 -101.5 241t-244.5 100
q-142 0 -243.5 -100t-101.5 -241q0 -144 101.5 -246.5t243.5 -102.5z" />
    <glyph glyph-name="male" unicode="&#x2642;" 
d="M879 1303l-271 -76l-41 145l521 145l146 -525l-143 -40l-79 285l-206 -353q187 -165 187 -388q0 -206 -145.5 -351t-352.5 -145q-202 0 -345.5 145t-143.5 349q0 207 146.5 350t358.5 143q75 0 169 -29zM154 499q0 -146 101.5 -248.5t245.5 -102.5q141 0 242.5 101.5
t101.5 243.5q0 145 -100.5 245.5t-246.5 100.5q-141 0 -242.5 -100.5t-101.5 -239.5z" />
    <glyph glyph-name="spade" unicode="&#x2660;" 
d="M469 0l105 530q-139 -185 -286 -185q-109 0 -186 81t-77 195q0 137 147 299l60 64l65 69q144 153 288 378l32 49l32 -49q145 -225 289 -378l64 -69l61 -64q147 -162 147 -300q0 -114 -77.5 -194.5t-186.5 -80.5q-147 0 -286 185l105 -530h-296z" />
    <glyph glyph-name="club" unicode="&#x2663;" 
d="M469 0l99 592q-119 -185 -264 -185q-118 0 -198.5 82.5t-80.5 202.5q0 115 73.5 192.5t182.5 77.5q84 0 188 -55q-136 133 -136 281q0 123 82.5 207.5t201.5 84.5q120 0 202 -84.5t82 -207.5q0 -148 -136 -281q104 55 188 55q109 0 182.5 -77.5t73.5 -192.5
q0 -120 -80.5 -202.5t-198.5 -82.5q-145 0 -263 185l98 -592h-296z" />
    <glyph glyph-name="heart" unicode="&#x2665;" 
d="M617 0q-245 190 -418.5 495t-173.5 546q0 197 81.5 318t214.5 121q195 0 296 -234q102 234 296 234q133 0 215 -121t82 -318q0 -241 -174.5 -547t-418.5 -494z" />
    <glyph glyph-name="diamond" unicode="&#x2666;" 
d="M1209 740q-216 -213 -322 -345.5t-270 -394.5q-164 263 -269 394.5t-323 345.5q209 199 325 343.5t267 396.5q151 -251 267 -396t325 -344z" />
    <glyph glyph-name="musicalnote" unicode="&#x266a;" 
d="M497 301v1179h99v-26q0 -131 217 -297l70 -53q217 -165 217 -305q0 -104 -107 -239l-69 52q62 84 62 145t-88 139l-74 67q-22 19 -74 56q-90 65 -154 130v-723q0 -257 -99 -360t-241 -103q-74 0 -121 37.5t-47 97.5q0 91 87 158.5t204 67.5q60 0 118 -23z" />
    <glyph glyph-name="musicalnotedbl" unicode="&#x266b;" 
d="M527 996v-826q0 -258 -95 -360q-100 -106 -237 -106q-77 0 -124.5 38.5t-47.5 101.5q0 92 86 158.5t204 66.5q64 0 115 -24v1127l716 345v-1009q0 -150 -19 -222.5t-75 -131.5q-98 -105 -237 -105q-77 0 -123.5 37t-46.5 97q0 92 86 157t209 65q51 0 107 -22v863z" />
    <glyph glyph-name="uniFB01" unicode="&#xfb01;" 
d="M608 1280h180q6 0 12 -12v-152q0 -8 -8 -8q-49 12 -84 12q-101 0 -136 -112q-12 -40 -12 -92v-276h232q8 -1 8 -8v-144q0 -8 -8 -8h-232v-472q0 -8 -8 -8h-144q-8 0 -8 8v472h-232q-8 0 -8 8v144q1 8 8 8h232v440q0 138 108 184q52 16 100 16zM972 1280h4q84 -16 84 -76
q-15 -84 -76 -84q-84 15 -84 64v24q17 72 72 72zM908 800h144q8 -1 8 -8v-784q0 -8 -8 -8h-144q-8 0 -8 8v784q1 8 8 8z" />
    <glyph glyph-name="uniFB02" unicode="&#xfb02;" 
d="M548 1280h180q6 0 12 -12v-152q0 -8 -8 -8q-49 12 -84 12q-101 0 -136 -112q-12 -40 -12 -92v-276h232q8 -1 8 -8v-144q0 -8 -8 -8h-232v-472q0 -8 -8 -8h-144q-8 0 -8 8v472h-232q-8 0 -8 8v144q1 8 8 8h232v440q0 138 108 184q52 16 100 16zM788 1280h304q8 -1 8 -8
v-1264q0 -8 -8 -8h-144q-8 0 -8 8v1112h-152q-8 0 -8 8v144q1 8 8 8z" />
    <glyph glyph-name="glyph642" 
d="M500 1300h200l200 -300h-100l-198 198l-202 -198h-100z" />
    <glyph glyph-name="glyph643" 
d="M547 1192v-5l131 -89q17 -18 42 -18t43 18q16 16 17 40h120q-1 -73 -53 -125q-53 -53 -127 -53q-35 0 -65 11v1l-131 90l-1 2q-18 16 -43 16t-42 -16q-16 -16 -18 -36h-120q2 69 53 120q53 52 127 52q36 0 66 -12q0 2 1 4z" />
    <glyph glyph-name="glyph644" 
d="M400 1000q-41 0 -70.5 29.5t-29.5 70.5t29.5 70.5t70.5 29.5t70.5 -29.5t29.5 -70.5t-29.5 -70.5t-70.5 -29.5zM800 1000q-41 0 -70.5 29.5t-29.5 70.5t29.5 70.5t70.5 29.5t70.5 -29.5t29.5 -70.5t-29.5 -70.5t-70.5 -29.5z" />
    <glyph glyph-name="glyph645" 
d="M800 1200h100q0 -83 -88 -141.5t-212 -58.5t-212 58.5t-88 141.5h100q0 -41 58.5 -70.5t141.5 -29.5t141.5 29.5t58.5 70.5z" />
    <glyph glyph-name="glyph646" 
d="M615 930q-77 0 -131 54t-54 131t54 131t131 54t131 -54t54 -131t-54 -131t-131 -54zM615 1004q46 0 78.5 32.5t32.5 78.5t-32.5 78.5t-78.5 32.5t-78.5 -32.5t-32.5 -78.5t32.5 -78.5t78.5 -32.5z" />
    <glyph glyph-name="glyph647" 
d="M700 -106q-2 -37 -29 -64q-11 -14 -17 -21l-154 -209l62 205q-15 7 -32 25q-30 29 -30 70t29.5 70.5t70.5 29.5t70.5 -29.5t29.5 -70.5v-6z" />
    <glyph glyph-name="glyph648" 
d="M400 1000h-100l200 300h100zM700 1000h-100l200 300h100z" />
    <glyph glyph-name="glyph649" 
d="M500 1000l-200 300h100l202 -198l198 198h100l-200 -300h-200z" />
    <glyph glyph-name="glyph650" 
d="M500 1000h-100l200 300h200z" />
    <glyph glyph-name="glyph651" 
d="M700 1000l-300 300h200l200 -300h-100z" />
    <glyph glyph-name="glyph652" 
d="M700 -180q-2 -27 -29 -48q-11 -10 -17 -15l-154 -157l62 154q-15 5 -32 18q-30 22 -30 53t29.5 53t70.5 22t70.5 -22t29.5 -53v-5z" />
    <glyph glyph-name="glyph653" 
d="M268 1280h144q8 -1 8 -8v-624h4l316 628l8 4h144q8 0 8 -12q-300 -604 -300 -612v-16q194 0 292 -240q8 -48 8 -76v-316q0 -8 -8 -8h-144q-8 0 -8 8v312q0 111 -116 156q-7 4 -16 4h-188v-472q0 -8 -8 -8h-144q-8 0 -8 8v1264q1 8 8 8zM722 -106q-2 -37 -29 -64
q-11 -14 -17 -21l-154 -209l62 205q-15 7 -32 25q-30 29 -30 70t29.5 70.5t70.5 29.5t70.5 -29.5t29.5 -70.5v-6z" />
    <glyph glyph-name="glyph654" 
d="M260 1280h144q8 -1 8 -8v-792l324 320h164v-4l-316 -320q149 0 260 -104q48 -56 48 -140v-224q0 -8 -8 -8h-144q-8 0 -8 8v220q0 92 -160 92h-160v-312q0 -8 -8 -8h-144q-8 0 -8 8v1264q1 8 8 8zM741 -106q-2 -37 -29 -64q-11 -14 -17 -21l-154 -209l62 205q-15 7 -32 25
q-30 29 -30 70t29.5 70.5t70.5 29.5t70.5 -29.5t29.5 -70.5v-6z" />
    <glyph glyph-name="glyph655" 
d="M268 1280h144q8 -1 8 -8v-1112h472q8 -1 8 -8v-144q0 -8 -8 -8h-624q-8 0 -8 8v1264q1 8 8 8zM774 -180q-2 -27 -29 -48q-11 -10 -17 -15l-154 -157l62 154q-15 5 -32 18q-30 22 -30 53t29.5 53t70.5 22t70.5 -22t29.5 -53v-5z" />
    <glyph glyph-name="glyph656" 
d="M488 1280h304q8 -1 8 -8v-1264q0 -8 -8 -8h-144q-8 0 -8 8v1112h-152q-8 0 -8 8v144q1 8 8 8zM774 -180q-2 -27 -29 -48q-11 -10 -17 -15l-154 -157l62 154q-15 5 -32 18q-30 22 -30 53t29.5 53t70.5 22t70.5 -22t29.5 -53v-5z" />
    <glyph glyph-name="glyph657" 
d="M748 1280h144q8 -1 8 -8v-1260h-8l-468 828h-4v-832q0 -8 -8 -8h-144q-8 0 -8 8v1264h8q463 -819 472 -824v824q1 8 8 8zM688 -106q-2 -37 -29 -64q-11 -14 -17 -21l-154 -209l62 205q-15 7 -32 25q-30 29 -30 70t29.5 70.5t70.5 29.5t70.5 -29.5t29.5 -70.5v-6z" />
    <glyph glyph-name="glyph658" 
d="M252 800h4l476 -472v464q1 8 8 8h152q8 -1 8 -8v-788h-4l-476 472v-468q0 -8 -8 -8h-152q-8 0 -8 8v792zM710 -106q-2 -37 -29 -64q-11 -14 -17 -21l-154 -209l62 205q-15 7 -32 25q-30 29 -30 70t29.5 70.5t70.5 29.5t70.5 -29.5t29.5 -70.5v-6z" />
    <glyph glyph-name="glyph659" 
d="M268 1288h252q223 0 288 -100q92 -95 92 -236v-144q0 -235 -256 -316q-56 -3 -56 -8q110 -170 312 -472v-4q0 -8 -8 -8h-144q-43 47 -184 268l-140 212h-4v-464q0 -8 -8 -8h-144q-8 0 -8 8v1264q1 8 8 8zM420 1128v-480h168q112 0 152 132v180q0 127 -132 168h-188z
M712 -106q-2 -37 -29 -64q-11 -14 -17 -21l-154 -209l62 205q-15 7 -32 25q-30 29 -30 70t29.5 70.5t70.5 29.5t70.5 -29.5t29.5 -70.5v-6z" />
    <glyph glyph-name="glyph660" 
d="M268 800h148q8 -1 8 -8v-40h4q17 39 160 48q228 0 308 -260q4 -25 4 -56l-8 -4h-140q-6 1 -36 92q-56 68 -140 68q-156 0 -156 -204v-428q0 -8 -8 -8h-144q-8 0 -8 8v784q1 8 8 8zM860 -106q-2 -37 -29 -64q-11 -14 -17 -21l-154 -209l62 205q-15 7 -32 25q-30 29 -30 70
t29.5 70.5t70.5 29.5t70.5 -29.5t29.5 -70.5v-6z" />
    <glyph glyph-name="glyph666" 
d="M612 1280h4q84 -16 84 -76q-15 -84 -76 -84q-84 15 -84 64v24q17 72 72 72zM548 800h144q8 -1 8 -8v-784q0 -8 -8 -8h-144q-8 0 -8 8v784q1 8 8 8zM940 1012h-100l200 300h200z" />
  </font>
</defs>
</svg>
